<svg width="323" height="279" viewBox="0 0 323 279" fill="none" xmlns="http://www.w3.org/2000/svg">
<path fill-rule="evenodd" clip-rule="evenodd" d="M150.93 23.9999C176.74 27.3967 202.53 16.869 227.099 25.4823C258.526 36.4997 294.646 48.87 308.442 79.2187C322.481 110.102 306.729 145.488 296.332 177.784C285.911 210.157 276.685 245.97 248.603 265.101C220.81 284.035 184.488 278.776 150.93 276.838C119.342 275.014 86.0712 273.751 61.1128 254.274C36.5441 235.102 27.2176 203.507 18.5624 173.543C10.1816 144.529 5.39629 114.766 12.3242 85.3704C19.7132 54.0181 29.2607 16.3426 58.6805 3.31643C88.2235 -9.76429 118.904 19.7848 150.93 23.9999Z" fill="#F7F7F7"/>
<path fill-rule="evenodd" clip-rule="evenodd" d="M58.9182 158.066L59.793 169.038L76.4156 172.988L89.1015 178.693L99.1625 187.471L103.974 183.521L110.099 169.916L117.097 168.599L142.469 171.233L151.218 173.866L148.156 188.787L145.094 199.759L195.837 196.687L194.087 171.233L183.588 147.973L142.032 127.785L110.973 131.735L89.1015 155.872L79.4777 161.139L62.4178 160.261" fill="#0075FF"/>
<path fill-rule="evenodd" clip-rule="evenodd" d="M34.7132 179.919C34.7132 181.709 35.8216 181.596 37.164 181.459C37.6216 181.412 38.1067 181.362 38.5844 181.384C38.8756 181.398 39.367 181.484 39.9499 181.586L39.9502 181.586C41.6558 181.885 44.1455 182.322 44.6995 181.478C45.2294 180.67 44.4909 180.56 43.7377 180.448C43.2299 180.373 42.7157 180.296 42.5794 180.004C42.2176 179.227 42.9273 178.687 43.6172 178.163C44.2292 177.697 44.826 177.244 44.6459 176.646C44.4645 176.044 43.654 176.386 42.779 176.755C41.8078 177.165 40.757 177.609 40.3981 176.832C40.056 176.092 40.843 175.406 41.5574 174.783C42.1617 174.256 42.7144 173.775 42.4884 173.343C42.0696 172.546 37.8248 174.565 37.2828 174.912C35.7493 175.894 34.6435 178.1 34.7132 179.919ZM224.283 137.366C224.935 138.068 225.431 138.896 225.923 139.716C226.416 140.538 226.904 141.353 227.541 142.03C228.089 142.613 228.718 142.839 229.37 143.073V143.073C229.665 143.179 229.964 143.287 230.263 143.43C230.84 143.707 231.438 144.007 232.051 144.315C234.411 145.499 236.992 146.794 239.445 147.303C237.636 145.186 236.487 143.27 235.412 140.697C235.303 140.435 235.185 140.168 235.067 139.899C234.769 139.223 234.464 138.532 234.259 137.849C234.042 137.13 234 136.389 233.959 135.651C233.922 134.985 233.884 134.322 233.718 133.681C233.625 133.32 233.587 133.041 233.558 132.834L233.558 132.833V132.832C233.525 132.588 233.505 132.445 233.424 132.386C233.31 132.304 233.075 132.39 232.508 132.597L232.462 132.614L232.393 132.639L232.319 132.666C231.827 132.845 231.37 133.225 230.925 133.596C230.646 133.829 230.372 134.058 230.096 134.231C229.244 134.765 228.356 135.187 227.471 135.607C226.379 136.126 225.291 136.643 224.283 137.366ZM307.123 99.3506C307.185 100.015 316.143 96.8184 317.027 96.2319C318.681 95.1349 320.618 90.0867 318.859 88.5903C317.275 87.2435 313.795 88.8845 311.276 90.0726C310.418 90.4773 309.671 90.8295 309.149 90.9929C305.69 92.0738 301.705 92.6824 298.101 92.3142C296.466 92.1468 294.857 92.0079 293.207 91.9058C292.929 91.8887 292.608 91.8452 292.266 91.7983C291.085 91.6376 289.644 91.4411 288.82 92.1793C287.815 93.0791 287.936 94.8704 288.448 95.9892C288.625 96.3752 288.838 96.5885 289.044 96.7943C289.224 96.9744 289.398 97.1489 289.538 97.428C289.575 97.5027 289.555 97.5984 289.531 97.7139C289.493 97.8971 289.445 98.13 289.597 98.4079C290.28 99.6566 292.607 101.743 293.86 102.379C295.061 102.988 295.498 102.613 296.165 102.041C296.391 101.848 296.644 101.632 296.961 101.424C299.142 99.9933 302.549 99.7239 305.41 99.4976C306.01 99.45 306.587 99.4045 307.123 99.3506ZM286.383 99.7372C283.79 102.903 280.74 105.104 277.542 107.412L277.541 107.413C276.909 107.869 276.271 108.329 275.63 108.802C274.763 109.441 273.906 110.093 273.05 110.745L273.05 110.746H273.05L273.049 110.746L273.049 110.746L273.048 110.747V110.747C270.506 112.682 267.97 114.613 265.182 116.19C264.882 116.36 264.528 116.51 264.17 116.663C263.223 117.066 262.241 117.484 262.097 118.318C261.973 119.044 262.835 120.589 263.555 121.881C263.909 122.516 264.229 123.089 264.381 123.475C265.755 126.944 266.814 130.492 267.879 134.066C268.028 134.565 268.177 135.064 268.326 135.563L268.585 135.159C272.149 129.604 275.759 123.975 280.124 118.956C284.07 114.419 288.118 109.672 291.567 104.783C289.479 103.511 287.75 101.757 286.383 99.7372ZM256.131 58.1244C252.475 57.9778 251.361 60.9616 250.294 63.8184C249.875 64.9406 249.463 66.0433 248.908 66.9287C247.819 68.6638 246.371 70.5268 244.763 71.825C243.544 72.8082 242.082 73.388 240.625 73.9661C239.91 74.2497 239.196 74.5332 238.512 74.8633C236.631 75.7715 234.959 76.6817 233.785 78.4342C233.674 78.6009 233.549 78.7774 233.419 78.9611C232.604 80.1121 231.578 81.5626 232.163 82.91C232.569 83.845 233.675 84.617 234.76 85.3749C235.529 85.9118 236.288 86.4418 236.781 87.0179C238.189 88.6629 238.387 88.6154 239.975 88.2334C240.233 88.1712 240.528 88.1005 240.871 88.0265C242.095 87.7624 243.258 87.6801 244.51 87.7239C244.662 87.7289 244.922 87.7775 245.224 87.8334C245.928 87.9643 246.859 88.1373 247.173 87.9044C247.553 87.6225 247.435 86.7528 247.332 85.9969C247.28 85.6092 247.231 85.2514 247.256 85.0177C247.367 83.9695 247.739 82.8879 248.092 81.8997C249.288 78.5487 251.405 76.1726 253.609 73.697L253.611 73.695L253.613 73.6926L253.616 73.69L253.618 73.6876C253.992 73.2678 254.369 72.8447 254.744 72.4138C256.114 70.8388 257.734 69.4954 259.354 68.1533C261.016 66.7754 262.677 65.3989 264.063 63.7743C265.574 62.0037 264.886 60.752 262.812 59.9231C262.228 59.6895 261.587 59.586 260.947 59.4829C260.435 59.4002 259.924 59.3175 259.443 59.1682C259.063 59.0504 258.698 58.8941 258.334 58.7381C257.625 58.4344 256.922 58.1335 256.131 58.1244ZM58.1768 183.136C58.8895 183.136 59.5975 182.845 60.2968 182.557C61.0517 182.247 61.7965 181.94 62.5273 182.008C62.8802 182.042 63.2769 182.376 63.6521 182.692C63.8938 182.896 64.1268 183.092 64.3334 183.195C65.0826 183.57 65.8914 183.757 66.7172 183.86C67.2622 183.927 67.7416 183.928 68.1855 183.928C69.2072 183.929 70.0388 183.93 71.0387 184.746C72.0855 185.601 73.1661 186.679 74.1711 187.682C74.4021 187.912 74.6294 188.139 74.851 188.358C76.6892 190.172 78.291 192.342 79.8621 194.469C80.4549 195.272 81.0434 196.069 81.6383 196.838C84.3194 200.306 87.104 203.059 90.6709 205.656C93.489 207.708 96.3438 209.057 99.5174 210.558L99.807 210.695C103.034 212.222 107.093 213.992 110.754 214.076C113.675 214.144 117.325 213.207 119.983 211.96C121.258 211.363 121.864 211.258 122.904 211.079C123.126 211.041 123.367 210.999 123.638 210.949C125.954 210.519 128.622 209.304 130.803 208.311L131.04 208.204C138.019 205.028 142.441 198.108 145.589 191.334C147.38 187.479 148.498 183.712 149.245 179.541C149.284 179.324 149.322 179.122 149.358 178.935C149.696 177.163 149.794 176.645 147.792 175.795C146.021 175.044 144.137 174.519 142.274 174.001C141.785 173.865 141.297 173.729 140.812 173.589C133.986 171.623 126.205 171.19 119.156 171.49C118.736 171.508 118.314 171.537 117.893 171.566H117.892H117.892H117.891H117.891H117.89C117.2 171.614 116.509 171.662 115.82 171.661C115.594 171.661 115.269 171.619 114.912 171.575C114.202 171.485 113.371 171.381 112.965 171.552C112.005 171.959 111.189 173.8 110.608 175.111L110.608 175.111L110.607 175.112L110.607 175.113C110.452 175.461 110.315 175.773 110.195 176.009C109.221 177.937 108.356 179.914 107.492 181.89V181.891C106.721 183.651 105.952 185.412 105.105 187.136C104.17 189.039 102.774 190.291 100.568 190.322C98.3805 190.352 97.2182 189.114 95.8919 187.703C95.7202 187.52 95.5451 187.334 95.365 187.147C92.2373 183.906 88.0273 181.119 84.1447 178.865C79.9511 176.43 74.9508 174.071 70.1764 173.211C69.6822 173.122 69.089 172.988 68.4322 172.839C64.862 172.028 59.4114 170.79 57.7777 174.159C57.8109 174.154 57.8477 174.149 57.8872 174.143L57.8955 174.142H57.8959C59.0351 173.987 62.5451 173.51 62.6994 175.121C62.755 175.702 61.7919 176.06 60.6838 176.471C59.396 176.949 57.9126 177.501 57.6046 178.558C57.844 178.539 58.1998 178.479 58.6183 178.407C60.3206 178.117 63.0656 177.65 63.302 179.098C63.4275 179.866 62.3305 180.328 61.5719 180.648C61.3831 180.728 61.2151 180.799 61.0922 180.863C59.872 181.505 59.1372 182.171 58.1768 183.136ZM190.712 125.836C189.763 125.167 188.066 125.071 186.612 124.988C186.074 124.958 185.57 124.929 185.148 124.874L185.137 124.873H185.137V124.872C183.148 124.612 181.215 124.359 179.207 124.469C178.48 124.509 177.742 124.533 176.999 124.557C174.864 124.626 172.688 124.697 170.641 125.147C167.181 125.907 163.906 127.075 160.78 128.713C160.719 128.745 160.657 128.777 160.594 128.81L160.591 128.811C159.568 129.342 158.269 130.015 158.278 131.45C158.285 132.612 158.662 132.677 159.55 132.829C159.756 132.865 159.989 132.905 160.253 132.965C163.175 133.63 165.929 135.285 168.583 136.88C169.341 137.336 170.091 137.786 170.834 138.208C174.394 140.225 177.939 142.491 181.242 144.908C187.574 149.541 191.187 156.208 193.999 163.454C195.454 167.202 196.508 171.579 196.946 175.573C197.21 177.983 197.212 180.4 197.213 182.816V182.817C197.214 184.856 197.215 186.894 197.375 188.926C197.386 189.066 197.398 189.26 197.412 189.495V189.495C197.505 191.026 197.702 194.248 198.388 194.814C198.808 195.159 200.385 194.833 201.587 194.584C202.106 194.477 202.555 194.384 202.809 194.366C204.713 194.235 206.623 194.182 208.522 194.13H208.522C210.126 194.085 211.722 194.041 213.299 193.95C216.916 193.741 220.579 193.781 224.249 193.821C227.968 193.861 231.694 193.901 235.392 193.684C239.088 193.466 242.666 192.946 246.29 192.201C247.309 191.991 248.404 191.837 249.52 191.68H249.52C252.096 191.319 254.787 190.941 256.93 189.824C262.846 186.742 266.452 179.311 266.712 173.019C266.993 166.199 266.527 158.777 265.095 151.983C264.917 151.136 264.744 150.298 264.572 149.466C264.022 146.8 263.483 144.192 262.809 141.509C261.932 138.013 260.96 134.531 259.993 131.072L259.985 131.043C259.865 130.611 259.744 130.181 259.624 129.75C258.86 127.01 257.921 124.348 256.983 121.687V121.687V121.687H256.983V121.686V121.686C255.627 117.84 254.273 113.998 253.45 109.938C252.683 106.161 251.597 102.211 250.463 98.5234C250.045 97.1646 249.221 94.5829 248.249 93.5505C247.476 92.73 246.796 92.8863 245.853 93.1036C245.549 93.1735 245.219 93.2495 244.849 93.3014C244.21 93.3915 243.431 93.3801 242.624 93.3687C240.213 93.3346 237.543 93.2967 237.544 95.9266C237.545 97.0528 237.764 98.2114 237.982 99.3643V99.3647V99.365V99.3653L237.982 99.3657V99.366V99.3667V99.367V99.3673C238.137 100.185 238.291 101 238.366 101.799C238.456 102.759 238.482 103.722 238.508 104.684V104.684V104.685V104.685V104.685V104.686V104.686V104.686V104.687C238.543 106.002 238.578 107.318 238.778 108.626C238.896 109.396 239.025 110.153 239.153 110.905L239.154 110.907C239.636 113.733 240.103 116.47 239.886 119.444C239.774 120.975 239.584 122.483 239.395 123.988C239.078 126.511 238.762 129.026 238.812 131.627C238.821 132.103 238.826 132.577 238.831 133.049C238.866 136.495 238.901 139.827 240.552 143.017C240.875 143.64 241.172 144.307 241.47 144.976V144.976C241.905 145.951 242.342 146.93 242.859 147.781C243.882 149.46 244.767 149.951 246.593 150.628C246.86 150.726 247.218 150.832 247.62 150.951C248.938 151.341 250.726 151.869 251.294 152.744C252.364 154.391 250.935 155.058 249.528 155.002C245.97 154.86 242.335 153.535 238.897 152.281L238.896 152.281L238.895 152.281L238.894 152.28L238.892 152.28L238.886 152.277C238.129 152.002 237.382 151.729 236.648 151.474C235.473 151.065 234.326 150.592 233.18 150.12L233.18 150.119C232.455 149.82 231.732 149.522 231.002 149.24C230.582 149.078 230.183 148.945 229.797 148.817C228.8 148.485 227.887 148.181 226.901 147.466C225.177 146.217 223.656 144.722 222.136 143.226C220.713 141.827 219.29 140.427 217.7 139.229C211.475 134.538 204.014 131.738 196.196 130.907C194.185 130.693 192.628 130.789 190.613 130.96C190.316 130.985 190.019 131.006 189.723 131.026C188.909 131.083 188.1 131.139 187.291 131.289C187.068 131.331 186.63 131.497 186.133 131.686C185.209 132.036 184.083 132.464 183.759 132.31C180.525 130.773 189.683 126.093 190.712 125.836ZM58.9095 158.298C58.9105 158.282 58.9116 158.267 58.9129 158.251C58.9189 158.273 58.9249 158.294 58.9306 158.315L58.9095 158.298ZM59.0398 158.681C59.0026 158.563 58.9665 158.44 58.9306 158.315C59.5901 158.839 60.1873 159.412 60.7822 159.983H60.7825L60.7829 159.983C61.5796 160.748 62.3723 161.508 63.3057 162.143C65.247 163.461 67.5555 164.159 69.856 164.652C74.0874 165.56 79.8708 165.333 83.9053 163.549C87.6353 161.899 89.9927 158.923 92.0676 155.467C92.3772 154.951 92.5593 154.389 92.7347 153.847C93.1124 152.681 93.4602 151.608 94.988 151.283C96.0282 151.063 97.2715 151.473 98.5328 151.889C99.5572 152.227 100.593 152.569 101.542 152.58C103.595 152.604 106.258 151.668 107.935 150.404C108.5 149.978 108.902 149.143 109.284 148.348V148.348C109.677 147.53 110.05 146.755 110.56 146.512C110.961 146.321 111.62 146.604 112.191 146.849C112.46 146.964 112.709 147.071 112.902 147.115C113.959 147.36 115.01 147.437 116.07 147.159C117.444 146.798 119.675 145.807 120.745 144.87C121.32 144.367 121.658 143.356 121.984 142.382C122.317 141.385 122.638 140.428 123.185 140.099C123.642 139.824 124.431 140.035 125.234 140.249C125.847 140.413 126.468 140.579 126.955 140.532C130.584 140.186 133.058 138.109 134.453 134.78C134.557 134.53 134.668 133.989 134.796 133.368V133.368C135.05 132.133 135.369 130.58 135.832 130.371C136.105 130.248 137.556 130.776 138.607 131.159C139.074 131.328 139.462 131.469 139.634 131.513C143.166 132.398 147.592 134.284 150.653 136.196C152.999 137.662 155.682 138.631 158.348 139.593L158.348 139.594H158.348L158.349 139.594C159.862 140.14 161.369 140.684 162.806 141.316C166.113 142.77 169.338 144.516 172.39 146.375C175.981 148.563 179.237 150.777 182.164 153.828L182.286 153.955L182.447 154.123C185.233 157.022 188.483 160.406 189.691 164.284C190.143 165.737 190.297 167.299 190.449 168.849V168.849V168.849V168.85C190.534 169.711 190.619 170.569 190.754 171.402C190.997 172.9 191.376 174.352 191.755 175.806C191.968 176.618 192.18 177.432 192.369 178.254C193.369 182.608 193.768 187.761 193.738 192.239C193.736 192.614 193.755 192.963 193.774 193.285C193.846 194.552 193.895 195.394 192.442 195.724C191.271 195.99 189.672 195.659 188.19 195.352C187.422 195.193 186.685 195.041 186.056 194.982C184.468 194.831 182.921 194.874 181.366 194.918H181.366H181.365H181.365H181.364H181.363C180.543 194.941 179.72 194.964 178.887 194.958C178.193 194.954 177.485 194.912 176.772 194.87C175.24 194.779 173.684 194.687 172.19 194.962C169.527 195.453 166.763 195.562 163.982 195.673C162.931 195.714 161.878 195.756 160.827 195.819C159.659 195.888 158.49 195.895 157.321 195.902C155.896 195.91 154.47 195.918 153.047 196.04C152.87 196.055 152.456 196.13 151.927 196.226C150.279 196.523 147.512 197.023 147.277 196.558C147.01 196.028 148.254 193.789 149.206 192.075C149.634 191.306 150.002 190.643 150.149 190.287C151.051 188.106 151.854 185.872 152.292 183.546C153.033 179.609 153.296 175.802 153.328 171.841C153.365 167.261 152.57 162.946 151.334 158.565C151.304 158.459 151.265 158.292 151.217 158.083C150.878 156.616 150.064 153.092 148.405 154.156C147.405 154.798 147.979 157.599 148.301 159.169C148.378 159.542 148.44 159.845 148.464 160.034C148.576 160.935 148.73 161.83 148.884 162.723C149.121 164.101 149.358 165.478 149.444 166.877C149.46 167.138 149.493 167.446 149.529 167.777C149.634 168.74 149.76 169.893 149.529 170.617C149.449 170.869 149.412 171.051 149.386 171.181C149.358 171.324 149.342 171.404 149.294 171.443C149.233 171.493 149.122 171.48 148.872 171.452C148.75 171.438 148.594 171.42 148.396 171.404C147.373 171.321 146.196 170.632 145.074 169.976C144.34 169.546 143.629 169.13 143 168.907C140.978 168.189 138.98 167.759 136.882 167.378C132.352 166.557 127.813 166.256 123.205 166.271C122.095 166.274 120.933 166.471 119.773 166.667H119.773C118.42 166.895 117.073 167.123 115.817 167.044C115.726 167.038 115.636 167.032 115.548 167.026C113.979 166.926 112.816 166.851 111.019 167.186C111.307 165.61 112.009 164.105 112.711 162.599C113.51 160.888 114.309 159.174 114.503 157.35C114.996 152.706 111.133 155.848 109.842 157.693C107.983 160.351 106.499 163.154 106.029 166.441C105.94 167.062 106.019 167.688 106.095 168.304C106.18 168.979 106.263 169.642 106.124 170.276C105.952 171.058 105.388 171.921 104.848 172.747C104.516 173.255 104.194 173.749 103.976 174.202C102.644 176.977 101.716 179.885 100.842 182.829C100.773 183.06 100.719 183.277 100.67 183.473V183.474C100.413 184.499 100.286 185.003 98.9342 184.387C98.3089 184.102 97.8181 183.548 97.3351 183.003C97.0552 182.687 96.7784 182.374 96.4791 182.118C92.5074 178.716 88.3175 175.559 83.7299 172.95C78.9371 170.224 74.2648 168.953 68.8319 168.38C68.5303 168.348 68.1805 168.319 67.7992 168.287H67.7985H67.7982C65.6169 168.107 62.4125 167.841 61.3804 166.49C60.4702 165.299 60.0347 163.167 59.6403 161.237C59.4472 160.292 59.2641 159.395 59.0398 158.681ZM62.1293 157.367C60.7066 156.681 59.088 155.902 58.9129 158.251C58.7234 157.576 58.5513 156.807 58.3712 156.005C57.8735 153.783 57.3181 151.305 56.1852 149.842C55.8679 149.433 55.4785 149.308 55.1187 149.192C54.8355 149.101 54.5703 149.015 54.3728 148.802C53.9045 148.295 53.8452 147.213 53.798 146.355V146.355V146.355C53.7813 146.047 53.7659 145.768 53.7338 145.554C53.6574 145.046 53.5774 144.546 53.4981 144.051L53.4978 144.049V144.049V144.048C53.1041 141.589 52.7305 139.259 52.9464 136.679C52.9531 136.599 52.9581 136.46 52.9648 136.284C52.9963 135.459 53.0585 133.821 53.4419 133.59C53.8138 133.366 54.8663 133.663 55.736 133.908V133.909C56.1816 134.034 56.5793 134.147 56.8129 134.168C58.2042 134.298 59.6052 134.477 61.0092 134.656H61.0095C64.9875 135.164 68.9906 135.675 72.8699 135.079C77.5807 134.356 82.0993 132.827 86.4425 130.871C86.5359 131.387 86.779 131.802 87.171 132.114C87.3079 131.913 87.4281 131.723 87.5412 131.544C88.1374 130.603 88.5298 129.983 90.074 129.741C91.246 129.557 92.8673 129.922 93.8391 130.653C97.6002 133.483 93.3119 136.273 90.839 137.542C93.8954 140.904 94.8585 148.022 91.3401 151.458C90.8383 151.948 90.3348 152.397 89.836 152.842L89.8354 152.842C88.9459 153.636 88.0698 154.417 87.2409 155.396C85.8861 156.996 84.8028 158.239 82.8401 158.813C82.6075 158.881 82.3678 158.952 82.1227 159.025C80.1865 159.599 77.9117 160.274 76.0227 160.372C74.6344 160.445 73.145 160.157 71.7096 159.879H71.7092C71.0501 159.752 70.4023 159.626 69.7807 159.539C67.3245 159.195 64.945 158.648 62.6746 157.624C62.4985 157.545 62.3158 157.457 62.1293 157.367ZM56.2472 186.324C56.3898 186.498 56.6589 186.795 57.0054 187.177C59.0793 189.462 63.9384 194.815 61.2823 195.593C60.1452 195.927 58.3428 194.06 57.0704 192.742C56.668 192.325 56.3185 191.963 56.0594 191.743C54.3896 190.323 52.6404 189.389 50.6041 188.606C45.6342 186.693 41.1376 184.975 35.7255 185.769C34.9498 185.883 34.1183 186.073 33.2683 186.268C31.5751 186.656 29.8072 187.061 28.2556 186.91C25.9099 186.683 26.5175 184.59 27.9844 183.422C28.4815 183.027 29.053 182.823 29.602 182.628C30.5008 182.307 31.3398 182.008 31.6973 180.922C31.951 180.149 31.9748 179.287 31.9989 178.414C32.03 177.289 32.0618 176.144 32.5864 175.147C33.3825 173.633 35.2588 172.063 36.7073 171.186C36.9176 171.059 37.178 170.944 37.4442 170.827C37.9768 170.593 38.5315 170.35 38.7514 169.974C38.9553 169.626 38.3725 168.037 38.0066 167.039V167.038C37.8867 166.712 37.7903 166.449 37.7521 166.314C37.5553 165.612 37.3534 164.91 37.1519 164.207C36.5781 162.21 36.0033 160.208 35.529 158.191C34.9344 155.665 34.7798 154.355 37.4412 153.438C39.6282 152.684 41.8724 152.147 44.1123 151.61C46.0322 151.15 47.9491 150.691 49.8244 150.096C49.339 148.832 48.1579 149.137 46.9448 149.45C46.3576 149.602 45.763 149.755 45.2358 149.734C43.255 149.654 40.9629 149.002 39.0765 148.394C34.7942 147.012 31.8804 143.566 31.2186 139.123C31.1573 138.713 31.2028 138.131 31.25 137.529C31.3146 136.698 31.3823 135.831 31.1767 135.331C30.9424 134.761 30.4081 134.396 29.8711 134.029C29.6412 133.872 29.4108 133.715 29.2033 133.541C27.42 132.046 25.8406 129.995 24.8785 127.871C23.9144 125.742 23.8471 123.351 24.4075 121.105C24.4527 120.923 24.4952 120.765 24.533 120.622C24.7539 119.796 24.8263 119.525 24.454 118.527C24.219 117.897 23.9147 117.299 23.6097 116.7C23.2596 116.011 22.9081 115.32 22.659 114.577C21.8961 112.298 21.48 109.842 21.5215 107.435C21.5526 105.656 22.0337 104.523 22.5636 103.276C22.8374 102.631 23.124 101.956 23.3684 101.145C23.7071 100.021 23.5665 98.6402 23.4269 97.2657C23.3332 96.3427 23.2395 95.4225 23.2917 94.5852C23.4571 91.9178 24.14 89.7747 25.3187 87.4005C27.1298 83.7526 29.9977 79.8422 33.731 77.9294C34.0708 77.755 34.512 77.6562 34.9532 77.5575C35.4694 77.4417 35.9863 77.3262 36.3418 77.0888C36.9942 76.6539 37.168 76.0547 37.3735 75.3454C37.4264 75.1636 37.481 74.9748 37.5463 74.7796C38.3115 72.4969 39.267 70.6476 40.9217 68.9022C46.2886 63.2423 55.6928 61.2378 63.2347 61.7155C63.7208 61.7463 64.1985 61.8487 64.6705 61.9498C65.5144 62.1306 66.3406 62.3073 67.1641 62.066C67.6486 61.9237 68.149 61.5836 68.6525 61.2418C69.073 60.9559 69.4954 60.669 69.9126 60.4942C71.0732 60.0088 72.2358 59.7246 73.4845 59.6004C75.9504 59.3547 77.9559 59.6145 80.2286 60.447C80.9022 60.6941 81.553 60.9586 82.2108 61.226L82.2114 61.2264C82.3915 61.2997 82.5723 61.373 82.7541 61.4463C83.7741 61.8584 83.9703 61.8058 84.5662 61.6465C84.7503 61.5973 84.9726 61.5377 85.2688 61.4788C87.7715 60.9803 89.2094 61.3492 91.4268 62.4171C91.6431 62.5212 91.9052 62.6156 92.1757 62.7127H92.176C92.6447 62.8814 93.1385 63.0589 93.4605 63.3113C93.7869 63.5677 94.0256 64.0615 94.2639 64.5543C94.5505 65.1468 94.8364 65.738 95.2736 65.9127C95.5588 66.0272 96.226 65.7982 96.8192 65.595C97.1503 65.4815 97.4583 65.3761 97.6635 65.3426C98.3353 65.2332 98.9978 65.2606 99.662 65.2881C99.9968 65.3018 100.332 65.3158 100.669 65.3122C102.449 65.2927 104.331 65.359 105.956 66.2006C106.975 66.7282 108.167 67.6635 109.146 68.4318C109.343 68.5865 109.531 68.7344 109.708 68.8707C110.272 69.3062 110.754 69.8917 111.238 70.4802C112.007 71.4136 112.782 72.3542 113.899 72.7161C114.269 72.836 114.655 72.8306 115.042 72.8253C115.401 72.8206 115.762 72.8156 116.112 72.9103C117.061 73.1667 117.973 73.8543 118.742 74.4616C119.294 74.8978 119.81 75.5747 120.323 76.2465C121.038 77.1839 121.745 78.1108 122.53 78.3582C122.976 78.4985 123.544 78.4968 124.129 78.4952C124.724 78.4931 125.337 78.4915 125.856 78.6394C127.147 79.0077 128.217 79.5416 129.174 80.5185C131 82.3821 131.516 85.1372 131.594 87.6643C131.6 87.8749 131.565 88.2036 131.525 88.5756C131.435 89.4071 131.321 90.4529 131.603 90.8707C131.795 91.1546 132.267 91.3748 132.752 91.6008C133.184 91.802 133.625 92.0076 133.887 92.2667C135.625 93.9873 136.41 96.8549 136.585 99.2123C136.735 101.216 136.388 102.779 136.003 104.51C135.872 105.103 135.736 105.715 135.614 106.372C135.519 106.883 135.415 107.127 135.362 107.253C135.332 107.321 135.318 107.354 135.328 107.377C135.338 107.398 135.37 107.409 135.433 107.431C135.561 107.477 135.821 107.569 136.285 107.893C137.214 108.542 137.857 108.996 138.459 110.014C139.719 112.144 140.037 114.654 139.828 117.081C139.674 118.876 139.072 120.4 138.463 121.94C138.045 122.998 137.624 124.064 137.342 125.23C139.908 125.23 142.633 125.777 145.222 126.296C145.844 126.421 146.458 126.544 147.06 126.658C147.908 126.818 148.615 127.205 149.338 127.6H149.338H149.338C149.592 127.739 149.848 127.879 150.113 128.01C150.666 128.285 151.13 128.407 151.605 128.531C151.885 128.605 152.169 128.679 152.476 128.787L152.533 128.806C153.474 129.135 153.872 129.274 154.191 129.169C154.425 129.091 154.616 128.882 154.947 128.518C155.095 128.356 155.27 128.163 155.49 127.938C161.049 122.235 168.961 118.793 176.941 118.905C181.392 118.967 185.697 119.554 189.858 121.156L190.087 121.244C191.75 121.884 193.567 122.582 195.029 123.577C196.773 124.764 197.056 124.77 199.295 124.816L199.409 124.819C207.893 124.995 216.126 129.552 222.301 135.075C222.762 131.979 227.041 129.918 230.135 128.429C230.743 128.136 231.305 127.865 231.784 127.613C231.97 127.515 232.154 127.425 232.333 127.338C233.107 126.961 233.786 126.631 234.184 125.832C234.451 125.295 234.553 124.428 234.653 123.583V123.583C234.724 122.979 234.794 122.387 234.922 121.936C235.484 119.946 236.134 117.511 236.083 115.412C236.01 112.331 235.612 109.257 235.214 106.182C234.827 103.191 234.44 100.199 234.349 97.1961C234.338 96.8228 234.32 96.4385 234.3 96.0485C234.241 94.8407 234.18 93.5803 234.333 92.4354C234.376 92.12 234.444 91.8355 234.509 91.5677C234.694 90.7974 234.847 90.1623 234.253 89.3244C233.628 88.443 232.786 87.8334 231.947 87.2248C230.743 86.3534 229.543 85.4843 228.988 83.8222C227.469 79.2735 230.078 74.6219 233.64 71.9164C234.398 71.3406 235.151 70.9325 235.88 70.5365C237.124 69.8616 238.303 69.2215 239.339 67.8453C239.888 67.1159 240.405 66.3369 240.925 65.5545C241.807 64.2265 242.696 62.8881 243.758 61.7627C244.271 61.2197 244.767 60.6097 245.268 59.9934H245.268V59.9931C246.151 58.9078 247.05 57.8024 248.084 57.0067C249.747 55.7272 252.188 54.8625 254.174 54.2546C258.941 52.795 264.794 53.1435 268.148 57.2199C271.566 61.376 266.53 67.2528 263.673 70.1528C262.927 70.9111 262.249 71.7329 261.571 72.5554C260.99 73.2598 260.408 73.9648 259.783 74.6306C259.15 75.3055 258.44 75.9124 257.74 76.5103H257.74C256.961 77.1758 256.195 77.83 255.562 78.5551C255.38 78.7636 255.194 78.9752 255.005 79.1895H255.005C253.888 80.4582 252.691 81.8173 251.788 83.2086C251.617 83.4728 251.425 83.7442 251.228 84.0228C250.656 84.8312 250.044 85.6959 249.797 86.5854C249.501 87.6566 249.543 87.675 249.77 87.7718C249.907 87.83 250.112 87.9174 250.35 88.2836C250.474 88.4758 250.583 88.6331 250.679 88.7714C251.077 89.3482 251.252 89.6016 251.429 90.7177C251.641 92.0628 251.942 93.0473 252.669 94.1966C252.914 94.5849 253.164 94.9685 253.413 95.3512L253.414 95.3515L253.414 95.3528L253.416 95.3549L253.417 95.3572C254.38 96.8372 255.333 98.3011 256.003 99.9625C256.894 102.172 257.578 104.409 258.27 106.669L258.27 106.67V106.67V106.67L258.27 106.671V106.671C258.45 107.258 258.63 107.847 258.814 108.436C258.913 108.755 259.003 109.086 259.095 109.421L259.095 109.422L259.095 109.424L259.096 109.425C259.324 110.265 259.558 111.127 259.96 111.862C260.745 113.299 260.867 113.205 262.001 112.335L262.061 112.289C262.954 111.604 263.85 110.91 264.749 110.212L264.752 110.211C267.426 108.137 270.133 106.038 272.903 104.098C275.023 102.612 277.225 101.157 279.462 99.8558C279.707 99.7131 279.997 99.5531 280.314 99.3777C281.986 98.4534 284.42 97.108 285.066 95.7144C285.483 94.8149 285.464 93.9458 285.445 93.0942C285.419 91.8636 285.392 90.6695 286.683 89.4731C288.105 88.1544 290.423 87.4233 292.276 87.1029C294.21 86.7688 296.292 87.034 298.303 87.2894C299.016 87.3801 299.719 87.4695 300.403 87.5308C303.048 87.7671 305.634 87.5097 308.228 86.9687C309.137 86.7789 310.239 86.3922 311.427 85.9748H311.427C315.427 84.5701 320.415 82.819 322.397 87.0631C323.278 88.9421 323.007 90.9795 322.745 92.9566C322.672 93.5143 322.598 94.0674 322.551 94.6107C322.367 96.7625 321.734 99.0473 320.395 100.818C319.119 102.502 317.359 102.857 315.466 103.239H315.466C315.086 103.316 314.7 103.393 314.312 103.483C312.916 103.806 311.5 104.025 310.085 104.243C308.724 104.453 307.362 104.663 306.017 104.967C304.666 105.271 303.333 105.42 301.945 105.483C301.375 105.51 300.689 105.418 300.008 105.326C299.215 105.219 298.429 105.113 297.846 105.198C297.248 105.285 297.117 105.541 296.969 105.829C296.864 106.035 296.749 106.258 296.447 106.446C296.294 106.542 296.056 106.552 295.839 106.56C295.642 106.568 295.462 106.575 295.375 106.645C294.918 107.012 294.757 107.337 294.456 107.944L294.451 107.953L294.448 107.959L294.444 107.968L294.397 108.061L294.363 108.13C293.44 109.973 292.142 111.778 290.899 113.507C290.576 113.957 290.257 114.401 289.948 114.84C289.854 114.975 289.758 115.112 289.66 115.251L289.58 115.367C289.504 115.476 289.427 115.586 289.35 115.697C288.238 117.296 287.003 119.072 285.752 120.422C283.734 122.601 281.755 124.921 279.775 127.242L279.774 127.243C278.674 128.532 277.574 129.822 276.467 131.087C274.891 132.888 273.001 134.805 271.17 136.354C270.975 136.518 270.712 136.677 270.439 136.842V136.843C269.919 137.157 269.363 137.493 269.173 137.931C268.875 138.623 269.381 139.915 269.782 140.94C269.935 141.329 270.072 141.68 270.144 141.945C270.443 143.041 270.618 144.155 270.792 145.266C270.98 146.465 271.168 147.66 271.51 148.826C272.142 150.973 272.371 153.315 272.511 155.554C272.61 157.131 272.745 158.684 272.88 160.226V160.228V160.229C273.176 163.634 273.469 166.993 273.357 170.477C273.217 174.843 273.057 179.03 271.541 183.318C270.161 187.22 266.026 191.468 262.181 192.906C259.892 193.762 257.766 194.54 255.462 195.004L255.034 195.09C252.888 195.522 250.649 195.972 248.532 196.577C244.341 197.774 239.924 198.61 235.572 199.02C230.002 199.545 224.19 199.595 218.634 199.402C216.101 199.314 213.497 199.309 210.996 199.316C209.264 199.321 207.599 199.551 205.911 199.785C205.074 199.9 204.232 200.016 203.374 200.106C198.776 200.588 194.046 200.633 189.318 200.678C184.647 200.722 179.977 200.766 175.438 201.232C173.922 201.388 172.407 201.591 170.89 201.796H170.889H170.889C167.886 202.2 164.872 202.605 161.821 202.641C159.517 202.667 157.194 202.594 154.891 202.521C153.082 202.464 151.285 202.407 149.516 202.399C149.239 202.398 148.97 202.402 148.706 202.405C147.751 202.419 146.853 202.432 145.855 202.202C145.661 202.158 145.444 202.076 145.218 201.991L145.217 201.99C144.659 201.78 144.042 201.547 143.559 201.793C143.152 202.001 142.814 202.667 142.523 203.239C142.39 203.501 142.267 203.744 142.152 203.914C141.348 205.102 140.37 206.055 139.337 207.04C135.235 210.949 131.171 212.266 125.788 213.699C123.317 214.356 122.097 214.7 120.022 216.205C118.332 217.431 116.622 218.312 114.677 219.035C110.861 220.452 106.362 219.356 102.776 218.126C102.233 217.94 101.681 217.759 101.126 217.577C99.903 217.176 98.6597 216.768 97.4402 216.282C96.2029 215.789 95.0764 215.129 93.9516 214.471C92.88 213.843 91.8101 213.217 90.6478 212.737C90.8202 214.34 89.7868 215.271 88.7906 216.169C88.2074 216.695 87.6373 217.208 87.3286 217.839C87.0622 218.383 87.0069 219.081 86.95 219.798C86.8918 220.534 86.8318 221.29 86.5399 221.922C86.0057 223.079 85.1798 224.173 83.8916 224.476C82.1365 224.888 78.9987 222.935 77.7658 221.796C77.4933 221.544 77.2325 221.126 76.9644 220.695C76.559 220.045 76.1368 219.367 75.632 219.198C74.8922 218.95 73.7352 219.611 72.744 220.177C72.2706 220.448 71.8348 220.696 71.5007 220.814C66.5492 222.562 61.5314 223.387 56.215 222.69C51.3278 222.05 46.8102 220.416 42.242 218.764H42.2417C41.7747 218.595 41.3073 218.426 40.8387 218.258C30.9454 214.706 22.3339 208.858 14.587 201.817C14.4509 201.693 14.2954 201.574 14.137 201.452C13.7937 201.188 13.4368 200.914 13.2334 200.562C13.0912 200.317 13.0337 199.888 12.9829 199.509C12.941 199.197 12.9036 198.918 12.827 198.805C12.4135 198.195 11.8314 198.172 11.1141 198.145H11.1137C10.9554 198.139 10.7905 198.133 10.6193 198.12C7.69449 197.899 5.37106 197.193 3.10401 195.233C-0.464172 192.148 -1.78411 184.955 3.68576 183.044C5.08393 182.555 6.62281 182.458 8.06818 182.759C8.30901 182.81 8.81444 183.059 9.36871 183.332H9.36881C10.1866 183.735 11.1108 184.191 11.4484 184.138C12.0602 184.04 12.1515 183.451 12.2358 182.907C12.2699 182.687 12.3028 182.475 12.3685 182.305C12.9471 180.808 13.7614 179.49 14.743 178.22C16.3746 176.109 18.3628 173.986 20.403 172.268C22.3918 170.593 24.5615 169.753 26.8927 168.852C27.1592 168.748 27.4277 168.645 27.6985 168.539C29.4761 167.842 32.9459 166.646 34.8287 167.269C37.2808 168.081 36.0803 170.761 34.5354 171.698C33.4347 172.366 32.2239 172.837 31.0093 173.31C29.7891 173.785 28.5649 174.262 27.4444 174.941C25.615 176.049 23.9033 177.462 22.2198 178.85C21.6326 179.335 21.0488 179.816 20.4646 180.281C19.6203 180.953 18.8287 181.698 18.0377 182.442C17.1258 183.3 16.215 184.157 15.2264 184.899C14.7369 185.267 13.9375 185.91 13.7854 186.113C13.7687 186.135 13.7638 186.208 13.7572 186.304C13.743 186.514 13.7211 186.836 13.5555 187.01C13.5205 187.046 13.4869 187.082 13.4547 187.116L13.371 187.204C12.9836 187.614 12.7951 187.814 12.569 187.876C12.355 187.934 12.1071 187.87 11.6246 187.744C11.4785 187.706 11.3107 187.662 11.1158 187.614C9.20936 187.148 4.65821 186.093 3.37282 188.457C2.24015 190.54 6.75521 192.42 8.40385 193.107L8.50569 193.15C10.404 193.941 11.0923 194.736 12.2085 196.025C12.4343 196.286 12.6776 196.567 12.952 196.872C14.1278 198.182 15.851 199.196 17.4983 200.165C18.1911 200.572 18.8704 200.972 19.4901 201.383C22.9054 203.645 26.6407 205.411 30.3512 207.165L30.3522 207.166L30.3539 207.167C31.5563 207.735 32.7561 208.302 33.9415 208.885C38.6276 211.187 43.6627 212.849 48.5476 214.46L48.6343 214.489C51.5996 215.467 55.1535 216.517 58.2658 216.818C61.4019 217.122 64.3428 216.611 67.4196 216.012C68.6498 215.773 69.5788 215.59 70.8656 215.136C71.0762 215.062 71.3363 215.01 71.6031 214.958C72.0617 214.868 72.5408 214.774 72.8283 214.55C73.3258 214.164 73.3265 213.832 73.3278 213.342C73.3282 213.137 73.3285 212.904 73.3653 212.628C73.8166 209.239 75.8362 211.771 77.2365 213.527C77.5321 213.898 77.8003 214.234 78.0202 214.473C78.2207 214.69 78.4202 214.918 78.6224 215.148L78.6231 215.149C79.4014 216.036 80.2142 216.962 81.2306 217.493C82.8348 218.33 83.1133 217.935 83.6392 216.555C83.7778 216.191 83.904 215.82 84.0295 215.452C84.7941 213.208 85.5176 211.085 88.7129 211.411C88.1575 210.936 87.6068 210.474 87.0622 210.017C84.7279 208.059 82.5023 206.193 80.4643 203.745C78.8122 201.76 77.2318 199.678 75.6578 197.603L75.6574 197.603L75.6558 197.601C74.8677 196.562 74.081 195.525 73.2877 194.504C72.6496 193.683 72.0386 192.76 71.4167 191.82C70.1379 189.887 68.8129 187.885 67.1106 186.554C66.3108 185.928 63.8794 184.486 62.9538 184.516C62.2542 184.539 61.594 185.128 60.9198 185.729C60.2593 186.318 59.5851 186.92 58.8466 187.013C57.1986 187.221 56.4397 186.646 55.969 185.308C55.7092 184.569 55.9181 183.771 56.1109 183.033C56.2806 182.385 56.438 181.784 56.2535 181.312C56.2013 181.179 56.0155 181.033 55.8116 180.872C55.5867 180.695 55.3393 180.501 55.2255 180.287C54.8994 179.674 54.876 178.869 54.9734 178.19C55.03 177.798 55.1183 177.495 55.201 177.213V177.212C55.3313 176.766 55.4471 176.37 55.4006 175.747C55.3711 175.355 55.2944 174.998 55.2201 174.651C55.0698 173.95 54.9282 173.288 55.2017 172.46C55.4876 171.593 56.1698 170.987 56.8367 170.395C57.1698 170.099 57.4989 169.807 57.7734 169.487C58.8255 168.26 58.5356 167.288 58.1188 165.891V165.891C58.0418 165.633 57.9608 165.361 57.8828 165.071C57.3234 162.983 56.7158 160.909 56.1076 158.834C55.5519 156.937 54.9958 155.04 54.4769 153.132C53.4646 153.453 52.4613 153.791 51.459 154.128L51.458 154.128L51.4574 154.128H51.457L51.4547 154.129C49.9844 154.624 48.5158 155.118 47.0231 155.556C46.4192 155.733 45.7794 155.906 45.1246 156.083C43.1593 156.614 41.0569 157.181 39.3754 158.02C39.0587 158.178 38.8371 158.265 38.6848 158.324C38.5144 158.391 38.4307 158.424 38.3972 158.484C38.3644 158.543 38.3792 158.628 38.4083 158.795C38.4361 158.958 38.4776 159.198 38.5024 159.567C38.5425 160.175 38.7193 160.829 38.8924 161.468C38.9938 161.843 39.0939 162.213 39.1638 162.565C39.2492 162.994 39.3229 163.587 39.4052 164.252V164.252C39.661 166.317 40.0021 169.07 41.0445 169.706C41.3897 169.916 41.8219 169.913 42.2751 169.91C42.9172 169.905 43.6011 169.9 44.1391 170.503C44.5944 171.012 44.7008 171.658 44.807 172.3C44.8806 172.747 44.9543 173.192 45.1451 173.587C45.3027 173.912 45.5404 174.128 45.7808 174.346C45.981 174.528 46.1828 174.711 46.3408 174.961C46.9314 175.894 46.991 176.706 47.0613 177.669C47.0773 177.89 47.0941 178.12 47.1182 178.36C47.1416 178.598 47.1476 178.974 47.1543 179.404C47.1707 180.439 47.1921 181.781 47.477 182.226C47.8593 182.824 48.5084 182.922 49.1746 183.024C49.4451 183.065 49.7183 183.106 49.9777 183.182C52.2407 183.841 54.3253 184.987 56.2472 186.324ZM65.3327 149.959C64.9135 151.27 62.99 152.754 61.4467 151.965C59.5275 150.984 59.3488 147.115 59.875 145.464C60.7665 142.666 61.516 146.336 61.6734 147.442C61.6938 147.585 61.7062 147.717 61.7179 147.84C61.7661 148.353 61.7982 148.691 62.3168 148.886C62.5437 148.971 62.8644 148.935 63.2029 148.898C63.5969 148.855 64.0157 148.809 64.3404 148.947C64.859 149.167 64.9457 149.312 65.1954 149.732C65.2359 149.799 65.2808 149.875 65.3327 149.959ZM54.2573 141.633C54.17 143.474 57.0439 149.147 57.9026 145.035C57.8333 143.809 57.2079 141.643 56.3941 140.683C55.2302 139.31 54.3387 139.934 54.2573 141.633ZM61.746 139.412C61.746 137.632 62.8293 137.28 64.1807 138.433C65.5754 139.622 66.031 141.609 66.1756 143.25C66.3329 145.03 65.9265 145.786 64.1543 144.642C62.6027 143.641 61.8263 140.975 61.746 139.412ZM70.9614 152.354C68.5678 152.173 65.7859 156.671 68.7272 156.319C69.8366 156.248 72.056 155.448 72.3804 154.172C72.6369 153.161 71.9362 152.428 70.9614 152.354ZM89.1461 134.197C89.0115 132.342 91.8684 131.372 92.2383 133.339C92.5868 135.196 88.4749 137.105 89.1461 134.197ZM43.9426 162.402C43.9597 160.071 41.1118 156.313 40.0942 160.113C40.2394 161.267 40.7208 164.317 42.3096 164.578C43.5821 164.787 43.9346 163.426 43.9426 162.402Z" fill="black"/>
</svg>
