<svg width="323" height="279" viewBox="0 0 323 279" fill="none" xmlns="http://www.w3.org/2000/svg">
<path fill-rule="evenodd" clip-rule="evenodd" d="M141.93 23.9999C167.74 27.3967 193.53 16.869 218.099 25.4823C249.526 36.4997 285.646 48.87 299.442 79.2187C313.481 110.102 297.729 145.488 287.332 177.784C276.911 210.157 267.685 245.97 239.603 265.101C211.81 284.035 175.488 278.776 141.93 276.838C110.342 275.014 77.0712 273.751 52.1128 254.274C27.5441 235.102 18.2176 203.507 9.56243 173.543C1.18157 144.529 -3.60371 114.766 3.3242 85.3704C10.7132 54.0181 20.2607 16.3426 49.6805 3.31643C79.2235 -9.76429 109.904 19.7848 141.93 23.9999Z" fill="#F7F7F7"/>
<path fill-rule="evenodd" clip-rule="evenodd" d="M204.508 183.359C203.877 190.584 191.317 194.34 183.699 195.881C185.226 188.794 187.198 181.447 185.971 174.259C185.567 171.891 185.037 169.536 184.468 167.19C184.257 166.322 184.04 165.456 183.815 164.59C183.761 164.38 183.319 163.459 183.459 163.249C183.711 162.873 185.842 162.932 186.385 162.949C187.784 162.99 189.157 163.267 190.438 163.703C193.129 164.62 195.395 166.199 197.263 167.941C201.668 172.05 204.985 177.911 204.508 183.359ZM189.967 134.249C182.675 137.619 173.892 139.427 165.575 140.309C152.906 141.652 139.97 140.106 127.583 137.964C124.542 137.438 121.507 136.871 118.511 136.205C118.376 143.057 120.845 149.572 125.668 155.286C129.656 160.01 134.86 163.958 139.409 168.334C143.643 172.407 147.059 177.002 147.228 182.378C147.299 184.622 147.063 186.675 144.656 188.129C142.237 189.59 138.97 190.132 136.01 190.465C128.598 191.299 120.836 190.848 113.471 189.93C112.041 189.752 110.614 189.549 109.203 189.295C107.6 189.008 107.039 188.668 105.7 189.607C102.812 191.633 101.487 194.671 100.833 197.578C99.6073 203.022 100.023 209.372 101.79 214.743C103.493 219.916 111.528 222.784 117.48 224.034C135.434 227.805 155.243 222.597 169.02 213.326C169.32 213.123 169.618 212.919 169.909 212.708C170.888 214.298 171.956 215.86 173.124 217.371C173.936 218.422 174.792 219.478 175.816 220.413C176.186 220.751 176.62 221.207 177.126 221.428C178.068 221.84 179.025 221.537 180.091 221.393C187.954 220.327 195.799 218.925 203.276 216.719C214.642 213.363 224.837 207.836 230.224 199.104C232.946 194.694 234.364 189.861 235.051 185.015C235.839 179.451 236.01 173.762 234.003 168.339C230.327 158.4 220.947 150.343 210.675 144.128C204.32 140.283 197.332 136.808 189.967 134.249Z" fill="#0075FF"/>
<path fill-rule="evenodd" clip-rule="evenodd" d="M318.447 68.434C316.785 68.9495 314.996 69.0929 313.228 69.1938C311.841 69.2728 310.753 69.7068 309.446 69.7313C305.807 69.799 302.153 69.9265 298.532 70.351C294.895 70.7773 291.546 70.2204 288.674 72.3532C287.652 73.112 286.371 73.9846 286.985 75.2096C287.267 75.7704 287.664 76.1728 287.898 76.775C288.163 77.4557 288.492 78.0987 288.874 78.7469C289.608 79.9899 293.284 84.6196 290.301 85.1859C287.067 85.7998 282.681 85.0823 279.566 84.3799C277.748 83.9701 275.959 83.4899 274.168 83.0167C272.749 82.6422 270.886 82.4298 269.579 81.8432C268.712 81.4537 268.533 80.7892 267.96 80.1579C266.918 79.0095 265.944 78.0316 264.597 77.076C261.804 75.094 258.311 73.7483 254.867 72.5656C254.644 72.4887 254.238 72.31 253.998 72.2922C253.739 72.2735 253.454 72.4819 253.286 72.4565C252.827 72.3869 252.667 72.1614 252.164 71.9385C251.489 71.6394 248.736 70.6437 248.255 71.4264C248.705 70.3982 249.034 70.6949 250.253 70.8441C250.79 70.9103 251.15 70.7182 251.632 70.7375C252.077 70.7549 252.259 70.9526 252.631 71.0059C253.311 71.1034 253.945 71.0299 254.655 71.0259C254.846 70.697 255.117 70.6995 255.468 71.0329C255.664 71.0826 255.86 71.1319 256.055 71.1819C256.763 71.3333 257.519 71.3041 258.243 71.3486C259.331 71.416 262.166 72.4513 262.712 71.4034C263.294 70.2845 261.526 70.0056 261.231 69.2247C260.944 68.4585 262.29 68.0089 262.831 67.5465C263.446 67.0202 263.823 66.5584 264.545 66.095C264.968 65.8228 265.523 65.5694 265.837 65.2068C266.126 64.8734 266.113 64.3343 266.488 64.0566C266.934 63.7253 267.003 63.9546 267.409 63.7946C268.205 63.4801 267.853 63.4961 268.324 63.0664C268.727 62.6993 269.024 62.7103 269.551 62.4289C270.322 62.0167 270.593 61.2114 271.343 60.7685C271.891 60.4442 272.764 60.4448 273.245 60.108C273.529 59.9096 273.441 59.5881 273.686 59.4008C274.156 59.041 274.479 59.1871 275.066 59.0685C276.055 58.8684 276.376 58.4413 277.105 57.9467C277.771 57.4952 278.193 57.4971 279.027 57.3099C280.165 57.0542 280.901 56.3846 281.928 55.9911C282.896 55.621 283.895 55.3614 284.873 54.9671C285.58 54.6823 286.261 54.5056 286.906 54.2149C287.124 54.1169 287.143 53.7576 287.424 53.7089C287.747 53.6528 288.005 54.0716 288.348 54.0935C289.068 54.1396 289.887 53.5167 290.36 53.156C290.565 52.9993 290.843 52.5755 291.107 52.488C291.66 52.3046 291.99 52.6677 292.482 52.5244C293.174 52.3232 292.899 51.7341 293.323 51.4093C293.693 51.1258 294.48 51.145 295.138 51.2348C297.789 51.5955 293.663 53.0571 292.888 53.3527C291.583 53.8506 282.089 57.473 284.31 59.2794C285.485 60.235 288.354 59.5164 289.631 59.2647C291.871 58.8231 294.205 57.9731 296.503 57.7781C296.786 57.7539 297.634 57.9126 297.865 57.8434C298.387 57.6875 298.257 57.3757 298.681 57.2118C299.32 56.9656 300.624 56.9775 301.273 57.0328C301.78 57.0762 302.335 57.3124 302.85 57.2804C303.418 57.2451 303.967 56.9873 304.53 56.9042C305.494 56.7625 306.492 56.8319 307.465 56.8539C308.865 56.8858 311.664 57.0509 309.63 58.5025C307.983 59.6773 305.136 60.1858 303.059 60.6985C299.988 61.4562 296.97 62.1458 293.938 63.0091C291.871 63.5969 287.464 64.6297 289.924 66.8339C290.167 66.6549 290.41 66.4762 290.652 66.2973C290.939 66.5238 291.235 66.9645 291.695 66.9773C292.077 66.9878 291.937 66.6672 292.298 66.567C293.434 66.2522 294.992 66.2761 296.19 66.217C299.191 66.0686 302.181 65.7582 305.186 65.6619C308.017 65.5715 310.877 65.6892 313.652 66.1526C314.365 66.2718 321.02 67.6359 318.447 68.434ZM293.904 91.0981C294.055 92.0819 293.496 92.8778 293.34 93.8282C293.153 94.9772 293.291 95.9892 292.873 97.1314C292.062 99.3518 291.485 101.623 290.614 103.831C289.077 107.729 286.595 111.171 284.043 114.707C282.741 116.51 280.78 117.999 278.989 119.507C277.153 121.053 275.686 122.574 273.491 123.843C269.104 126.38 264.371 128.636 259.178 130.006C253.742 131.441 248.026 131.875 242.317 131.693C239.783 131.612 237.098 131.812 234.604 131.492C231.953 131.152 229.08 130.734 226.474 130.232C221.69 129.31 217.082 127.745 212.41 126.348C207.193 124.787 202.496 122.795 197.739 120.544C196.48 119.948 195.15 119.67 193.97 118.95C192.974 118.343 191.995 117.762 190.949 117.207C189.748 116.571 188.598 115.875 187.371 115.27C186.638 114.909 185.606 114.555 185.221 113.901C184.692 113.001 185.33 111.87 185.66 110.997C186.089 109.861 186.547 108.739 187.063 107.624C187.937 105.738 190.163 102.829 188.939 100.835C186.358 102.082 185.221 104.535 184.117 106.62C182.8 109.111 181.88 111.596 181.682 114.297C181.283 119.732 182.448 125.452 184.974 130.519C185.349 131.271 186.009 132.088 185.524 132.893C185.016 133.737 183.636 134.451 182.575 134.816C179.22 135.971 175.851 136.308 172.347 136.947C171.393 137.121 170.348 137.643 169.453 137.709C168.849 137.753 168.349 137.599 167.657 137.602C166.962 137.606 166.418 137.91 165.796 137.942C165.253 137.971 164.771 137.723 164.253 137.746C163.095 137.799 162.881 139.349 162.307 137.984C162.203 138.041 161.627 138.549 161.555 138.55C161.391 138.55 161.103 138.171 160.946 138.103C160.642 137.971 160.24 137.964 159.9 137.929C159.149 137.853 158.338 137.845 157.599 137.98C156.227 138.229 154.847 138.124 153.674 138.106C153.407 138.102 153.218 138.27 152.886 138.26C152.735 138.255 152.517 138.046 152.357 138.014C151.429 137.828 150.467 137.967 149.522 137.926C147.302 137.831 145.159 137.784 142.992 137.402C138.55 136.617 134.022 136.459 129.562 135.742C127.29 135.376 125.071 135.176 122.834 134.694C122.047 134.525 121.242 134.445 120.545 134.214C119.88 133.993 120.141 133.698 119.109 134.289C118.645 133.402 118.59 133.493 117.471 133.199C117.038 133.086 116.043 132.804 115.72 132.58C115.688 132.558 114.999 131.207 114.94 131.041C114.653 130.234 114.892 129.312 115.012 128.5C115.282 126.67 115.673 124.854 115.696 123.009C115.707 122.196 115.895 122.172 116.219 121.559C116.319 121.369 116.614 121.384 116.638 121.094C116.672 120.709 116.166 120.44 116.221 119.99C116.293 119.383 117.073 118.769 117.347 118.204C117.676 117.524 117.672 116.805 117.868 116.101C118.131 115.164 118.638 114.285 118.894 113.345C119.111 112.548 119.132 111.915 119.675 111.231C120.219 110.549 120.059 109.992 120.492 109.313C120.889 108.69 121.392 108.466 121.664 107.714C122.323 105.894 123.324 104.091 124.743 102.548C125.99 106.418 127.317 110.415 130.791 113.474C132.222 114.733 134.069 116.004 136.226 116.387C138.666 116.821 140.616 115.698 142.205 114.368C145.989 111.198 147.557 107.66 147.785 103.362C147.842 102.293 147.834 101.223 147.816 100.154C147.807 99.6788 147.494 98.4578 147.912 98.0579C148.37 97.6193 149.677 97.8933 150.357 97.6043C151.193 97.2482 152.112 96.296 151.739 95.5108C153.968 96.2984 156.099 97.3352 158.577 97.5546C159.558 97.6417 160.603 97.5093 161.481 97.4728C161.455 97.4737 162.16 97.5862 162.203 97.5936C162.377 97.437 162.565 97.399 162.768 97.4793C162.948 97.4943 163.079 97.5697 163.162 97.706C166.694 97.9816 170.252 96.619 173.275 95.1758C175.042 94.3324 176.983 93.0841 177.479 91.4423C177.656 90.8566 177.503 90.3047 178.279 90.0059C178.909 89.7625 180.126 90.1134 180.791 90.1514C183.131 90.2854 185.437 90.1119 187.721 90.6562C189.115 90.9884 191.549 93.3161 192.521 91.6786C192.943 91.9875 192.714 92.5376 193.163 92.8383C193.554 93.1003 194.87 93.2848 195.411 93.5092C196.25 93.8561 196.741 94.318 197.475 94.7351C198.377 95.2478 199.32 95.2873 200.193 95.889C203.217 97.9724 206.758 99.4815 210.133 101.209C214.138 103.259 217.682 105.675 221.979 107.347C226.375 109.057 230.627 110.485 235.43 111.374C237.608 111.778 239.843 112.115 242.079 112.239C243.134 112.297 244.14 112.268 245.158 112.515C245.776 112.665 245.976 112.74 246.583 112.754C246.937 112.762 247.449 112.603 247.885 112.609C248.78 112.621 249.237 112.592 250.044 112.824C250.958 113.085 251.718 113.242 252.758 113.265C253.955 113.291 254.66 112.932 255.747 112.711C256.624 112.532 257.413 112.618 258.197 112.247C261.683 110.601 264.484 108.088 266.313 105.235C268.411 101.96 270.028 97.9678 270.357 94.298C270.546 92.1975 269.952 90.149 268.924 88.2203C268.634 87.6763 266.894 85.3591 267.43 84.9383C268.038 84.4599 270.028 85.5561 270.59 85.7943C272.37 86.5494 275.584 86.7912 276.832 88.0616C277.15 87.5856 278.917 88.2911 279.484 88.4897C279.953 88.654 280.086 88.951 280.676 88.9865C281.232 89.0199 281.806 88.6739 282.317 88.5636C281.943 89.3767 283.199 89.4147 284.059 89.4579C284.678 89.4888 285.344 89.4128 285.896 89.3822C286.952 89.3236 286.969 89.1385 287.933 88.7162C287.896 89.0254 287.939 89.3276 288.062 89.6225C288.681 88.9222 289.864 89.4085 290.702 89.1008C290.097 88.384 292.681 88.1875 293.283 88.3383C294.798 88.7181 293.77 90.2265 293.904 91.0981ZM175.275 140.369C176.274 140.136 177.28 139.924 178.283 139.701C177.523 140.245 176.735 141.227 175.65 141.38C174.342 141.564 173.826 140.706 175.275 140.369ZM125.922 140.759C127.605 140.916 129.438 140.795 130.913 141.571C130.194 142.217 129.727 142.892 128.528 142.522C127.52 142.211 126.691 141.325 125.922 140.759ZM182.148 176.104C181.043 175.33 181.189 174.984 181.708 173.983C181.931 173.552 182.285 172.213 183.123 172.606C183.421 172.745 183.781 174.204 183.834 174.499C183.953 175.16 183.429 177.001 182.148 176.104ZM188.381 171.612C187.991 170.492 188.004 169.273 187.62 168.126C187.216 166.914 186.717 165.699 186.574 164.447C192.413 165.252 195.73 169.775 198.259 173.549C199.602 175.555 200.92 177.773 201.427 180.015C201.921 182.2 201.064 183.859 200.067 185.806C199.558 186.8 198.718 187.145 197.738 187.802C196.869 188.384 196.544 189.366 195.638 189.889C194.969 190.275 194.1 190.476 193.401 190.866C192.709 191.251 192.018 191.633 191.305 191.993C190.49 192.404 188.047 193.903 186.946 193.583C186.122 193.344 186.489 192.557 186.697 192.064C187.134 191.023 187.441 190.022 187.71 188.937C188.431 186.044 188.821 183.169 189.008 180.226C189.19 177.353 189.36 174.417 188.381 171.612ZM183.497 184.662C183.585 184.804 183.95 186.018 183.136 185.769C182.57 185.595 183.415 184.885 183.497 184.662ZM186.938 136.437C187.627 136.215 187.902 136.872 188.509 136.892C189.313 136.918 189.482 136.22 190.326 136.199C192.389 136.149 195.379 137.705 197.057 138.517C196.235 139.328 195.896 140.157 196.305 141.155C196.665 142.034 198.04 143.017 197.989 143.949C197.937 144.883 196.45 145.485 195.986 146.316C195.559 147.079 195.397 148.606 196.713 148.943C198.977 149.522 199.495 146.212 201.211 146.186C201.944 146.175 202.898 147.252 203.425 147.587C204.607 148.338 205.939 148.886 207.313 149.384C208.24 149.72 209.531 150.383 210.219 149.479C210.77 148.755 210.32 147.608 209.784 146.985C209.17 146.27 203.663 142.999 204.011 142.711C204.196 142.557 205.567 142.981 205.762 143.109C206.201 143.399 206.362 143.872 206.802 144.181C207.474 144.652 208.342 144.839 209.172 145.057C210.905 145.512 212.002 147.111 213.682 147.855C214.651 148.285 215.243 149.11 216.063 149.748C217.136 150.584 218.229 151.461 218.068 152.692C217.956 153.545 217.794 155.532 217.176 156.252C216.504 157.033 215.388 156.734 214.368 156.918C213.221 157.126 212.304 157.824 212.532 158.822C212.769 159.859 213.832 159.934 214.943 159.96C218.075 160.034 216.921 161.586 218.013 163.291C218.607 164.217 219.597 164.58 220.278 163.496C220.826 162.624 219.846 161.25 220.442 160.506C221.167 159.598 225.047 159.845 225.856 160.55C226.469 161.084 226.794 161.819 227.406 162.378C228.334 163.227 228.716 164.416 229.273 165.457C229.865 166.562 230.381 167.683 230.833 168.827C231.152 169.631 231.839 170.905 230.194 170.218C229.044 169.738 228.186 168.657 226.73 168.622C225.29 168.588 224.469 169.756 224.89 170.771C225.297 171.754 227.154 172.187 227.368 173.183C227.605 174.273 225.213 175.385 224.487 176.186C222.815 178.031 224.213 180.109 226.954 178.542C227.926 177.987 228.943 176.867 230.039 176.517C231.773 175.961 231.762 178.018 232.593 178.775C233.04 179.182 233.202 178.768 232.937 179.377C232.839 179.601 232.344 179.672 232.288 179.95C232.248 180.155 232.483 180.263 232.491 180.421C232.518 180.957 232.52 181.037 232.365 181.619C232.194 182.266 232.256 183.068 232.205 183.725C232.087 185.226 232.062 186.659 231.859 188.16C231.747 188.994 231.513 190.695 232.775 191.102C232.326 191.652 231.727 193.182 230.844 193.067C230.916 193.429 230.875 193.891 231.326 194.128C231.434 193.907 231.541 193.686 231.649 193.465C231.896 193.97 231.678 194.028 231.664 194.372C231.682 193.946 231.167 194.965 231.446 194.839C231.208 194.994 230.896 195.082 230.539 195.282C230.041 195.562 229.779 195.948 229.393 196.326C228.693 197.01 228.734 197.7 228.122 198.413C227.253 199.424 226.139 200.422 225.224 201.433C224.479 202.255 223.059 202.729 222.462 203.614C222.083 204.176 221.932 204.83 221.284 205.225C220.356 205.792 219.116 206.325 218.109 206.91C217.475 207.278 216.993 207.788 216.361 208.145C216.041 208.326 215.077 208.509 215.076 208.877C213.863 208.612 213.003 207.645 212.05 207.056C211.412 206.663 209.894 206.152 209.986 205.363C210.061 204.718 211.236 203.918 211.507 203.242C211.736 202.669 212.055 201.6 211.421 201.11C210.089 200.084 208.579 202.288 207.864 202.874C206.389 204.084 205.762 202.864 204.549 201.985C202.612 200.582 201.395 202.038 202.076 203.786C202.422 204.67 203.737 205.459 203.822 206.362C203.916 207.355 202.538 207.854 201.992 208.647C201.477 209.395 201.239 210.709 202.207 211.329C203.275 212.011 204.203 211.203 204.901 210.573C205.444 210.084 206.046 209.006 206.927 208.945C208.031 208.869 209.84 210.433 210.68 210.916C209.404 211.204 208.637 212.037 207.558 212.571C206.167 213.26 204.224 213.423 202.668 213.896C201.201 214.342 199.881 214.705 198.484 215.258C196.827 215.914 194.799 216.078 193.044 216.555C191.477 216.982 189.991 217.58 188.39 217.932C186.586 218.329 184.714 218.568 182.895 218.927C181.34 219.233 179.515 219.528 177.913 219.53C176.291 219.532 176.325 218.749 175.807 217.705C175.191 216.465 174.17 215.376 173.52 214.166C172.901 213.015 173.835 212.578 174.732 211.698C175.577 210.868 175.353 210.738 176.443 211.321C177.877 212.088 178.824 211.569 179.939 210.687C180.932 209.903 181.297 209.251 182.725 209.797C184.154 210.344 185.515 211.232 187.051 211.589C188.261 211.869 189.162 211.665 189.364 210.633C189.583 209.517 188.768 208.725 187.74 208.062C186.958 207.558 185.25 206.96 184.964 206.142C184.663 205.28 186.249 204.023 186.419 203.059C186.632 201.843 185.961 200.948 184.482 201.79C183.409 202.401 182.696 203.726 181.206 203.808C181.62 202.454 182.517 201.25 183.287 200.009C183.932 198.971 184.485 197.791 186.217 197.675C186.778 197.638 187.143 197.683 187.679 197.608C188.386 197.509 189.346 197.43 190.102 197.281C191.881 196.93 193.452 195.858 195.09 195.243C195.466 196.032 196.13 198.279 197.659 196.967C198.791 195.997 197.538 194.327 198.58 193.247C200.73 191.02 205.412 192.656 208.236 191.507C209.466 191.007 210.467 189.413 208.733 188.932C207.72 188.652 204.795 189.688 204.186 188.924C203.751 188.379 205.572 186.249 205.792 185.664C206.476 183.842 206.365 181.951 206.365 180.075C207.74 180.514 209.479 181.541 210.96 181.682C212.483 181.826 212.751 180.43 212.352 179.514C211.801 178.251 209.969 177.216 208.713 176.402C208.159 176.044 206.709 175.466 206.405 174.921C206.092 174.358 206.541 174.085 206.893 173.596C207.442 172.832 208.774 170.855 207.325 170.139C205.992 169.48 205.244 171.327 204.395 171.722C202.953 172.393 202.459 170.857 201.887 170.075C200.846 168.656 199.405 167.389 198.111 166.112C196.933 164.949 196.207 164.163 196.035 162.681C195.905 161.559 195.611 160.691 197.306 160.436C200.311 159.984 204.71 161.098 207.151 159.189C208.431 158.189 207.516 157.154 205.9 157.205C203.777 157.273 201.758 157.355 199.621 157.22C198.485 157.149 196.11 157.364 195.537 156.451C194.798 155.274 196.05 153.383 194.691 152.352C192.956 151.035 192.53 154.011 192.473 154.833C192.431 155.432 192.627 156.343 192.15 156.861C191.705 157.344 190.891 157.337 190.232 157.512C188.573 157.952 187.717 159.543 189.917 159.879C190.657 159.992 191.69 159.828 192.305 160.256C192.949 160.704 192.703 161.501 192.763 162.106C191.222 160.711 188.017 161.329 185.93 160.811C184.831 160.538 184.645 160.175 184.182 159.344C183.623 158.338 182.347 157.066 182.298 155.954C182.257 155.009 183.264 154.299 183.734 153.485C184.138 152.786 184.503 151.65 184.443 150.866C184.299 148.976 179.93 150.905 179.03 151.628C177.397 152.941 175.384 154.639 176.269 156.498C177.059 158.157 177.478 159.098 174.738 158.968C173.735 158.92 171.629 159.075 170.85 158.744C170.273 158.499 170.49 158.059 170.471 157.421C170.455 156.869 170.508 156.032 170.054 155.549C168.456 153.852 168.082 158.076 167.184 158.534C165.783 159.249 162.814 158.499 163.043 160.623C163.244 162.481 166.461 161.722 167.351 163.321C167.78 164.091 167.689 164.987 168.229 165.731C168.998 166.79 169.944 166.733 170.455 165.629C170.813 164.853 170.335 164.056 170.611 163.324C171.009 162.266 172.903 162.364 174.068 162.245C175.485 162.099 176.719 161.821 178.066 161.481C179.729 161.061 179.638 161.75 179.909 162.748C180.223 163.906 180.703 165.022 180.997 166.197C181.271 167.292 181.999 168.471 182.118 169.567C182.208 170.405 181.844 170.329 180.956 170.812C179.984 171.341 178.915 172.714 177.787 172.94C176.091 173.28 174.382 170.254 172.839 171.802C172.176 172.467 172.433 173.883 172.904 174.569C173.526 175.477 174.671 175.708 173.712 176.747C172.991 177.528 172.085 178.133 172.017 179.184C171.954 180.159 172.804 181.082 174.133 180.796C175.206 180.565 175.841 179.706 176.654 179.185C178.057 178.286 179.209 179.119 180.645 179.628C181.776 180.029 183.854 180.29 184.421 181.233C185.141 182.429 184.218 182.892 182.88 182.551C183.402 183.889 182.716 184.666 182.528 186.048C182.375 187.167 182.046 188.191 181.836 189.272C181.557 190.717 181.527 190.56 179.623 190.609C178.005 190.651 176.432 190.617 174.816 190.562C173.393 190.513 172.425 190.614 172.361 189.272C172.332 188.681 172.81 186.674 171.316 186.915C170 187.127 170.379 188.96 169.939 189.649C169.302 190.647 168.225 190.342 167.027 190.588C165.809 190.839 164.823 191.541 165.137 192.627C165.474 193.785 166.834 193.705 168.017 193.973C169.838 194.385 169.439 196.477 170.502 197.613C170.936 198.076 171.392 198.545 172.121 198.164C173.456 197.466 172.195 195.762 172.548 194.906C172.919 194.007 174.171 194.191 175.353 194.074C177.1 193.902 178.927 193.245 180.667 193.253C180.333 194.037 179.399 194.492 179.062 195.317C178.882 195.759 179.05 196.585 178.8 196.951C178.531 197.344 177.682 197.461 177.331 198.008C176.872 198.724 176.73 199.49 176.193 200.191C174.922 201.848 173.828 203.543 172.477 205.183C171.082 206.878 169.579 208.49 167.824 209.959C166.122 211.384 165.615 210.694 164.152 209.529C163.557 209.054 162.292 208.506 162.126 207.798C161.963 207.099 162.702 206.53 163.107 205.962C163.644 205.209 164.614 203.912 164.378 203.009C163.934 201.311 161.991 202.874 161.254 203.509C159.966 204.619 159.247 205.786 157.302 204.91C156.057 204.348 154.486 202.812 152.852 203.38C151.364 203.897 151.781 205.392 152.696 206.15C153.209 206.575 153.939 206.818 154.483 207.215C155.654 208.072 154.991 208.305 154.457 209.264C154.019 210.05 153.956 211.595 154.762 212.249C156.349 213.536 157.576 210.94 159.048 210.887C159.746 210.862 162.648 212.348 162.855 212.883C163.218 213.822 160.087 214.943 159.256 215.384C157.321 216.408 155.213 217.453 153.037 218.133C150.469 218.935 152.383 216.407 150.979 215.568C149.153 214.475 149.012 217.468 148.825 218.211C148.327 220.189 145.651 220.24 143.492 220.731C142.118 221.043 140.742 221.374 139.354 221.646C138.175 221.876 136.856 221.871 135.714 222.156C134.712 222.407 134.026 222.915 132.906 222.92C132.542 222.922 132.225 222.826 131.874 222.82C131.165 222.806 130.516 223.122 129.838 223.09C128.712 223.035 129.202 222.758 128.81 222.144C128.442 221.568 127.506 221.357 126.778 221.177C124.689 220.662 122.95 221.113 122.647 219.041C122.554 218.404 122.677 215.791 121.125 216.096C119.314 216.452 120.908 219.559 119.783 220.337C119.236 220.716 118.41 220.527 117.75 220.639C116.667 220.823 116.192 221.461 115.007 221.418C114.007 221.382 113.076 221.036 112.204 220.691C110.905 220.178 109.354 219.838 108.271 219.055C106.786 217.981 106.135 216.31 105.502 214.858C104.57 212.72 104.173 210.59 104.024 208.348C103.971 207.567 103.546 207.016 103.368 206.298C103.179 205.536 103.738 205.383 103.866 204.661C103.991 203.958 103.93 203.208 104.12 202.455C104.392 201.373 104.487 200.266 104.751 199.18C105.187 197.385 105.849 195.603 106.393 193.824C106.562 193.271 106.868 191.5 107.741 191.33C108.386 191.204 109.875 191.953 110.472 192.173C111.654 192.608 112.669 193.209 113.933 193.51C114.585 193.665 115.409 193.65 115.837 194.123C116.513 194.871 115.966 196.336 116.247 197.22C116.59 198.302 117.726 198.762 118.642 197.675C119.13 197.096 119 196.405 119.066 195.764C119.159 194.84 119.18 194.617 120.46 194.679C121.757 194.743 123.024 195.125 124.354 195.171C125.553 195.213 126.758 195.187 127.956 195.136C130.865 195.012 133.526 194.643 136.254 193.834C138.103 193.286 140.246 192.089 142.282 192.131C145.158 192.191 144.379 194.268 144.773 195.822C145.013 196.768 147.039 199.672 147.818 197.316C148.203 196.15 146.92 194.45 147.68 193.398C148.578 192.154 151.877 193.186 153.379 192.898C154.593 192.665 156.624 191.32 155.766 190.16C155.36 189.61 154.57 189.715 153.867 189.674C152.533 189.596 151.208 189.454 149.885 189.302C149.133 189.215 147.982 189.165 147.682 188.49C147.426 187.918 148.624 186.433 148.884 185.885C149.743 184.072 150.053 182.597 150.056 180.62C150.057 179.729 150.132 178.789 149.948 177.907C149.881 177.584 149.26 176.53 149.55 176.221C149.942 175.806 150.742 176.333 151.063 176.644C151.701 177.264 151.479 177.214 151.116 177.857C150.582 178.801 149.545 180.783 151.305 181.51C153.146 182.271 153.811 179.7 155.555 179.982C156.368 180.114 157.171 180.948 157.826 181.338C158.594 181.795 159.422 182.279 160.323 182.559C161.802 183.019 163.465 182.674 162.867 181.222C162.396 180.077 160.905 179.12 159.839 178.308C158.14 177.015 158.217 176.471 159.391 174.948C159.882 174.311 161.768 171.604 159.582 171.384C158.425 171.267 157.174 172.731 156.563 173.291C155.514 174.253 154.913 174.666 153.353 173.894C151.828 173.139 151.12 172.508 149.275 172.439C147.152 172.359 146.197 169.87 145.072 168.591C142.015 165.119 137.336 163.401 133.39 160.741C131.467 159.444 130.168 157.748 128.706 156.152C128.01 155.391 127.111 154.76 126.543 153.932C126.186 153.411 125.219 152.155 125.471 151.54C125.784 150.775 127.475 150.303 128.179 149.762C128.769 149.309 129.085 148.743 130.013 148.916C130.84 149.071 131.585 149.944 132.26 150.328C132.924 150.704 133.672 151.054 134.408 151.335C135.738 151.845 137.344 152.117 137.422 150.568C137.49 149.228 135.924 147.793 134.793 146.889C133.969 146.231 132.722 145.659 132.886 144.614C132.966 144.096 133.53 143.173 133.859 142.739C134.993 141.243 138.457 142.155 140.339 142.251C142.606 142.367 145.107 142.07 146.909 143.322C147.497 143.731 148.859 144.533 149.148 145.101C149.484 145.763 148.935 146.061 148.63 146.701C148.236 147.529 147.965 149.163 149.1 149.734C150.993 150.686 151.98 147.861 153.949 148.479C155.815 149.065 157.12 150.75 159.251 151.016C162.039 151.365 160.451 148.668 159.486 147.874C158.235 146.845 155.808 145.781 156.602 144.259C156.829 143.824 157.348 142.917 157.815 142.647C158.728 142.118 160.2 142.408 161.246 142.417C163.885 142.439 166.376 142.27 168.963 141.91C169.743 141.801 169.92 141.715 170.469 142.168C171.23 142.795 171.63 143.613 172.515 144.23C171.236 145.305 169.341 146.575 170.23 148.23C170.995 149.655 172.672 148.956 173.806 148.195C174.339 147.838 174.889 147.081 175.595 146.938C176.511 146.752 177.541 147.402 178.292 147.731C179.418 148.227 181.826 149.696 183.106 148.828C184.797 147.682 182.795 145.956 181.63 145.248C180.925 144.82 179.986 144.514 179.393 143.985C178.604 143.282 179.067 143.178 179.545 142.544C180.42 141.384 180.099 139.89 181.5 138.983C182.276 138.481 183.386 138.165 184.273 137.796C185.145 137.433 186.082 136.713 186.938 136.437ZM201.204 140.949C200.864 140.787 200.523 140.624 200.183 140.461C200.961 140.165 201.475 140.2 201.204 140.949ZM219.991 155.047C220.128 154.506 220.663 153.537 221.4 154.044C221.874 154.369 221.356 155.592 222.484 155.254C222.543 156.032 221.799 155.966 222.896 156.659C221.513 156.534 219.603 156.583 219.991 155.047ZM166.309 220.698C166.657 219.969 166.654 218.838 167.726 219.505C167.782 218.621 167.515 215.821 169.569 215.934C170.407 215.981 170.397 216.557 170.619 217.057C171.005 217.928 171.657 218.722 172.205 219.534C170.167 219.598 168.127 219.963 166.309 220.698ZM166.976 230.765C168.141 231.452 168.725 230.641 169.825 230.345C170.84 230.072 171.894 230.236 173.018 230.042C174.413 229.801 176.056 229.838 177.418 229.828C177.754 229.826 178.456 229.868 178.795 229.898C179.413 229.953 179.358 230.053 179.998 230.187C180.245 230.143 180.494 230.111 180.746 230.091C181.055 230.08 181.299 230.18 181.477 230.39C182.052 230.539 182.261 230.44 182.812 230.545C184.124 230.795 185.103 231.412 185.96 232.23C187.705 233.894 187.757 236.396 187.717 238.457C187.705 239.044 187.648 239.628 187.731 240.213C187.807 240.75 188.293 241.561 188.095 242.095C187.794 242.903 186.862 242.721 185.777 242.757C185.138 242.779 184.5 243.1 183.991 243.129C183.5 243.157 183.302 243.015 182.804 242.928C181.505 242.701 179.973 243.025 178.692 243.301C177.378 243.584 176.226 243.863 174.893 244.063C174.026 244.194 173.245 244.268 172.37 244.353C171.653 244.423 171.344 244.718 170.718 244.839C170.114 244.956 169.525 244.781 168.916 244.873C168.086 244.998 167.508 245.474 166.752 245.71C165.709 246.037 164.043 245.549 163.58 246.555C163.4 245.585 162.207 245.849 161.32 245.763C159.857 245.621 158.415 245.109 157.008 244.782C155.855 244.515 151.866 242.047 151.102 243.049C151.103 242.948 151.242 242.374 151.121 242.308C150.696 242.074 150.699 242.203 150.241 242.056C149.54 241.833 149.245 241.631 148.744 241.253C147.73 240.491 146.367 240.092 145.299 239.401C142.617 237.664 141.699 234.085 141.045 231.594C140.19 232.778 140.505 231.259 140.653 230.751C141.003 229.553 140.552 228.962 140.451 227.805C140.357 226.741 140.978 226.53 142.21 226.419C143.727 226.281 145.187 226.09 146.673 225.794C148.091 225.512 149.481 225.194 150.762 224.632C151.934 224.119 153.163 223.917 154.361 223.467C155.682 222.971 156.978 222.45 158.311 221.966C158.912 221.749 161.558 220.19 162.017 220.285C162.96 220.48 162.07 221.769 161.782 222.107C161.044 222.976 159.831 223.379 158.737 223.925C157.75 224.418 154.757 226.752 157.796 226.518C159.809 226.363 161.173 224.716 162.461 226.593C162.915 227.256 163.584 227.787 163.062 228.472C162.332 229.428 160.226 229.883 159.123 230.526C158.182 231.074 156.257 233.658 158.197 233.935C158.754 234.015 159.614 233.912 160.028 233.573C160.308 233.345 160.288 232.876 160.571 232.72C160.972 232.498 161.751 232.773 162.208 232.651C162.86 232.478 163.013 232.2 163.253 231.712C163.949 231.96 163.959 232.292 164.753 231.972C165.017 231.866 165.114 231.477 165.419 231.373C165.829 231.234 165.951 231.691 166.176 231.624C166.785 231.441 166.783 231.236 166.976 230.765ZM125.191 223.166C124.024 223.234 122.749 223.307 121.753 222.727C122.963 222.784 124.03 222.997 125.243 222.802C125.726 222.724 126.498 222.369 126.992 222.493C128.747 222.932 125.658 223.138 125.191 223.166ZM121.949 143.006C121.932 142.686 121.583 138.374 123.471 140.068C123.987 140.531 123.43 141.152 123.357 141.664C123.233 142.528 123.621 143.393 124.203 144.12C124.747 144.799 125.763 145.393 125.611 146.277C125.477 147.053 124.474 147.716 123.979 148.36C122.764 146.864 122.047 144.806 121.949 143.006ZM117.801 97.7508C113.428 98.11 109.076 98.7456 104.86 99.7266C100.72 100.69 96.8609 102.195 92.9707 103.638C92.1689 100.958 91.3293 98.2859 90.5373 95.6042C90.1564 94.3137 89.7924 93.0197 89.4359 91.7246C89.1818 90.8039 88.2587 89.087 88.6439 88.1814C88.8485 87.7015 89.1182 87.6993 89.558 87.403C89.8266 87.2221 90.2947 86.7796 90.5731 86.6849C91.2512 86.4547 92.9927 86.2531 93.6865 86.2859C94.3191 86.3156 94.6498 86.5117 95.3004 86.3698C95.8545 86.2491 96.3198 85.9163 96.8397 85.7339C98.1626 85.2696 99.8141 85.1139 101.229 84.8681C102.591 84.6318 103.996 84.5791 105.361 84.345C106.557 84.1396 107.125 83.4528 108.145 83.4776C110.798 83.5423 113.733 83.2996 116.366 82.8046C119.32 82.2496 122.533 82.3569 125.564 82.2974C126.771 82.2738 127.62 82.0617 127.626 83.1111C127.633 84.3915 126.978 85.8292 126.644 87.0793C125.902 89.8511 125.274 92.5453 124.994 95.3597C124.853 96.7676 124.114 96.6692 122.648 97.1011C121.016 97.5813 119.536 97.6086 117.801 97.7508ZM94.808 126.188C95.8855 126.312 95.7618 124.012 95.8407 123.544C98.41 127.326 101.303 130.965 103.567 134.871C104.096 135.784 104.576 136.718 105.136 137.621C105.518 138.239 106.374 139.068 106.354 139.787C106.332 140.537 105.556 140.817 104.738 141.095C103.854 141.396 103.509 141.545 102.886 141.198C102.132 140.777 101.502 139.482 101.037 138.857C100.325 137.903 99.6445 136.936 98.9479 135.976C97.6863 134.236 96.1973 132.569 95.1606 130.742C94.1895 129.031 92.7202 127.558 91.6733 125.877C90.6367 124.212 89.218 122.633 88.0262 121.003C89.2231 120.614 90.7148 119.643 92.0746 119.697C93.4792 119.753 93.445 120.811 93.5059 121.693C93.5699 122.629 93.1686 125.999 94.808 126.188ZM98.2584 143.274C97.6175 143.867 96.1725 144.216 95.2863 144.545C94.0588 145.001 92.8022 145.406 91.5807 145.871C87.5727 147.398 83.5816 148.795 79.4986 150.197C77.388 150.921 75.3033 151.691 73.2438 152.5C72.1647 152.924 69.7875 154.408 68.5463 154.446C67.1232 154.489 67.0899 152.246 66.7765 151.405C66.513 150.701 66.0242 150.153 65.6951 149.486C65.5612 149.213 65.6653 149.007 65.4611 148.737C65.2286 148.429 64.5772 148.181 64.2422 147.916C62.82 146.788 61.6412 145.353 60.44 144.083C59.3398 142.92 57.4628 141.463 56.935 140.037C55.8972 137.235 61.9267 135.683 64.2336 134.557C68.2726 132.586 72.3312 130.56 76.1817 128.37C77.9354 127.372 79.6525 126.335 81.4152 125.346C82.2379 124.885 84.5173 123.09 85.5732 123.729C85.9663 123.967 85.9737 124.626 86.1379 124.972C86.4964 125.726 87.0406 126.385 87.5919 127.062C88.0816 127.662 88.7778 128.282 89.0837 128.951C89.4485 129.749 89.4316 130.2 90.0991 130.916C91.3132 132.217 91.8865 133.719 93.0155 135.045C94.1039 136.325 95.1496 137.268 95.8615 138.698C96.2699 139.517 96.9143 140.244 97.4836 140.997C97.7518 141.353 98.0322 141.702 98.2725 142.071C98.7029 142.729 98.8548 142.72 98.2584 143.274ZM63.8072 154.221C63.0367 154.651 61.9027 153.928 61.1555 153.918C60.8303 153.913 60.5076 154.111 60.2904 154.106C59.6374 154.09 59.1038 153.748 58.5026 153.589C55.7276 152.852 52.419 152.824 50.0484 151.328C45.3391 148.355 47.5844 142.39 48.442 138.526C48.6167 137.738 48.9313 136.647 48.1157 136.002C47.2216 135.294 45.8767 135.716 45.0584 136.289C44.2188 136.875 43.6479 137.697 42.9501 138.383C41.8385 139.474 40.6251 140.506 39.3996 141.518C35.0453 145.117 30.4342 149.236 25.0476 151.877C22.8074 152.975 20.7796 154.464 18.3243 155.302C15.3706 156.309 18.4028 152.421 18.9337 151.789C22.41 147.654 27.4711 144.382 31.7214 140.752C32.5236 140.067 33.6627 139.144 33.6769 138.157C33.6985 136.675 32.0218 136.808 30.6957 137.219C29.4557 137.604 28.8345 138.562 27.8367 139.216C26.5947 140.031 25.1434 140.692 23.7608 141.349C20.7789 142.768 17.6135 143.958 14.4577 145.118C12.9816 145.661 11.4985 146.192 10.0154 146.723C9.60819 146.869 7.17522 148.074 7.29145 147.041C7.30715 146.902 8.85938 145.431 9.051 145.376C10.0068 145.103 10.4807 145.926 11.3312 144.848C11.9355 144.082 12.0192 143.684 12.8725 143.103C13.0177 143.004 13.1175 142.754 13.2353 142.592C13.2207 142.653 13.869 142.161 13.745 142.246C13.9154 142.129 14.1628 141.914 14.301 141.773C14.9681 141.093 16.2502 141.08 16.8298 140.303C17.0508 140.007 16.9256 139.628 17.1922 139.334C17.5656 138.922 18.3871 138.747 18.8253 138.385C19.2011 138.073 19.5109 137.82 19.7442 137.629C19.9048 137.498 20.1867 137.406 20.3768 137.256C20.8499 136.882 20.8126 136.552 21.4747 136.238C22.0692 135.956 22.3425 136.22 22.5482 135.522C23.2715 135.884 23.1808 135.354 23.4745 134.975C23.8562 134.481 24.3411 134.261 24.8673 133.904C26.0249 133.118 27.1102 131.948 28.0951 130.959C30.5445 128.499 32.5256 125.623 33.2551 122.536C33.4299 121.798 33.5261 121.052 33.5956 120.304C33.6325 119.91 33.468 118.952 33.7801 118.567C34.2651 117.968 35.1851 118.206 35.8852 117.944C36.1232 117.855 36.358 117.593 36.581 117.533C36.8932 117.45 37.2753 117.531 37.5992 117.451C37.7253 117.42 37.7543 117.131 37.9624 117.094C38.3708 117.021 38.7765 117.137 39.1801 117.141C40.0632 117.15 40.935 117.029 41.7819 116.809C42.5524 116.609 43.1971 116.151 43.966 115.986C43.8874 116.003 45.2331 116.087 45.1605 116.027C45.2249 115.769 45.2893 115.51 45.3537 115.251C45.8645 115.53 47.6064 115.897 48.1467 115.834C49.0153 115.731 48.8323 115.12 49.5686 115.923C49.9856 115.639 50.4022 115.355 50.8188 115.072C51.1345 116.106 53.3091 115.604 54.2947 115.661C55.6836 115.742 56.7776 115.538 58.0432 115.916C59.5824 116.375 60.9324 116.859 62.5903 116.985C63.7486 117.072 64.2304 117.497 65.3653 117.76C66.8904 118.112 67.0109 118.5 66.5338 119.717C66.1471 120.703 65.8129 121.463 66.378 122.475C67.3804 124.27 70.1044 125.009 71.8608 126.249C67.7464 128.503 63.6842 130.72 59.7073 133.122C58.0408 134.128 56.2687 135.135 55.3196 136.649C54.4443 138.045 53.948 139.724 53.4214 141.219C52.2132 144.648 55.6165 146.955 59.1124 148.463C59.8361 148.775 64.8187 153.656 63.8072 154.221ZM57.0218 158.364C56.7756 157.705 56.8078 157.529 57.6234 157.292C57.932 157.203 59.1151 157.086 59.3068 157.417C59.7403 158.167 57.4616 158.157 57.0218 158.364ZM91.6906 110.585C91.9827 112.048 92.2702 113.511 92.5313 114.978C92.675 115.788 93.0013 116.505 92.2282 117.116C91.7888 117.463 90.7231 117.592 90.1619 117.777C89.353 118.044 88.5646 118.349 87.7867 118.667C86.3994 119.234 84.9496 119.576 83.5804 120.087C82.9847 120.309 82.6317 120.747 82.1161 121.049C81.4109 121.462 80.5529 121.663 79.8249 122.056C78.524 122.759 77.3319 123.59 76.0317 124.298C74.5588 125.099 74.2518 124.842 73.4244 123.657C72.6819 122.594 71.7905 122.109 70.7213 121.275C70.3054 120.951 68.8172 119.103 70.0812 118.944C70.4052 118.903 71.5243 119.283 71.778 119.405C72.1632 119.589 72.7789 120.638 73.0922 120.656C73.6565 120.688 74.379 119.434 74.7308 119.104C77.0354 116.939 79.5705 114.797 82.241 112.903C83.6252 111.922 85.0792 111.027 86.6483 110.234C87.7643 109.671 88.7381 108.882 89.8384 108.347C90.0712 108.19 90.3347 108.077 90.6308 108.01C91.2049 107.807 91.4204 107.982 91.2775 108.537C91.6066 109.08 91.5708 109.986 91.6906 110.585ZM41.2805 108.667C41.8405 108.222 42.548 107.867 43.0365 107.37C43.3122 107.09 43.494 106.589 43.8093 106.407C44.3582 106.092 45.1436 106.237 45.7821 105.814C46.3986 105.405 46.94 104.915 47.5424 104.491C48.848 103.571 50.1953 102.726 51.4762 101.79C52.2042 101.258 52.9675 100.568 53.6142 100.217C53.7858 100.124 53.9779 99.985 54.1601 99.9133C54.5496 99.76 54.744 99.916 55.3125 99.7732C55.6887 99.6791 55.9573 99.3074 56.2589 99.1315C56.9763 98.7134 57.9108 98.5479 58.6011 98.1455C59.2915 97.7431 59.6237 97.1182 60.5739 96.7826C61.7233 96.3769 62.5848 96.6974 63.4157 95.9214C63.7545 95.6052 63.8472 95.2064 64.3793 95.0069C65.0201 94.7663 65.5828 95.0216 66.195 94.7483C66.6077 94.5638 66.8896 94.177 67.3157 93.975C68.0782 93.6149 68.9221 93.5766 69.6352 93.1307C70.2371 92.7546 69.9029 92.7933 70.6156 92.6345C70.929 92.5646 71.2765 92.5346 71.6111 92.4454C72.6827 92.1601 74.4324 91.8107 75.0669 91.0175C75.3893 91.3844 75.4997 91.4589 76.0223 91.3448C76.2968 91.1705 76.5485 90.9789 76.7778 90.7696C76.9459 90.9354 77.1265 90.9455 77.3189 90.7993C78.4498 90.4959 79.4872 89.9746 80.6012 89.6853C80.7591 89.7518 80.9169 89.8186 81.0744 89.8848C81.2939 89.8943 81.383 89.8106 81.3414 89.6335C81.7796 89.571 82.2846 89.4205 82.6883 89.2832C83.4626 89.0199 84.3178 88.3941 85.23 88.6181C86.7532 88.992 86.8262 91.4175 87.0889 92.3786C87.7368 94.7473 88.3886 97.1152 89.0393 99.4833C89.304 100.447 89.5364 101.418 89.8847 102.365C90.1125 102.984 90.6791 103.897 90.4745 104.556C90.2236 105.363 89.2148 105.625 88.3714 105.999C87.2087 106.513 86.0849 107.084 84.9846 107.676C80.3138 110.191 76.8316 113.649 73.5198 117.197C72.9061 116.501 71.2628 115.524 70.2383 115.21C69.5209 114.991 68.8753 115.167 68.1611 114.9C67.6518 114.708 67.2289 114.335 66.7471 114.094C63.8064 112.624 60.257 111.409 56.8483 110.826C49.8544 109.628 43.0075 111.482 36.2261 112.362C37.602 110.885 39.6596 109.954 41.2805 108.667ZM88.0953 68.5974C89.2922 65.5525 91.3077 62.6049 94.1762 60.3209C95.6224 59.1694 97.3223 58.1629 99.2275 57.5227C100.885 56.9661 102.856 56.4323 102.831 58.2221C102.774 62.1075 101.625 65.9488 101.484 69.8404C101.348 73.6539 102.165 76.715 105.122 79.788C103.249 80.1276 101.376 80.472 99.5098 80.8334C98.0923 81.1077 96.6225 81.4154 95.2816 81.6038C93.9559 81.7896 92.7367 81.9109 91.4259 82.2606C90.5424 82.4963 89.1583 83.2168 88.2021 83.0605C86.613 82.8006 86.9892 78.3509 86.9075 77.2819C86.6782 74.2629 86.9538 71.503 88.0953 68.5974ZM117.14 74.4596C119.311 72.4026 121.567 70.0029 125.219 69.621C128.751 69.2517 130.053 72.5576 129.828 74.7869C129.752 75.5412 129.609 77.4998 128.907 78.111C128.13 78.787 126.751 78.2774 125.764 78.1732C121.505 77.723 117.138 78.4744 112.866 78.4744C114.291 77.1358 115.722 75.8023 117.14 74.4596ZM134.618 82.6624C136.099 82.8282 137.282 83.0044 136.567 84.3207C135.135 86.9574 134.034 89.4735 135.289 92.3476C136.248 94.5426 139.283 97.2071 142.315 97.6469C143.378 97.801 144.977 97.5252 145.63 98.3677C146.212 99.1183 145.581 101.369 145.513 102.202C145.261 105.306 144.243 108.387 141.668 110.826C139.378 112.996 136.583 114.695 133.251 112.646C130.443 110.92 128.784 107.831 127.954 105.191C127.51 103.782 127.456 102.375 127.371 100.935C127.296 99.6617 126.985 98.8538 128.83 98.5896C129.325 98.5191 130.561 98.5412 130.563 97.9518C130.565 97.1599 129.225 97.4569 128.713 97.4167C126.736 97.2629 127.662 95.4688 127.846 94.3085C128.16 92.3326 128.668 90.3788 129.135 88.4229C129.532 86.7569 129.553 84.5736 130.415 83.0161C130.919 82.1065 133.629 82.5518 134.618 82.6624ZM138.256 88.5133C138.481 87.4394 138.601 86.0974 139.966 85.5037C141.466 84.8516 142.217 85.9141 142.958 86.7824C144.921 89.0858 147.094 91.2413 147.416 94.1007C147.454 94.4418 147.642 95.1264 147.221 95.3624C147.033 95.4679 146.584 95.1899 146.293 95.2064C144.738 95.2938 143.613 95.6189 142.088 94.9337C139.104 93.5919 137.714 91.1049 138.256 88.5133ZM149.989 94.9456C149.669 92.4451 148.189 90.2277 146.536 88.1168C145.721 87.076 144.139 85.938 143.577 84.8384C143.275 84.2493 143.808 83.5199 144.904 83.7725C145.45 83.8984 146.501 85.0281 146.866 85.4188C147.803 86.4235 148.579 87.5439 149.32 88.6408C150.113 89.8131 152.365 94.1151 149.989 94.9456ZM140.166 70.047C140.339 67.6945 140.357 64.9929 142.309 63.0407C143.822 61.5267 146.592 60.8677 148.839 60.2825C151.866 59.4939 155.502 59.3722 158.668 59.627C161.455 59.8515 163.558 61.3324 165.277 62.9607C167.026 64.6166 168.381 66.7487 169.584 68.6752C169.884 69.1573 172.437 72.2505 170.711 72.1785C170.026 72.1497 169.43 71.1062 168.906 70.7978C168.495 70.5567 168.008 70.5864 167.64 70.3933C167.245 70.1864 167.33 69.9949 167.024 69.7393C164.915 67.9813 162.975 68.9936 160.701 69.9195C160.594 69.3062 160.781 68.1671 160.123 67.719C159.264 67.1324 158.366 68.0616 157.749 68.5171C157.188 68.9323 156.496 69.6887 155.789 69.9134C154.871 70.2048 155.183 69.895 154.385 69.6501C152.78 69.1573 151.545 70.6161 150.734 71.4644C150.431 71.7807 149.936 72.5797 149.393 72.6652C148.869 72.7476 148.8 72.4562 148.348 72.3486C147.07 72.0443 146.716 72.7559 146.309 73.6395C145.851 74.6331 145.461 75.5905 144.782 76.5185C143.582 78.1606 143.067 78.7009 144.016 80.5143C142.63 80.6749 142.339 80.8039 141.651 79.8438C140.944 78.8542 140.76 78.0334 140.804 76.8961C140.897 74.5175 139.987 72.4629 140.166 70.047ZM172.344 81.3014C173.796 83.3471 174.718 86.1939 174.703 88.5247C174.695 89.681 174.608 91.103 173.917 92.1521C173.253 93.1586 171.864 93.6624 170.585 94.0912C167.5 95.1252 164.026 95.1133 160.783 94.6523C159.1 94.4127 157.463 94.5674 156.023 93.7783C154.939 93.1837 153.632 92.6066 153.314 91.5171C153.181 91.0611 153.386 90.6789 153.344 90.2314C153.397 90.0184 153.377 89.8109 153.285 89.6081C153.096 89.5232 152.905 89.4404 152.713 89.3598C152.561 89.0199 152.852 88.6411 152.777 88.2862C152.687 87.8578 152.232 87.509 152.019 87.1207C151.432 86.0499 151.851 85.451 152.949 84.7238C153.212 84.5623 153.476 84.4026 153.743 84.2441C153.981 83.9493 154.245 83.9481 154.534 84.2401C155.057 84.2457 155.042 84.3716 155.592 84.2466C156.796 83.9726 157.807 82.972 158.987 82.6204C159.446 82.4837 160.13 82.5999 160.503 82.348C160.835 82.1227 160.621 81.6501 160.914 81.4292C161.847 80.7224 163.316 81.3924 164.18 80.3651C164.885 79.5269 164.735 78.3377 164.807 77.3861C166.971 77.7089 167.908 79.3274 169.686 80.1413C170.037 79.0776 170.089 79.1095 171.446 78.8174C170.831 79.7052 171.825 80.5692 172.344 81.3014ZM174.001 70.0087C174.399 70.4095 174.704 71.4047 174.001 71.5006V70.0087ZM175.847 73.6281C179.151 73.6334 181.262 76.893 182.227 78.9124C183.275 81.1083 184.38 84.0373 182.424 86.1758C181.673 86.996 180.753 87.0711 179.545 86.9647C178.09 86.8366 177.345 86.6723 177.914 85.459C178.981 83.1853 178.178 80.2946 176.288 78.3911C178.888 77.9991 177.24 76.1376 175.935 75.4409C174.411 74.6276 173.179 73.6235 175.847 73.6281ZM100.427 191.472C99.65 193.081 98.86 194.685 98.2077 196.343C97.5897 197.914 97.9478 199.684 97.1793 201.194C96.7066 201.012 96.5711 200.687 96.16 200.49C95.9067 200.368 95.4653 200.32 95.2478 200.186C94.874 199.956 93.9673 199.099 93.7215 198.766C92.8725 197.616 93.4388 195.746 93.8927 194.564C94.4542 193.1 95.4139 191.695 96.7022 190.541C97.6062 189.732 98.1048 189.99 99.3131 190.388C100.028 190.623 100.764 190.774 100.427 191.472ZM94.5394 204.166C93.9186 205.146 92.7712 205.954 92.0896 206.943C91.3745 207.98 90.833 209.149 89.9208 210.097C88.9926 211.065 88.1581 210.903 86.8796 211.32C86.4206 211.47 86.2274 211.747 85.8583 211.964C85.1656 212.369 84.4062 212.618 83.6782 212.978C83.1606 211.987 81.579 207.009 79.5661 207.116C77.8168 207.208 78.7117 209.814 78.9371 210.583C79.1279 211.233 79.3459 211.892 79.636 212.519C79.929 213.152 80.8419 214.101 80.5042 214.795C80.075 215.677 79.007 215.619 78.4722 214.976C78.0249 214.437 77.798 213.706 77.4681 213.12C77.1783 212.605 75.8539 209.787 74.7088 210.224C73.6058 210.645 75.3214 213.377 75.6084 213.914C76.3019 215.21 77.6315 216.455 75.8743 217.494C73.2069 219.07 69.9222 220.257 66.934 221.393C65.1897 222.056 63.6214 222.929 61.7904 223.467C60.0901 223.968 58.1252 224.053 56.4811 224.628C56.0767 224.769 56.348 224.946 55.757 225.028C55.2615 225.096 54.3957 224.912 53.8644 224.915C52.984 224.922 52.1021 224.974 51.2237 224.888C50.7285 224.839 49.602 224.416 49.7802 225.115C49.0801 224.963 48.8092 224.412 48.2983 224.067C47.8432 223.76 47.262 223.593 46.7539 223.352C45.7035 222.853 44.9182 222.285 44.6029 221.334C43.8631 219.102 45.4271 216.778 47.3575 215.222C48.4656 214.329 49.7653 213.587 50.7811 212.625C51.1377 212.288 51.3913 211.896 51.8437 211.622C52.3978 211.286 53.158 211.244 53.6944 210.904C54.0937 210.651 54.2131 210.248 54.6316 210.016C55.2505 209.673 55.9746 209.815 56.5593 209.365C56.8926 209.108 58.0373 207.896 57.9572 207.56C58.2705 207.642 58.5847 207.724 58.8976 207.806C59.0884 207.06 60.7381 206.139 61.5517 205.781C61.9632 205.6 62.765 205.609 63.0713 205.414C63.4785 205.155 63.4451 204.612 63.7683 204.287C64.6954 203.356 66.6352 202.937 67.863 202.288C69.4247 201.463 70.9416 200.527 72.3524 199.55C75.204 197.575 77.7179 195.28 79.7715 192.772C80.5989 191.762 81.3665 190.732 81.9555 189.625C82.3184 188.944 82.68 187.732 83.5757 187.337C84.5008 186.929 86.6252 187.481 87.661 187.54C89.1826 187.625 91.5543 187.572 92.9181 188.156C94.3761 188.78 93.1906 189.296 92.4402 190.04C91.3419 191.128 90.6838 192.461 90.1352 193.768C89.7127 194.772 89.6338 195.745 89.3574 196.758C89.0656 197.828 89.0683 199.274 89.7445 200.258C90.414 201.232 95.238 203.064 94.5394 204.166ZM37.0275 223.908C33.7519 220.427 36.4636 215.331 39.6682 212.518C43.5344 209.124 49.0369 207.215 53.5569 204.455C58.7833 201.263 64.1511 198.298 68.7823 194.555C71.1296 192.657 73.1735 190.612 75.0269 188.408C76.5999 186.535 77.7422 184.041 80.9209 183.771C79.0459 185.595 78.9363 188.224 77.4866 190.255C75.9516 192.406 73.6887 194.195 71.3841 195.848C66.5181 199.339 61.2627 202.538 56.0068 205.658C53.3241 207.25 50.7156 208.915 48.0419 210.515C45.6474 211.949 43.1323 213.174 41.7525 215.359C39.3717 219.127 39.2296 224.71 44.5016 227.031C41.7851 226.609 38.7297 225.716 37.0275 223.908ZM322.633 66.9274C321.664 65.414 319.847 64.8749 318.024 64.2828C316.238 63.7033 314.607 62.9895 312.627 62.8041C311.747 62.7216 309.264 62.9263 309.148 61.9306C309.051 61.1009 311.645 60.2681 312.243 59.6359C313.13 58.6989 313.732 57.1776 313.388 55.9941C313.062 54.8718 311.664 54.5173 310.358 54.3139C306.297 53.6817 301.979 54.1466 297.907 54.4064C298.405 53.8623 299.108 53.4161 299.507 52.7644L300.153 53.812C300.52 53.2129 300.919 52.625 301.376 52.0639C301.685 52.3351 301.995 52.6066 302.304 52.8778C301.79 51.4693 303.519 51.4765 303.337 50.2892C303.267 49.8274 302.866 49.6251 302.768 49.2538C302.574 48.5158 303.304 48.0543 302.473 47.3699C301.549 46.6077 300.036 46.91 298.96 46.9811C298.825 46.9903 298.629 47.199 298.454 47.2159C298.212 47.2398 298.073 46.9798 297.774 46.9936C296.971 47.0306 296.263 47.5172 295.466 47.665C291.769 48.3502 288.071 49.5723 284.523 50.7132C280.91 51.8747 277.364 53.2271 274.215 55.0499C270.844 57.0009 268.41 59.5089 265.718 61.98C264.452 63.1412 263.143 64.2565 262.18 65.5942C261.683 66.2856 261.233 68.4573 260.337 68.773C259.364 69.1156 256.917 68.1462 255.922 67.9672C253.58 67.5465 251.249 67.3708 248.847 67.4554C246.937 67.5222 244.922 67.4824 243.028 67.6648C241.929 67.7705 239.189 68.7227 239.013 69.7877C238.935 70.2609 239.63 70.6544 239.785 71.0979C240.021 71.7685 239.631 72.4792 239.903 73.1513C240.456 74.5218 243.024 75.026 244.537 75.4575C248.761 76.6629 253.044 77.5976 257.312 78.6764C259.167 79.1456 260.752 79.8922 262.432 80.6418C263.826 81.2631 265.097 81.8849 263.69 83.0516C262.356 84.1568 262.523 84.603 262.92 86.1256C263.338 87.7324 263.484 89.3574 264.03 90.9486C264.573 92.5334 265.588 94.047 265.391 95.7238C265.193 97.395 264.307 99.1115 263.478 100.643C262.642 102.19 261.718 103.719 260.808 105.242C259.967 106.65 259.056 108.078 257.11 108.679C253.395 109.826 248.648 109.644 244.775 109.227C240.38 108.754 235.839 107.953 231.683 106.729C227.686 105.552 223.29 103.747 219.985 101.614C218.219 100.475 216.307 99.6307 214.433 98.6111C212.533 97.5779 211.091 96.1847 209.428 94.9478C206.167 92.5232 202.153 90.8526 198.021 89.5198C193.376 88.0214 188.58 88.1771 183.658 88.015C184.433 86.8268 185.43 85.6913 185.796 84.3686C186.177 82.991 185.901 81.4941 185.66 80.1178C185.191 77.4389 184.303 75.0811 182.136 72.9174C181.145 71.9281 179.989 71.1567 178.338 71.013C177.338 70.9257 175.491 71.5251 174.769 70.864C174.452 70.5726 174.526 69.9596 174.325 69.6008C174.148 69.282 173.792 68.9611 173.599 68.6151C172.773 67.1352 171.742 65.8271 170.713 64.4232C170.303 63.8648 169.986 63.0407 169.428 62.5708C169.124 62.3152 168.733 62.1991 168.563 62.0121C168.245 61.6621 168.099 61.0225 167.833 60.6276C167.38 59.9519 166.802 59.3239 166.136 58.7662C165.071 57.8748 163.7 57.0881 162.24 56.6441C161.429 56.3973 160.835 56.339 159.988 56.3751C159.739 56.3857 159.463 56.4974 159.215 56.4827C158.621 56.4473 158.714 56.2812 158.238 56.2039C155.053 55.6862 150.782 56.4126 147.795 57.3043C144.648 58.2435 142.092 59.482 140.18 61.7075C135.482 67.1732 136.577 74.2304 138.569 80.2505C137.364 80.0034 136.164 79.7114 134.947 79.502C134.202 79.3736 133.185 79.3978 132.52 79.0908C131.039 78.4076 132.243 76.6549 132.252 75.5225C132.275 72.6447 130.535 68.1447 126.741 66.9292C122.787 65.6626 117.977 69.2177 115.533 71.2337C113.965 72.527 112.539 73.9208 111.039 75.2604C109.991 76.197 108.606 77.6899 106.768 77.4453C102.759 76.9117 103.982 70.9588 104.16 68.9467C104.441 65.7661 105.041 62.5344 105.045 59.3455C105.046 57.4071 104.617 54.7921 101.567 54.5648C97.3698 54.2522 93.3936 57.232 90.9461 59.5248C84.491 65.5703 83.0652 73.5613 84.7918 81.1478C85.0451 82.26 85.8532 83.6321 84.3112 84.3226C82.2854 85.2298 79.6957 85.779 77.5188 86.4452C72.6505 87.9341 68.1426 89.92 63.5594 91.8613C59.0217 93.7835 54.5566 95.6913 50.4627 98.1676C46.3817 100.636 42.3419 103.252 38.6241 106.051C36.7715 107.446 34.9833 108.901 33.2964 110.42C31.7092 111.849 30.4232 113.472 28.6978 114.807C27.5233 115.716 25.3629 116.936 25.1049 118.323C24.8964 119.442 27.3156 120.218 28.4072 120.736C29.1557 121.091 29.6744 121.08 29.7286 121.712C29.7953 122.501 28.73 123.765 28.3507 124.517C27.3843 126.436 26.1215 128.025 24.4609 129.622C20.7832 133.158 16.3389 136.157 12.1205 139.299C8.20126 142.218 4.36056 145.091 1.4874 148.713C0.783347 149.601 -0.968468 151.423 0.696567 152.254C1.12733 152.469 2.44944 152.639 2.88805 152.408C3.4319 152.122 3.15625 151.691 3.79866 151.404C3.63766 152.369 9.2489 150.484 9.68555 150.309C10.8647 149.838 11.9312 149.285 13.1367 148.862C13.8439 148.614 13.9295 148.269 14.4769 147.992C14.7698 147.844 14.7734 148.042 15.1649 147.95C15.5175 147.867 16.3452 147.836 16.6083 147.57C16.6154 147.563 16.9028 146.921 16.6586 147.054C17.6143 146.534 18.1794 147.32 17.6057 148.058C15.909 150.239 13.7638 151.843 13.099 154.464C12.8575 155.416 12.4456 157.183 13.1901 158.051C13.2172 158.082 13.4677 157.99 13.4984 158.024C13.5266 158.056 13.7999 158.352 13.9122 158.436C14.57 158.928 14.5276 159.147 15.6255 159.126C16.1124 159.117 17.0834 159.068 17.5291 158.897C17.8645 158.767 18.0282 158.449 18.2862 158.336C18.5469 158.221 18.5163 158.161 18.7609 158.094C18.8112 158.08 18.9074 158.414 19.0028 158.401C19.5258 158.324 19.7512 158.08 20.1957 157.883C21.4762 157.318 22.7316 156.695 23.9508 156.126C25.1783 155.552 26.0952 154.753 27.3176 154.087C28.6165 153.379 29.6787 152.837 30.6777 151.855C31.3691 151.175 32.1945 150.927 32.6587 150.592C33.2096 150.195 34.1594 148.661 35.0473 148.478C35.4517 148.395 35.7753 148.674 35.9967 148.56C36.2461 148.431 35.9744 148.184 36.0992 148.039C36.3329 147.769 36.3619 147.724 36.7593 147.475C37.2678 147.158 37.8929 147.073 38.3198 146.659C38.7945 146.198 38.8597 145.682 39.4436 145.251C40.8486 144.213 42.0992 143.12 43.5878 142.115C43.013 144.617 42.4432 147.102 42.8889 149.646C43.3204 152.113 44.6614 153.218 47.2934 154.469C47.873 154.745 48.4809 155.146 49.1033 155.341C49.4814 155.46 50.0512 155.389 50.3331 155.477C51.2877 155.772 50.9629 156.377 51.0937 157.058C51.2967 158.114 52.5403 158.927 53.3429 159.75C54.0179 160.442 55.2352 162.016 56.3645 162.255C57.3843 162.471 58.3463 161.54 59.1956 161.143C60.4761 160.546 61.8713 160.117 63.2217 159.629C65.8592 158.675 68.4077 157.537 71.0158 156.528C72.2071 156.067 73.4103 155.88 74.6711 155.582C76.1857 155.225 77.4779 154.541 78.9304 154.074C81.5421 153.236 84.0445 152.235 86.6405 151.354C92.0134 149.531 97.8732 148.279 102.654 145.544C104.817 144.306 107.602 144.175 109.734 142.972C111.955 141.719 110.593 139.802 109.642 138.264C107.043 134.062 105.492 129.698 101.914 125.87C100.055 123.881 98.3373 121.826 96.716 119.711C95.2819 117.84 95.311 115.72 94.9513 113.607C94.7102 112.194 94.4844 110.775 94.1899 109.369C94.0034 108.475 93.4007 107.349 94.1299 106.539C94.9132 105.668 96.7741 105.297 97.9501 104.838C99.4116 104.267 100.827 103.653 102.343 103.17C105.809 102.066 109.458 101.302 113.094 100.627C114.178 100.426 118.818 98.988 119.701 99.8305C118.616 100.397 118.299 101.424 117.813 102.305C117.088 103.618 116.34 104.869 115.811 106.244C114.719 109.089 113.79 111.978 112.899 114.864C112.015 117.73 110.961 120.618 110.69 123.57C110.552 125.077 110.647 126.585 110.643 128.094C110.64 129.704 110.212 131.283 110.288 132.896C110.339 133.97 110.455 135.259 111.26 136.174C112.006 137.023 113.275 137.117 114.381 137.571C115.84 138.17 116.411 138.425 116.425 139.727C116.441 141.245 116.315 142.736 116.497 144.253C117.131 149.536 119.404 155.805 123.942 159.883C124.244 160.155 133.049 168.824 134.024 167.554C134.695 168.175 135.699 168.402 136.525 168.943C137.824 169.793 139.098 170.473 140.172 171.526C142.126 173.442 143.787 175.688 144.276 178.139C144.696 180.248 144.443 182.769 142.92 184.597C141.391 186.431 138.123 187.633 135.657 188.536C132.414 189.723 129.123 189.856 125.603 189.559C123.866 189.412 122.142 189.183 120.418 188.966C119.7 188.876 118.863 188.876 118.184 188.665C117.456 188.439 117.209 188.189 116.482 188.161C115.939 188.14 115.642 188.234 115.068 188.14C114.357 188.025 113.585 187.814 112.877 187.671C112.089 187.513 111.442 187.288 110.716 186.997C110.044 186.728 109.287 186.676 108.639 186.421C107.524 185.982 107.18 185.247 105.672 185.655C104.079 186.084 104.412 187.16 103.395 187.897C102.492 188.552 101.373 187.946 100.473 187.557C99.1501 186.983 97.7758 186.506 96.3669 186.072C94.8449 185.603 93.2903 185.195 91.7063 184.872C89.9738 184.519 88.071 184.449 86.4021 183.935C84.9355 183.483 84.3045 182.609 83.2419 181.793C82.1244 180.935 80.6083 180.608 79.0592 180.684C76.2383 180.824 74.3114 183.204 72.8213 184.857C68.6578 189.476 64.0557 193.411 58.4904 197.039C55.8313 198.772 52.834 200.246 50.2624 202.045C49.1779 202.804 48.3902 203.515 47.1058 204.08C45.4185 204.822 43.8874 205.753 42.2744 206.59C35.9653 209.863 31.3377 214.631 33.0824 220.856C33.8677 223.658 35.4364 225.625 38.3673 227.311C39.698 228.076 40.9157 228.713 42.6109 228.669C44.2114 228.627 45.6234 228.584 44.6806 227.097C45.8751 227.386 46.8749 228.098 48.1789 228.463C49.6813 228.883 51.636 229.145 53.231 229.171C55.7853 229.211 58.7896 228.16 61.0263 227.715C61.6514 227.59 62.8565 227.386 63.5688 226.927C64.1354 226.563 64.0125 226.131 64.8701 225.958C65.9939 225.731 66.4219 225.996 67.4982 225.465C69.0595 224.693 70.7527 224.235 72.3724 223.524C74.5545 222.566 76.6522 221.485 78.8138 220.499C79.102 221.119 80.7956 224.804 81.8417 223.027C82.7519 221.481 79.7966 220.157 81.5931 218.591C83.3071 217.099 83.6652 218.668 85.3278 219.361C87.6359 220.324 87.2896 218.526 86.6185 217.462C86.3503 217.036 85.786 216.394 85.9521 215.897C86.2725 214.939 87.2664 215.501 88.0478 215.599C89.2784 215.753 90.2731 215.489 91.197 214.845C91.9674 214.307 93.2416 213.843 93.7073 213.135C93.9402 212.78 93.981 212.293 94.1746 211.917C94.4303 211.42 94.6124 211.541 94.7055 210.925C94.6164 210.607 94.581 210.285 94.5991 209.958C94.8013 209.926 95.0028 209.895 95.2042 209.862C95.2105 209.84 95.2246 209.219 95.1433 209.311C95.3318 209.098 95.7367 209.007 95.9695 208.711C96.1835 208.438 95.9844 207.915 96.0704 207.593C96.2448 206.941 96.7199 206.415 97.1083 205.834C97.9297 208.547 97.6922 211.377 98.4771 214.091C99.1219 216.32 100.59 218.318 102.303 220.146C103.097 220.993 104.148 221.594 104.979 222.399C105.682 223.08 106.034 223.679 107.072 224.082C107.763 224.349 108.539 224.487 109.251 224.718C109.706 224.866 110.742 225.546 111.169 225.534C110.797 225.545 111.868 225.571 111.619 225.538C111.638 225.54 111.493 225.174 111.622 225.18C113.174 226.327 114.796 226.33 116.592 227.043C117.415 227.37 117.723 227.35 118.6 227.47C119.737 227.627 120.694 228.133 121.782 228.187C123.458 228.27 125.345 228.446 127.092 228.397C127.567 228.384 128.46 228.145 128.833 228.469C129.079 228.684 128.612 230.232 128.583 230.587C128.276 234.306 128.912 238.21 130.922 241.613C132.589 244.434 134.366 247.772 137.314 249.926C140.582 252.314 145.159 253.998 149.53 254.642C154.368 255.355 159.165 254.821 164.019 254.599C168.944 254.374 173.5 253.829 178.249 252.715C182.666 251.678 186.85 250.328 191.076 248.903C193.95 247.935 197.595 246.54 196.088 243.6C195.724 242.889 194.311 240.912 193.061 241.887C191.954 242.75 193.803 244.383 194.64 244.932C188.333 248.365 180.679 249.501 173.299 250.717C169.246 251.385 165.252 251.357 161.13 251.366C157.636 251.374 154.143 251.452 150.672 251.071C147.532 250.727 143.876 250.08 141.539 248.288C139.095 246.413 136.782 244.175 135.113 241.836C133.283 239.269 132.838 236.494 132.69 233.599C132.613 232.075 132.525 230.532 132.729 229.012C132.878 227.908 133.599 227.777 133.958 226.905C134.785 227.81 135.33 227.475 136.345 226.947C137.002 228.378 136.709 229.865 136.596 231.34C136.487 232.778 136.732 234.236 136.958 235.663C137.34 238.09 138.83 240.621 140.72 242.575C141.574 243.459 142.855 243.832 144.013 244.442C145.49 245.219 147.021 245.944 148.563 246.642C151.466 247.956 154.634 249.08 157.906 249.278C159.053 249.348 159.886 249.814 161.252 249.749C162.063 249.71 162.88 249.493 163.689 249.51C164.5 249.528 165.196 249.73 166.029 249.683C169.491 249.487 173.059 248.602 176.486 248.116C180.197 247.59 183.93 247.023 187.472 245.984C189.007 245.534 190.275 244.953 191.132 243.821C191.744 243.013 191.583 241.563 192.724 241.08C191.977 240.327 192.254 240.195 192.9 239.522C193.201 239.209 194.173 238.379 192.994 238.394C193.352 237.182 192.753 236.011 192.497 234.826C192.387 234.314 192.417 233.539 192.011 233.098C191.775 232.841 191.381 232.836 191.169 232.647C190.95 232.643 190.779 232.572 190.657 232.434C190.642 232.232 190.763 232.108 191.02 232.064C190.961 231.663 191.341 231.807 190.961 231.181C190.443 230.326 189.46 229.582 188.53 229C187.737 228.505 187.153 227.625 186.238 227.361C185.047 227.017 183.797 226.643 182.546 226.324C179.709 225.6 176.896 225.323 173.919 225.725C172.556 225.908 171.212 226.134 169.896 226.463C169.125 226.656 167.947 227.175 167.265 226.615C167.03 226.423 166.541 224.789 166.571 224.613C166.694 223.904 168.547 223.618 169.223 223.371C170.257 222.993 172.17 222.589 172.826 221.839C173.102 221.525 172.791 220.189 172.836 220.165C173.269 219.937 175.089 223.18 175.584 223.401C176.301 223.721 178.315 223.298 179.055 223.235C181.266 223.045 183.512 222.937 185.677 222.526C189.828 221.737 193.904 220.516 197.944 219.437C205.629 217.385 213.049 214.681 219.958 211.321C223.185 209.752 226.39 207.747 228.845 205.469C229.953 204.441 230.735 203.223 231.866 202.215C233.17 201.052 232.759 200.004 233.344 198.548C234.528 195.601 235.965 192.924 236.61 189.836C237.273 186.656 237.547 183.41 237.363 180.19C236.999 173.828 236.604 167.796 233.022 161.95C229.739 156.592 225.486 151.358 220.428 146.922C219.253 145.891 218.011 144.909 216.566 144.107C215.012 143.244 213.301 142.566 211.893 141.546C210.738 140.709 209.773 139.723 208.565 138.929C207.082 137.954 205.318 137.523 203.581 136.901C201.916 136.304 200.398 135.528 198.695 134.985C197.659 134.655 196.61 134.35 195.53 134.12C194.732 133.949 193.671 133.938 192.941 133.615C191.786 133.103 190.605 131.613 189.85 130.771C188.75 129.543 188.153 128.114 187.63 126.686C186.993 124.949 186.4 123.201 185.778 121.461C185.564 120.866 184.769 118.796 186.356 119.299C186.82 119.446 187.255 120.099 187.613 120.378C188.291 120.907 189.128 121.38 189.968 121.74C191.325 122.321 192.737 123.021 194.037 123.421C195.184 123.774 196.362 124.465 197.431 124.962C197.593 125.038 197.641 125.298 197.85 125.371C198.342 125.541 198.67 125.071 199.136 125.186C199.771 125.343 199.875 125.811 200.228 126.182C200.739 126.722 201.004 126.764 201.785 127.042C202.653 127.35 203.291 127.96 204.138 128.263C205.167 128.63 207.431 128.345 207.586 129.61C209.184 128.795 211.19 130.378 212.188 131.199C213.192 129.996 214.971 131.405 216.491 131.005C215.65 131.918 215.803 131.827 217.13 131.94C218.251 132.036 218.921 132.617 220.029 132.954C220.796 133.188 221.643 133.58 222.44 133.745C223.194 133.901 223.765 133.552 224.421 133.639C224.873 133.699 225.303 134.005 225.734 134.088C226.28 134.194 227.057 134.323 227.674 134.437C228.424 134.576 229.171 134.448 229.919 134.559C230.792 134.688 231.546 135.094 232.433 135.226C233.422 135.373 234.45 135.275 235.433 135.462C236.328 135.632 236.873 135.828 237.801 135.835C239.185 135.846 240.73 135.989 242.096 135.867C242.824 135.802 243.227 135.514 244.051 135.796C244.6 135.984 244.929 136.564 245.678 136.298C244.888 136.051 245.582 135.088 246.453 135.825C246.659 135.412 246.792 135.181 247.365 135.045C247.337 135.45 247.252 135.856 247.913 135.941C247.964 135.659 248.015 135.378 248.066 135.096C249.503 135.95 249.844 136.252 251.2 135.209C251.164 135.551 250.98 135.937 251.424 136.179C251.708 135.809 251.993 135.44 252.278 135.071C252.758 136.262 255.053 135.851 256.165 135.64C256.596 135.558 257.788 135.429 258.069 135.153C258.264 134.962 258.24 134.812 258.313 134.694C258.377 134.59 257.646 134.334 258.268 134.185C258.736 134.071 259.102 134.873 259.652 134.842C260.143 134.813 260.341 134.165 260.694 134.033C260.728 134.021 260.967 134.295 261.133 134.235C261.391 134.142 261.538 133.896 261.823 133.809C262.44 133.621 263.238 133.667 263.929 133.444C264.805 133.161 265.688 133.026 266.583 132.792C267.717 132.496 268.231 131.915 269.152 131.439C269.368 131.328 269.592 131.393 269.804 131.314C270.09 131.208 270.389 130.959 270.729 130.841C271.795 130.472 272.705 130.221 273.716 129.712C274.618 129.258 275.808 128.923 276.611 128.378C277.279 127.924 277.639 127.262 278.311 126.801C279.276 126.138 281.769 125.307 281.364 124.013C282.978 124.205 283.373 123.39 283.965 122.49C284.529 121.634 285.684 121.378 286.439 120.598C286.765 120.26 287.291 119.793 287.471 119.408C287.578 119.179 287.309 118.94 287.382 118.784C287.717 118.065 289.008 117.751 289.606 117.102C290.367 116.277 290.611 115.234 291.245 114.387C291.37 114.22 291.678 114.121 291.797 113.943C291.873 113.829 291.714 113.546 291.807 113.433C292.028 113.167 292.376 113.075 292.598 112.828C293.136 112.231 293.234 111.382 293.718 110.705C293.837 110.538 294.251 110.072 294.304 109.973C294.478 109.639 294.425 109.42 294.516 109.049C294.542 108.937 294.819 108.292 294.875 108.199C295.053 107.911 295.224 107.869 295.496 107.552C296.175 106.761 296.596 105.517 296.652 104.556C296.676 104.149 296.502 103.727 296.691 103.338C296.854 103.002 297.357 102.795 297.546 102.443C298.043 101.519 297.962 100.214 298.099 99.2259C298.248 98.1492 298.689 97.0879 298.811 96.0192C298.87 95.5019 298.559 95.0437 298.582 94.5564C298.608 93.9983 298.979 93.8941 299.122 93.4298C299.285 92.8996 299.046 92.2888 299.192 91.7203C299.328 91.1913 299.525 90.7019 299.581 90.1594C299.728 88.7466 299.521 87.2684 299.442 85.855C299.412 85.3064 299.318 84.7342 299.504 84.1972C299.654 83.7651 300.265 83.2818 300.245 82.8132C300.182 81.3648 298.698 82.6183 297.845 82.519C296.853 82.4034 296.671 80.6663 296.409 80.0074C295.771 78.3978 295.132 76.7882 294.493 75.1789C297.538 74.5601 300.703 74.7385 303.812 74.5715C306.866 74.4075 309.848 73.8902 312.809 73.3076C315.31 72.816 318.046 72.5307 320.292 71.4807C322.179 70.5993 323.735 68.6485 322.633 66.9274Z" fill="black"/>
<path fill-rule="evenodd" clip-rule="evenodd" d="M26.9838 98.0857C28.2014 97.5917 27.8944 96.9089 28.7889 96.2745C33.7938 92.7243 39.6678 89.6243 45.5547 87.0646C51.7569 84.3676 58.7161 83.2257 65.0554 80.8358C65.9083 80.5143 67.016 80.0117 66.6979 79.1162C66.3261 78.0699 65.0495 78.5513 64.1397 78.7983C61.1075 79.6212 57.8805 79.9311 54.8052 80.6541C48.2405 82.1972 42.0929 84.8583 36.5319 87.973C33.2967 89.7846 30.1974 91.7877 27.4345 94.0378C26.4171 94.8659 25.0605 95.8322 24.7958 97.0253C24.4679 98.5019 25.5862 98.6527 26.9838 98.0857Z" fill="black"/>
<path fill-rule="evenodd" clip-rule="evenodd" d="M45.9419 190.912C45.9128 189.607 44.092 190.082 43.1555 190.257C39.3474 190.97 35.9433 191.516 32.5734 193.169C26.319 196.235 21.5803 200.892 18.5143 206.047C18.1059 206.733 16.4622 208.907 17.7796 209.554C18.6482 209.981 19.1752 208.738 19.4995 208.276C21.1507 205.928 23.3618 203.849 25.5851 201.809C30.521 197.279 36.4546 194.403 43.5537 192.304C44.4246 192.046 45.9639 191.861 45.9419 190.912Z" fill="black"/>
<path fill-rule="evenodd" clip-rule="evenodd" d="M256.405 158.862C255.088 156.793 252.958 154.241 250.011 153.389C248.38 152.917 247.415 153.697 247.9 155.001C248.284 156.037 249.569 156.544 250.528 157.231C252.997 159 254.518 161.641 255.419 164.093C256.372 166.686 256.562 169.499 256.545 172.183C256.536 173.6 256.052 174.831 255.789 176.21C255.685 176.753 255.509 177.948 256.307 178.286C258.076 179.036 258.894 175.119 259.074 174.366C259.74 171.588 259.675 169.03 259.115 166.256C258.602 163.72 257.883 161.182 256.405 158.862Z" fill="black"/>
<path fill-rule="evenodd" clip-rule="evenodd" d="M251.345 59.4663C252.065 58.7088 251.54 57.6485 251.754 56.7848C251.978 55.8797 252.648 54.964 253.214 54.1722C254.437 52.4627 255.801 50.784 257.255 49.1896C258.756 47.543 260.587 46.1401 262.182 44.5581C262.722 44.0229 263.678 43.258 263.445 42.6139C263.068 41.571 262.246 42.0793 261.587 42.5164C257.986 44.9062 254.815 47.8529 252.254 50.9478C251.039 52.4167 249.89 54.0253 249.488 55.7677C249.28 56.6676 249.278 57.6066 249.62 58.4877C249.835 59.0414 250.48 60.3764 251.345 59.4663Z" fill="black"/>
<path fill-rule="evenodd" clip-rule="evenodd" d="M29.4443 186.944C31.2486 186.814 33.0631 186.768 34.8717 186.695C36.2103 186.642 37.7162 186.706 38.9449 186.203C40.1814 185.697 39.6438 184.938 38.6158 184.826C38.0249 184.761 37.0275 185.073 36.3941 185.094C35.7081 185.117 35.0186 185.101 34.3322 185.103C32.3261 185.109 30.1644 185.097 28.2301 185.617C27.5983 185.787 26.6414 186.05 26.3814 186.613C25.8258 187.819 28.6075 187.005 29.4443 186.944Z" fill="black"/>
<path fill-rule="evenodd" clip-rule="evenodd" d="M45.2433 76.6316C47.8636 76.3864 50.3963 75.7735 52.9777 75.3827C55.4323 75.0116 55.8501 73.5013 52.9444 73.569C51.9686 73.5917 42.5618 74.9846 45.2433 76.6316Z" fill="black"/>
<path fill-rule="evenodd" clip-rule="evenodd" d="M261.763 152.381C260.003 152.037 260.914 153.561 261.458 154.032C262.466 154.904 263.016 155.556 263.316 156.718C263.49 157.394 263.327 158.922 264.062 159.439C264.787 159.948 264.837 159.61 264.965 158.981C265.328 157.21 264.603 152.936 261.763 152.381Z" fill="black"/>
<path fill-rule="evenodd" clip-rule="evenodd" d="M242.438 55.9354C242.936 55.5229 242.401 53.7287 242.46 53.2029C242.532 52.5658 242.725 52.0266 242.969 51.4288C243.087 51.1389 243.681 50.1156 243.361 49.7979C242.918 49.3575 242.18 50.1017 241.946 50.3947C241.187 51.3481 241.01 52.9378 241.136 54.0114C241.181 54.4 241.483 56.7247 242.438 55.9354Z" fill="black"/>
<path fill-rule="evenodd" clip-rule="evenodd" d="M138.785 207.231C138.868 206.215 140.122 205.51 140.126 204.43C140.13 203.216 139.083 202.69 137.78 203.479C136.994 203.955 136.381 205.114 135.318 205.266C133.186 205.571 132.349 202.581 130.248 202.927C128.43 203.227 129.386 205.665 129.934 206.487C130.516 207.359 131.572 207.971 131.228 209.044C130.82 210.317 129.419 211.052 129.964 212.506C130.976 215.207 133.174 212.681 134.495 211.832C135.437 211.227 136.006 211.335 136.921 211.928C138.173 212.741 139.131 213.293 140.65 213.84C141.99 214.323 143.282 214.66 143.323 213.04C143.356 211.765 142.123 210.497 141.041 209.633C140.143 208.915 138.693 208.362 138.785 207.231Z" fill="black"/>
<path fill-rule="evenodd" clip-rule="evenodd" d="M115.31 203.201C113.742 201.896 111.763 205.224 110.496 205.592C108.443 206.188 107.97 202.99 106.08 203.091C104.608 203.169 104.724 204.815 105.045 205.565C105.39 206.373 106.422 207.034 106.594 207.862C106.86 209.131 103.784 211.668 105.931 212.893C107.763 213.94 108.446 210.404 110.737 211.846C111.861 212.554 115.008 215.19 116.567 213.878C118.41 212.329 114.028 209.682 113.228 208.503C112.146 206.907 117.607 205.112 115.31 203.201Z" fill="black"/>
<path fill-rule="evenodd" clip-rule="evenodd" d="M153.285 157.88C152.835 157.725 152.109 157.981 151.623 157.965C151.1 157.948 150.556 157.763 150.041 157.694C148.922 157.545 146.953 157.761 146.159 156.982C145.348 156.188 145.965 154.593 145.618 153.626C145.43 153.101 145.212 152.452 144.305 152.687C143.253 152.959 143.278 154.467 143.153 155.128C142.968 156.104 142.818 156.849 141.562 157.196C140.631 157.453 139.652 157.323 138.9 157.92C138.348 158.357 137.976 159.155 138.408 159.727C139.056 160.585 140.459 160.14 141.433 160.412C142.917 160.825 142.564 162.719 142.869 163.806C143.064 164.504 143.492 166.46 144.777 166.428C146.529 166.386 145.849 163.638 145.752 162.836C145.653 162.022 145.419 161.332 146.582 161.079C147.565 160.866 148.938 161.262 149.953 161.257C151.235 161.251 152.746 161 153.519 160.103C153.961 159.59 154.241 158.209 153.285 157.88Z" fill="black"/>
<path fill-rule="evenodd" clip-rule="evenodd" d="M217.673 191.699C220.459 191.887 218.77 194.566 220.619 195.631C222.383 196.647 222.62 193.843 222.619 193.042C222.618 191.102 225.641 191.819 227.481 191.498C229.052 191.224 230.767 189.951 228.891 188.867C227.538 188.084 225.293 188.447 223.722 188.24C221.592 187.959 222.225 186.849 222.178 185.57C222.161 185.101 221.954 183.43 221.178 183.298C219.757 183.057 219.672 186.17 219.577 186.763C219.171 189.269 216.965 187.742 215.213 188.999C212.922 190.641 216.013 191.587 217.673 191.699Z" fill="black"/>
<path fill-rule="evenodd" clip-rule="evenodd" d="M85.1758 144.965C80.8235 147.749 75.881 147.35 71.8977 144.353C70.2132 143.085 69.1954 141.808 69.3462 139.953C69.4812 138.284 70.1091 136.44 71.8215 135.312C73.2634 134.362 75.9831 134.021 77.809 133.888C80.368 133.703 82.6577 134.79 84.4278 136.149C85.9694 137.332 87.7714 138.84 88.0089 140.597C88.2591 142.445 86.9099 143.855 85.1758 144.965ZM85.8379 133.885C81.9336 130.95 75.0104 131.245 70.9797 133.921C66.4553 136.925 65.6818 142.567 70.0298 145.858C74.6119 149.326 80.6605 148.952 85.5108 146.075C88.1126 144.533 89.5243 142.552 89.8867 140.012C90.2287 137.611 87.9728 135.489 85.8379 133.885Z" fill="black"/>
<path fill-rule="evenodd" clip-rule="evenodd" d="M161.33 83.3741C160.892 84.4853 161.195 85.6692 161.273 86.8014C160.035 86.197 159.265 85.1194 157.936 84.6186C157.299 85.9929 160.474 89.9234 162.473 88.635C164.302 87.456 162.952 84.166 161.33 83.3741Z" fill="black"/>
<path fill-rule="evenodd" clip-rule="evenodd" d="M167.824 90.1505C166.839 90.4371 165.923 90.3577 164.951 90.5045C164.311 90.6014 164.228 90.317 164.144 90.8898C163.968 92.1123 166.495 92.5852 167.633 92.568C169.022 92.5469 170.545 91.8178 170.41 90.6308C170.271 89.3942 168.895 89.8392 167.824 90.1505Z" fill="black"/>
<path fill-rule="evenodd" clip-rule="evenodd" d="M168.631 85.0124C168.185 84.6956 167.155 83.4991 166.399 83.7038C165.82 83.8607 166.229 84.401 166.399 84.6713C167.035 85.6852 168.284 86.5479 169.281 87.3613C168.542 87.566 167.119 87.6978 167.495 88.5853C167.841 89.4006 169.406 89.2752 170.157 88.932C172.727 87.756 169.917 85.9236 168.631 85.0124Z" fill="black"/>
<path fill-rule="evenodd" clip-rule="evenodd" d="M171.226 83.0878C171.402 83.6477 171.496 84.1761 171.108 84.7011L168.968 81.7047C167.246 82.2563 170.266 86.5733 172.025 86.0955C173.241 85.7651 172.657 83.736 172.465 83.0976C172.362 82.7559 172.118 81.6691 171.51 81.5588C170.316 81.3418 171.096 82.675 171.226 83.0878Z" fill="black"/>
<path fill-rule="evenodd" clip-rule="evenodd" d="M82.9195 143.525C81.9268 142.954 80.2815 144.291 79.2319 144.296C77.1103 144.305 78.2656 142.363 76.938 141.734C76.2457 141.405 73.347 141.736 73.8048 140.377C74.0801 139.559 75.1572 140.149 75.7474 139.65C76.4879 139.024 75.4325 138.524 74.7755 138.267C75.0637 137.967 76.7247 137.835 77.1421 138.043C77.8623 138.402 77.8207 139.478 78.4815 140.032C79.3391 139.178 78.8738 138.104 79.7872 137.337C80.1417 137.039 81.1792 136.815 80.7759 136.283C80.5419 135.974 79.5174 136.076 79.1667 135.831C78.8609 135.616 78.8762 134.926 78.3822 134.868C77.5753 134.774 77.5949 135.737 77.3526 136.015C76.6234 136.85 73.4196 136.562 74.7476 138.256C73.863 137.912 71.4496 137.639 71.9181 138.842C72.0378 139.15 72.4941 139.338 72.6072 139.688C72.7054 139.992 72.4894 140.425 72.469 140.73C72.4305 141.309 72.3712 141.985 72.9194 142.45C73.6729 143.089 74.6797 142.624 75.4878 142.902C76.5893 143.281 76.1923 144.068 76.773 144.757C77.5336 145.657 78.703 145.381 79.7797 145.108C81.0637 144.783 81.2667 144.754 82.206 145.588C82.6356 145.155 83.8124 144.039 82.9195 143.525Z" fill="black"/>
<path fill-rule="evenodd" clip-rule="evenodd" d="M84.6461 140.008C83.6103 139.858 84.0183 137.449 82.7578 138.496C82.285 138.888 82.7692 139.654 82.2418 140.074C81.8876 140.357 81.4384 140.19 81.0842 140.375C80.7654 140.541 80.6849 140.86 80.4972 141.103C81.1636 141.337 81.6787 141.368 82.3903 141.266C82.3903 141.684 82.0341 142.915 82.9486 142.826C83.7992 142.742 83.5588 141.506 83.9919 141.122C84.4313 140.731 86.2031 140.912 86.368 140.363C86.5718 139.683 85.0989 140.073 84.6461 140.008Z" fill="black"/>
</svg>
