<svg width="325" height="279" viewBox="0 0 325 279" fill="none" xmlns="http://www.w3.org/2000/svg">
<path fill-rule="evenodd" clip-rule="evenodd" d="M141.93 23.9999C167.74 27.3967 193.53 16.869 218.099 25.4823C249.526 36.4997 285.646 48.87 299.442 79.2187C313.481 110.102 297.729 145.488 287.332 177.784C276.911 210.157 267.685 245.97 239.603 265.101C211.81 284.035 175.488 278.776 141.93 276.838C110.342 275.014 77.0712 273.751 52.1128 254.274C27.5441 235.102 18.2176 203.507 9.56243 173.543C1.18157 144.529 -3.60371 114.766 3.3242 85.3704C10.7132 54.0181 20.2607 16.3426 49.6805 3.31643C79.2235 -9.76429 109.904 19.7848 141.93 23.9999Z" fill="#F7F7F7"/>
<path fill-rule="evenodd" clip-rule="evenodd" d="M171.135 111.582C170.884 111.246 170.437 111.646 170.624 111.889C170.794 111.787 170.964 111.685 171.135 111.582ZM178.047 113.452C177.766 113.322 177.67 113.527 177.56 113.763C177.527 113.833 177.494 113.905 177.454 113.972C177.706 114.101 177.822 113.874 177.94 113.645C177.975 113.578 178.009 113.511 178.047 113.452ZM173.179 105.377C172.615 104.707 172.574 104.931 172.527 105.695C172.636 105.642 172.745 105.589 172.854 105.535C172.962 105.483 173.071 105.43 173.179 105.377ZM250.305 69.1428C249.594 69.4524 249.518 69.6773 250.093 70.0561C250.161 69.7614 250.211 69.5454 250.305 69.1428ZM170.885 100.381C171.052 100.893 171.74 101.003 171.74 100.381H170.885ZM224.137 74.0011C224.547 74.1224 224.756 74.1846 224.94 74.1453C225.132 74.1046 225.298 73.9539 225.635 73.646C225.469 73.6856 225.32 73.7211 225.177 73.7548C225.062 73.782 224.951 73.8081 224.839 73.8348C224.624 73.8858 224.403 73.938 224.137 74.0011ZM205.128 126.473C204.885 126.155 204.643 125.837 204.401 125.519C204.319 125.752 204.237 125.987 204.155 126.221L204.155 126.222L204.094 126.395C204.439 126.421 204.783 126.447 205.128 126.473ZM254.245 61.3171C254.149 61.7422 254.101 61.9525 254.191 62.0727C254.28 62.1902 254.5 62.2216 254.935 62.2841L254.608 61.8264L254.568 61.7689C254.468 61.6294 254.363 61.4834 254.245 61.3171ZM250.399 62.6471C250.369 62.5087 250.339 62.37 250.309 62.2316L250.304 62.2105C250.276 62.0791 250.247 61.9478 250.218 61.8161C250.167 62.0275 249.97 62.0161 249.779 62.0047C249.614 61.995 249.453 61.9856 249.392 62.1184C249.089 62.7758 250.052 62.6866 250.399 62.6471ZM177.165 111.696C176.954 111.307 176.907 111.277 176.447 111.195C176.565 111.583 176.565 111.886 176.564 112.275V112.355C177.317 112.256 177.553 112.205 177.567 111.46L177.165 111.696ZM174.97 113.07C174.87 113.415 174.589 113.331 174.349 113.26C174.132 113.195 173.948 113.141 173.965 113.424C173.956 113.261 174.829 114.335 174.779 114.301C175.218 114.609 175.474 114.58 175.972 114.226C175.262 114.201 175.18 113.871 175.07 113.428C175.042 113.315 175.012 113.195 174.97 113.07ZM255.88 62.3251C255.725 62.6564 255.57 62.988 255.415 63.3193L255.381 63.3926C255.238 63.6996 255.094 64.0066 254.951 64.3133C254.886 64.4526 254.836 64.5754 254.792 64.6815C254.586 65.1841 254.53 65.3204 253.778 65.1002C253.803 65.0592 253.865 64.978 253.942 64.8762V64.8759C254.174 64.5695 254.548 64.0767 254.507 63.9274C254.468 63.787 254.097 63.6134 253.761 63.4563C253.553 63.3589 253.359 63.268 253.265 63.195C252.992 62.9839 252.893 62.7916 252.788 62.5881C252.726 62.4685 252.662 62.3445 252.56 62.2108C252.67 61.8754 252.584 61.7185 252.303 61.7411C252.222 61.9437 252.141 62.146 252.06 62.3483L252.055 62.3612L251.992 62.5183C252.007 62.83 252.173 62.949 252.368 63.0889C252.518 63.1965 252.686 63.3161 252.814 63.5451L252.838 63.5888C253.025 63.9204 253.078 64.016 253.048 64.0764C253.037 64.1007 253.011 64.1192 252.974 64.1453C252.899 64.1995 252.779 64.286 252.643 64.5244C252.518 64.744 252.432 64.9847 252.347 65.2187C252.187 65.664 252.035 66.0859 251.643 66.2959C251.964 66.4269 252.284 66.558 252.605 66.6888C251.857 67.4534 253.413 67.0811 253.671 67.0069L253.67 67.0083L253.669 67.0098C253.406 67.5293 253.144 68.0486 252.881 68.5681C252.297 68.2641 251.932 67.7583 251.569 67.2552C251.442 67.0784 251.314 66.9016 251.177 66.7342C250.777 67.4261 250.377 68.1184 249.977 68.8106C250.16 68.7951 250.342 68.7792 250.524 68.7637C250.74 68.7452 250.956 68.7268 251.171 68.708C251.158 68.7303 251.123 68.7816 251.076 68.8493L251.075 68.8496C250.913 69.0821 250.616 69.509 250.649 69.6242C250.73 69.8984 251.049 69.979 251.362 70.0579C251.743 70.154 252.114 70.2476 252.032 70.6833C252.013 70.785 250.799 71.9246 250.591 72.0346C250.719 72.0883 250.832 72.1258 250.929 72.1583C251.295 72.2794 251.431 72.3246 251.258 72.8538C250.974 72.6946 250.691 72.5351 250.408 72.3756C250.355 72.4644 250.3 72.5527 250.245 72.6412L250.245 72.6415C250.05 72.9546 249.854 73.2698 249.734 73.614C249.763 73.9028 249.708 74.1764 249.568 74.435C249.401 74.6663 249.213 74.8821 249.003 75.0821C248.838 75.4882 248.785 77.7047 248.984 78.0662C249.43 77.5306 250.425 78.4761 248.745 78.4761C248.605 78.4761 248.493 78.4711 248.402 78.4667C248.016 78.4488 248.005 78.4483 247.777 78.9353C247.556 79.4088 247.436 79.8219 248.064 79.8673C247.685 80.5622 247.676 81.129 247.664 81.8027C247.662 81.9675 247.659 82.1387 247.65 82.3196C247.624 82.8975 247.483 83.4725 247.343 84.0424C247.303 84.209 247.262 84.3749 247.224 84.5406C247.299 84.4409 247.373 84.3412 247.448 84.2412C247.523 84.1415 247.597 84.0419 247.672 83.9419C248.002 84.5972 247.855 85.1677 247.686 85.8233C247.649 85.9667 247.611 86.1145 247.577 86.2678C247.337 85.9731 247.218 86.1493 247.093 86.3352C247 86.473 246.903 86.6161 246.751 86.5757C246.32 86.4613 246.335 86.3648 246.357 86.2133C246.373 86.1083 246.393 85.9769 246.272 85.7949C246.216 85.711 246.173 85.6401 246.136 85.5779C246.003 85.3557 245.939 85.2478 245.568 85.0636C245.117 84.8399 244.423 84.7704 243.803 84.7086C243.558 84.684 243.325 84.6608 243.123 84.6294C241.942 84.4462 240.76 84.3984 239.565 84.35L239.517 84.348C234.985 84.165 230.469 84.1181 225.937 84.35C221.768 84.5635 217.498 85.1076 213.409 85.8447C213.118 85.8972 212.827 85.9497 212.537 86.0019C208.487 86.729 204.518 87.4418 200.584 88.6802C200.222 88.7946 199.859 88.964 199.496 89.1332V89.1335C199.044 89.3446 198.592 89.5557 198.14 89.6598C197.822 89.7334 197.503 89.7762 197.183 89.8196C196.725 89.8811 196.262 89.9433 195.788 90.0964C194.721 90.4412 193.634 90.7399 192.547 91.0387C191.668 91.28 190.789 91.5216 189.921 91.7872C189.365 91.9576 188.797 92.1203 188.225 92.2842C186.643 92.7375 185.031 93.199 183.567 93.8507C183.129 94.0463 182.71 94.277 182.292 94.5078C181.885 94.7324 181.477 94.9572 181.051 95.1496C180.872 95.2305 180.666 95.3097 180.45 95.3929C179.679 95.6896 178.77 96.0397 178.434 96.7029C178.266 97.0342 178.295 97.2744 178.399 97.6177C178.592 98.2534 178.748 98.2393 179.216 98.1968C179.256 98.193 179.297 98.1894 179.342 98.1856C179.839 98.1449 180.429 97.9027 180.989 97.6728C181.319 97.5374 181.638 97.4063 181.923 97.3228C184.024 96.7065 186.151 96.213 188.288 95.7193C189.901 95.3466 191.517 94.8529 193.13 94.3603C195.353 93.6813 197.571 93.004 199.766 92.6477C200.894 92.4648 201.992 92.1238 203.092 91.7825C204.182 91.4442 205.274 91.1052 206.398 90.9191C206.559 90.8924 206.82 90.8047 207.112 90.7065C207.718 90.5027 208.46 90.2532 208.734 90.4066C208.806 90.447 208.948 90.7839 209.062 91.0542C209.119 91.1876 209.168 91.3049 209.199 91.3618C209.532 91.9822 209.915 92.5812 210.362 93.1368C211.354 94.3668 212.593 95.4211 213.821 96.466L213.822 96.4663C214.266 96.8446 214.709 97.2216 215.139 97.6051C216.494 98.8157 217.719 100.118 218.948 101.425V101.425C219.394 101.899 219.84 102.373 220.293 102.844C220.373 102.757 220.453 102.671 220.533 102.584L220.736 102.365C220.593 103.394 221.344 104.159 222.037 104.866C222.066 104.896 222.096 104.925 222.125 104.955C222.155 104.986 222.185 105.017 222.215 105.048C223.088 105.95 223.79 106.798 224.478 107.826C224.87 108.41 225.337 108.944 225.799 109.473C226.004 109.707 226.208 109.94 226.404 110.176C226.769 110.615 227.063 111.108 227.358 111.603C227.571 111.96 227.784 112.317 228.026 112.658C228.531 113.371 229.033 114.089 229.534 114.806C230.35 115.973 231.165 117.139 231.992 118.282C232.622 119.15 233.119 120.128 233.617 121.117C233.736 121.354 233.927 121.665 234.137 122.005V122.005C234.621 122.793 235.201 123.736 235.201 124.268C235.173 124.393 235.251 124.728 235.333 125.078C235.496 125.774 235.674 126.53 235.056 125.827C235.014 125.888 234.972 125.948 234.93 126.008L234.869 126.097C234.828 126.156 234.787 126.215 234.746 126.274C234.701 126.338 234.656 126.403 234.611 126.468C234.865 126.368 235.119 126.269 235.373 126.17C234.887 126.58 235.279 126.765 235.644 126.936C235.858 127.037 236.062 127.133 236.074 127.267C236.015 127.32 235.956 127.372 235.898 127.425L235.689 127.613C235.47 128.033 235.184 128.088 234.834 127.776C234.673 127.786 234.566 127.756 234.464 127.728C234.322 127.689 234.191 127.653 233.939 127.731C234.118 127.991 234.32 128.067 234.507 128.137C234.751 128.228 234.971 128.311 235.089 128.777C235.237 129.363 234.889 129.579 234.428 129.865C234.304 129.942 234.172 130.023 234.04 130.119V130.118L234.023 130.116C234.057 129.657 233.817 129.319 233.384 129.105V130.007C233.503 130.027 233.622 130.048 233.741 130.068L233.744 130.068L234.023 130.116C234.023 130.121 234.022 130.127 234.022 130.132L234.04 130.119C233.938 130.482 233.639 130.415 233.282 130.336C233.219 130.322 233.155 130.307 233.09 130.295C232.32 130.147 231.488 129.897 230.701 129.659C230.454 129.585 230.212 129.512 229.977 129.444C227.849 128.826 225.704 128.305 223.504 127.883C219.768 127.165 216.055 127.007 212.312 126.847H212.311C211.024 126.792 209.733 126.737 208.437 126.659C208.444 126.633 208.45 126.609 208.456 126.585C208.52 126.339 208.546 126.239 208.53 126.145C208.519 126.08 208.488 126.019 208.437 125.915C208.429 125.9 208.422 125.884 208.413 125.867C208.493 126.03 208.35 126.044 208.204 126.058C207.983 126.08 207.758 126.102 208.314 126.649C206.86 126.87 205.334 126.852 203.817 126.834C202.878 126.823 201.943 126.812 201.03 126.857C201.055 126.806 201.087 126.753 201.118 126.701C201.23 126.514 201.344 126.325 201.158 126.195C200.348 127.285 198.179 127.259 196.328 127.237C195.596 127.228 194.913 127.22 194.384 127.282C193.745 127.356 193.11 127.471 192.476 127.585C192.022 127.667 191.568 127.749 191.112 127.817C191.036 127.828 190.959 127.839 190.883 127.85C190.422 127.917 189.96 127.984 189.51 128.097C189.346 128.139 189.144 128.223 188.931 128.313C188.52 128.486 188.067 128.677 187.765 128.6C188.228 127.732 188.002 127.983 187.784 128.226C187.686 128.334 187.59 128.441 187.557 128.446C187.494 128.455 187.422 128.465 187.342 128.477C187.025 128.525 186.6 128.589 186.234 128.589C186.449 127.786 186.727 127.01 187.005 126.233C187.402 125.127 187.797 124.021 188.009 122.843C188.036 122.691 188.069 122.528 188.104 122.357V122.356C188.355 121.12 188.689 119.471 187.522 118.693C186.944 118.307 186.072 118.161 185.316 118.035H185.316C185.12 118.002 184.933 117.971 184.76 117.937C184.472 117.88 184.118 117.842 183.742 117.802C182.91 117.713 181.973 117.612 181.419 117.277C181.183 117.135 181.017 116.996 180.858 116.864C180.595 116.643 180.35 116.44 179.838 116.259C179.65 116.192 179.483 116.126 179.327 116.065C178.696 115.816 178.263 115.645 177.495 115.862C177.557 115.789 177.623 115.72 177.687 115.652C178.025 115.298 178.308 115.002 177.665 114.612C177.541 114.537 177.368 114.532 177.199 114.527C176.942 114.52 176.694 114.513 176.628 114.263C176.212 114.536 176.173 114.771 176.122 115.079C176.104 115.191 176.084 115.312 176.043 115.449C176.057 115.665 176.118 115.872 176.227 116.068L175.842 116.212L175.326 116.405C175.44 116.12 175.286 116.107 175.12 116.092C175.007 116.083 174.89 116.072 174.845 115.978C174.721 115.718 174.743 115.358 174.763 115.033C174.77 114.919 174.777 114.809 174.777 114.71C174.158 114.892 173.51 115.117 173.239 115.717C172.639 115.384 172.703 115.297 172.948 114.961C173.013 114.873 173.09 114.768 173.171 114.637C172.534 114.496 172.399 114.801 172.303 115.292C172.062 115.223 171.82 115.153 171.579 115.084L171.572 115.082L171.295 115.002C172.052 114.997 172.234 114.447 172.252 113.849C172.125 113.887 171.999 113.926 171.872 113.964L171.867 113.965C171.701 114.016 171.535 114.066 171.368 114.116L171.187 114.985C170.765 115.317 169.729 114.801 169.25 114.563L169.249 114.562C169.202 114.539 169.16 114.518 169.124 114.501L169.002 114.442C167.73 113.829 167.266 113.606 167.452 112.154C167.519 111.637 167.618 111.12 167.717 110.601C167.859 109.861 168.002 109.119 168.048 108.377C168.126 107.14 167.998 105.828 167.876 104.577C167.86 104.41 167.844 104.245 167.828 104.08C167.734 103.081 167.618 102.086 167.502 101.092V101.092C167.305 99.3995 167.108 97.7095 167.017 95.9996C166.996 95.6061 166.975 95.2126 166.953 94.8189L166.953 94.8186C166.894 93.7425 166.835 92.6665 166.79 91.5899C166.782 91.397 166.763 91.2011 166.745 91.0076C166.652 90.0289 166.566 89.1182 167.874 89.0315C167.682 88.4656 168.256 87.8112 168.848 87.5013C169.055 87.0624 169.281 87.0231 169.527 87.384C169.74 87.4464 169.939 87.4171 170.122 87.2955C170.65 87.1843 171.241 86.7155 171.798 86.274C172.152 85.9931 172.492 85.7233 172.793 85.5635C172.999 85.4545 173.271 85.3316 173.569 85.1973H173.569C174.369 84.8367 175.354 84.3919 175.749 83.8979C176.043 83.5311 175.924 83.3927 175.79 83.2367C175.685 83.1136 175.57 82.9799 175.641 82.7148C175.846 81.9455 176.558 82.9318 176.748 83.1948C176.76 83.2124 176.771 83.2271 176.778 83.2373C176.863 83.1579 177.025 83.0561 177.205 82.9427C177.589 82.7011 178.057 82.4061 178.049 82.1598L177.302 82.0358C177.382 81.993 177.49 81.925 177.612 81.849C177.904 81.6658 178.271 81.4356 178.495 81.3949C178.61 81.3741 178.691 81.3518 178.752 81.3351C178.826 81.3145 178.87 81.3022 178.908 81.3116C178.962 81.3245 179.005 81.3811 179.107 81.518C179.148 81.5726 179.198 81.6397 179.262 81.7218C179.304 81.6611 179.363 81.5611 179.431 81.4459V81.4456C179.606 81.1506 179.841 80.754 180.005 80.6505C180.069 80.61 180.319 80.5774 180.542 80.5487C180.698 80.5282 180.841 80.5097 180.897 80.4912C181.289 80.3625 181.441 80.1476 181.588 79.9406C181.705 79.775 181.819 79.614 182.049 79.5061C182.183 79.4434 182.335 79.4656 182.478 79.4871C182.603 79.5058 182.723 79.5234 182.821 79.4835C182.998 79.4117 183.082 79.2484 183.166 79.0851C183.243 78.937 183.319 78.789 183.464 78.7083C183.607 78.6289 183.869 78.628 184.129 78.6271C184.35 78.6265 184.571 78.6256 184.716 78.5764C185.066 78.4574 185.171 78.3439 185.32 78.1847C185.393 78.1058 185.477 78.0158 185.607 77.9079C185.92 77.6473 186.22 77.5575 186.533 77.4634C186.767 77.3933 187.008 77.3209 187.269 77.1734C187.579 76.9984 187.714 76.7155 187.838 76.4545C187.967 76.183 188.085 75.9353 188.378 75.8567C188.708 75.7685 188.932 75.8435 189.114 75.9042C189.354 75.9845 189.52 76.0399 189.757 75.66C189.795 75.5999 189.749 75.5277 189.698 75.4474C189.621 75.3275 189.533 75.1897 189.693 75.0457C189.978 74.7889 190.118 75.0208 190.249 75.2372C190.269 75.27 190.289 75.3026 190.308 75.3331L190.309 75.3313L190.311 75.3295C190.484 75.0261 190.656 74.7226 190.829 74.4192C191.339 74.6792 191.406 74.5751 191.527 74.3884C191.604 74.2696 191.702 74.1175 191.949 74.004C192.085 73.9418 192.209 73.9685 192.336 73.9958C192.473 74.0251 192.613 74.0553 192.774 73.9738C192.91 73.9052 192.979 73.7879 193.047 73.6718C193.093 73.5935 193.139 73.5158 193.205 73.4534C193.3 73.3631 193.382 73.2625 193.464 73.1622C193.653 72.9318 193.84 72.7031 194.18 72.604C194.004 72.655 195.446 72.6163 195.317 72.5588C195.177 72.3671 195.037 72.1753 194.896 71.9836C195.049 71.9836 195.198 71.9865 195.344 71.9894H195.344C195.921 72.0003 196.458 72.0109 197.041 71.8423L197.053 71.839C197.312 71.7643 197.707 71.6505 197.919 71.4998L197.936 71.4875C198.198 71.3013 198.312 71.2201 198.359 71.1131C198.396 71.0298 198.392 70.931 198.385 70.7557C198.381 70.6639 198.377 70.5513 198.377 70.4088C199.192 70.892 200.23 70.7231 201.035 70.1628C201.215 70.0376 201.367 69.9019 201.519 69.7667C201.721 69.5861 201.922 69.407 202.185 69.2557C202.383 69.1604 202.584 69.0713 202.788 68.9886C203.044 68.7423 203.3 68.74 203.557 68.9818C203.812 68.9179 203.886 68.8681 204.006 68.7869C204.056 68.7529 204.114 68.7133 204.197 68.6649C204.277 68.5165 204.363 68.3708 204.455 68.228C204.757 68.1987 205.054 68.148 205.348 68.0759C205.677 67.9935 205.97 67.8753 206.244 67.7645C206.916 67.4927 207.481 67.2646 208.232 67.71L208.315 67.5531L208.318 67.5475C208.424 67.3449 208.531 67.1423 208.637 66.9397C208.956 67.4033 209.204 67.225 209.533 66.9872C209.669 66.8893 209.818 66.7814 209.992 66.704C210.12 66.6474 210.267 66.6125 210.411 66.5785C210.549 66.5457 210.683 66.5137 210.794 66.4639C210.921 66.4917 211.049 66.5199 211.176 66.548C211.284 66.2372 211.392 65.9264 211.5 65.6157C211.557 65.6365 211.659 65.6816 211.783 65.7365C212.129 65.8901 212.648 66.12 212.839 66.103C213.043 66.0851 213.269 65.9009 213.491 65.72C213.673 65.5711 213.852 65.4242 214.015 65.3744C214.328 65.2785 214.399 65.3093 214.502 65.3544C214.579 65.3887 214.675 65.4307 214.907 65.4321C214.961 65.4324 215.012 65.4339 215.059 65.4351C215.376 65.4427 215.564 65.4474 215.876 65.1653C214.87 64.9222 215.752 64.7859 216.373 64.6897C216.5 64.6701 216.617 64.6522 216.703 64.6352C216.924 64.5927 217.114 64.5742 217.287 64.5578C217.737 64.5147 218.061 64.4836 218.461 64.0608H217.887C218.306 63.7058 218.31 63.7067 218.527 63.7501C218.602 63.765 218.704 63.7855 218.858 63.7976C218.9 63.8008 218.972 63.8236 219.06 63.8515C219.368 63.9491 219.863 64.106 219.864 63.6727C220.634 64.0951 220.643 64.096 221.437 63.9054C221.581 63.8708 221.716 63.8043 221.852 63.7374C222.048 63.641 222.246 63.5436 222.474 63.5398C222.653 63.5369 222.809 63.5715 222.959 63.6046C223.123 63.6413 223.281 63.6762 223.458 63.6583C223.638 63.6404 224.225 63.4404 224.515 63.3413C224.548 63.3299 224.577 63.3199 224.601 63.3117C224.785 63.2493 224.939 63.1525 225.09 63.0572C225.248 62.957 225.404 62.8584 225.589 62.8042C225.801 62.742 226.043 62.7523 226.287 62.7626C226.501 62.7717 226.715 62.7807 226.91 62.7409C227.315 62.6579 227.666 62.5283 228.001 62.4043C228.693 62.1483 229.32 61.9167 230.225 62.1691C230.365 61.0802 231.786 61.2852 232.607 61.4036L232.676 61.4136C232.826 61.4353 232.957 61.4661 233.079 61.4951C233.412 61.574 233.68 61.6376 234.106 61.4496C234.312 61.359 234.48 61.2453 234.646 61.1321C234.863 60.9846 235.079 60.838 235.377 60.7439C235.717 60.6366 236.156 60.5539 236.538 60.4818C236.611 60.468 236.681 60.4548 236.749 60.4416C237.01 60.3648 237.276 60.3402 237.549 60.368C237.84 60.4062 238.081 60.529 238.272 60.7363C238.267 60.7477 238.271 60.7539 238.287 60.7527C238.282 60.7471 238.277 60.7419 238.272 60.7363C238.313 60.6448 238.95 60.2056 238.876 60.2598C239.026 60.1487 239.15 60.086 239.259 60.0306C239.498 59.9098 239.666 59.8247 239.866 59.3521C239.697 59.319 239.527 59.2856 239.357 59.2521C239.187 59.219 239.018 59.1856 238.848 59.1522C238.908 59.1483 238.967 59.1445 239.024 59.1404C239.464 59.1096 239.819 59.085 240.232 59.2527C240.369 59.3084 240.545 59.4656 240.727 59.628C240.974 59.8485 241.233 60.0787 241.419 60.0789C242.002 60.0795 242.206 59.314 242.148 58.9155C242.638 59.9772 243.056 60.154 244.156 59.6113C244.22 59.5793 244.285 59.5477 244.35 59.5157L244.358 59.5116C244.42 59.4811 244.482 59.4506 244.544 59.4198C244.805 59.1645 245.065 59.1692 245.324 59.4342C245.478 59.5122 245.631 59.5899 245.785 59.6679L245.902 59.4873C246.048 59.2612 246.194 59.0352 246.34 58.8088C246.733 59.3119 247.105 59.3366 247.745 59.219C247.963 59.1791 248.293 58.978 248.612 58.7842C248.939 58.5848 249.253 58.3937 249.418 58.3937C249.508 58.3937 249.61 58.491 249.726 58.6018C249.853 58.7235 249.997 58.8616 250.162 58.9053C250.683 59.0443 251.492 58.6948 251.677 58.2309C251.776 58.4244 251.875 58.6182 251.973 58.812C252.034 58.759 252.095 58.7056 252.157 58.6525C252.342 58.4919 252.527 58.3309 252.71 58.1691C252.776 58.6971 253.209 58.6889 253.586 58.6819C253.865 58.6766 254.113 58.6719 254.161 58.8827C254.218 59.1296 253.444 59.6652 252.983 59.9842C252.861 60.069 252.76 60.1388 252.703 60.1833C253.432 60.5926 254.329 59.8778 254.989 59.3521C255.122 59.2457 255.246 59.1469 255.357 59.0668C255.695 59.409 255.81 59.5887 255.499 59.9801C255.214 60.3396 255.083 60.2645 254.932 60.1772C254.793 60.0965 254.636 60.0056 254.322 60.2364C254.539 60.5747 254.734 60.4897 254.979 60.3833C255.042 60.3557 255.108 60.327 255.178 60.3035C255.091 60.7806 255.168 60.8034 255.301 60.8421C255.396 60.87 255.518 60.9061 255.628 61.1218C255.79 61.44 255.815 61.6953 255.845 62.0038C255.854 62.1041 255.865 62.2099 255.88 62.3251ZM155.393 103.573C155.687 103.55 155.77 103.676 155.844 103.79C155.908 103.886 155.965 103.973 156.138 103.952C156.285 103.934 156.404 103.789 156.525 103.641C156.63 103.512 156.738 103.38 156.869 103.327C157.463 103.085 158.325 103.047 159.117 103.013C159.489 102.998 159.844 102.982 160.149 102.947C160.652 102.888 161.126 102.751 161.594 102.615V102.615C162.034 102.488 162.47 102.361 162.922 102.302C163.307 102.253 163.587 102.317 163.951 102.416C163.978 102.424 164.003 102.431 164.028 102.437C164.368 102.53 164.536 102.575 164.638 102.677C164.736 102.777 164.772 102.93 164.842 103.232L164.845 103.245C165.217 104.843 164.93 106.543 164.642 108.241C164.266 110.466 163.89 112.689 164.998 114.679C159.286 114.636 153.562 114.742 147.883 115.365C147.883 114.898 147.887 114.43 147.891 113.963C147.903 112.422 147.916 110.882 147.791 109.342C147.734 108.637 147.655 107.935 147.575 107.232V107.232C147.552 107.026 147.529 106.821 147.506 106.615C147.388 105.531 147.416 105.525 148.262 105.364C148.316 105.353 148.373 105.343 148.434 105.331C148.736 105.272 148.928 105.145 149.13 105.012C149.285 104.909 149.446 104.803 149.666 104.72C149.922 104.624 150.083 104.672 150.276 104.729C150.37 104.756 150.472 104.787 150.596 104.803C151.082 104.867 151.221 104.83 151.493 104.758C151.598 104.731 151.723 104.698 151.895 104.664C152.217 104.6 152.528 104.557 152.828 104.515C153.763 104.386 154.6 104.271 155.393 103.573ZM255.799 70.7319C255.717 70.6871 255.635 70.6425 255.552 70.5976C254.576 72.5225 253.936 74.5285 253.288 76.561C253.194 76.8571 253.099 77.1538 253.003 77.4511C252.613 78.6635 252.224 79.8761 251.836 81.0894C251.765 81.3125 251.678 81.5438 251.59 81.7801C251.295 82.565 250.981 83.4044 251.141 84.1723C252.374 82.4032 253.548 80.598 254.662 78.7623C255.206 77.8671 255.736 76.965 256.254 76.057C256.321 75.9394 256.404 75.8142 256.49 75.6852C256.677 75.4049 256.877 75.1058 256.95 74.8208C257.042 74.4552 257.136 74.347 257.11 74.2811C257.085 74.2198 256.956 74.1952 256.625 74.0351C256.889 73.756 257.061 73.8331 257.204 73.8973C257.286 73.9336 257.359 73.9662 257.434 73.9257C257.618 73.8263 257.868 73.5179 258.066 73.2736C258.148 73.1731 258.221 73.0831 258.277 73.0235C258.123 72.9828 257.869 72.9385 257.574 72.8869C256.814 72.7541 255.784 72.5744 255.501 72.2856C255.049 71.8238 255.532 71.4212 256.007 71.0263C256.051 70.9894 256.095 70.9527 256.139 70.9158C256.025 70.8545 255.912 70.7932 255.799 70.7319Z" fill="#0075FF"/>
<path fill-rule="evenodd" clip-rule="evenodd" d="M126.914 148.781C126.781 149.421 126.447 149.723 126.797 150.311C127.094 150.81 127.946 151.137 128.517 151.01L126.914 148.781ZM111.426 126.016L108.607 126.916C109.377 127.62 110.112 128.36 110.962 128.985L111.426 126.016ZM157.94 128.32C156.595 127.689 155.088 127.618 153.614 127.537C153.838 128.664 154.062 129.791 154.287 130.918C155.504 130.052 156.722 129.186 157.94 128.32ZM125.646 215.545C125.377 215.102 123.547 211.684 123.166 211.859C122.964 211.952 122.949 213.856 122.919 214.126C122.814 215.089 122.709 216.052 122.604 217.014C123.687 216.658 124.843 216.363 125.646 215.545ZM112.856 187.91C113.133 188.665 113.41 189.421 113.687 190.176C113.818 190.535 113.895 191.065 114.128 191.382C114.431 191.793 114.203 192.035 114.607 191.585C115.041 191.101 115.171 189.812 115.359 189.22C115.645 188.32 115.931 187.421 116.217 186.521C114.869 186.511 114.052 187.544 112.856 187.91ZM84.5212 143.42C82.8632 144.475 81.1848 145.522 79.7423 146.833C81.0112 146.759 82.7782 147.572 83.9735 147.19C84.5253 147.3 84.7076 147.105 84.5212 146.605V145.565V143.42ZM109.105 150.883V157.042C110.653 155.814 112.282 154.673 113.771 153.382C112.216 152.549 110.66 151.716 109.105 150.883ZM164.444 166.842C163.955 169.584 163.928 172.405 163.794 175.18C163.77 175.673 163.567 176.414 163.919 176.845C164.273 177.278 165.28 177.517 165.793 177.748C167.233 178.399 168.665 179.068 170.102 179.726C168.216 175.431 166.33 171.136 164.444 166.842ZM201.027 149.979C204.581 148.352 208.136 146.726 211.691 145.099C208.206 143.725 204.72 142.352 201.235 140.978C201.166 143.978 201.096 146.979 201.027 149.979ZM164.436 157.638C165.086 157.681 165.188 155.377 165.296 154.768C165.501 153.612 165.71 152.456 165.925 151.301C166.356 148.993 166.808 146.688 167.285 144.387C168.237 139.786 169.287 135.202 170.451 130.644C169.2 130.434 168.051 130.283 166.829 129.944C165.843 129.67 164.667 129.819 163.787 129.25C163.672 131.386 164.245 133.657 164.457 135.793C164.703 138.264 164.835 140.722 164.813 143.205C164.77 148.016 164.574 152.828 164.436 157.638ZM82.6147 222.821C83.2308 222.668 82.392 214.806 82.3546 213.673C82.2475 210.39 82.2267 207.106 82.2897 203.822C78.9706 205.76 75.5744 207.544 72.0682 209.154C72.9693 210.242 73.8137 211.415 74.8109 212.428C75.8383 213.471 77.0169 214.325 77.969 215.448C79.8859 217.71 81.199 220.278 82.6147 222.821ZM162.485 176.314C162.639 173.95 162.782 171.59 163.039 169.233C163.148 168.229 164.189 162.898 162.522 163.023C161.573 163.095 159.909 164.387 159.039 164.84C157.89 165.438 156.74 166.034 155.585 166.623C153.307 167.786 151.013 168.922 148.726 170.071C153.313 172.152 157.899 174.233 162.485 176.314ZM152.583 127.146C150.684 127.014 148.847 126.882 146.974 126.553C145.963 126.376 144.953 126.4 143.937 126.28C143.209 126.194 141.787 125.638 141.11 125.82C140.258 126.049 139.949 130.022 139.832 131.019C139.643 132.625 139.516 134.574 140.286 136.083C141.772 138.991 145.774 136.721 147.721 135.501C149.39 134.455 151.281 133.396 152.761 132.126C154.072 131.001 152.895 128.599 152.583 127.146ZM162.434 158.774C163.865 158.235 163.843 157.559 163.905 156.165C163.981 154.471 164.025 152.776 164.077 151.081C164.169 148.062 164.257 145.041 164.228 142.02C164.2 139.069 164.045 136.123 163.682 133.19C163.553 132.153 163.681 130.382 163.094 129.497C162.558 128.69 160.895 128.682 159.988 128.732C158.965 128.788 158.136 129.692 157.381 130.264C156.545 130.897 154.827 131.789 154.69 132.734C154.536 133.789 155.159 135.294 155.4 136.317C156.282 140.052 157.356 143.75 158.486 147.425C159.659 151.237 160.848 155.088 162.434 158.774ZM126.072 149.835C126.165 148.996 126.5 148.295 126.047 147.496C125.657 146.809 125.023 146.118 124.546 145.468C123.182 143.604 121.653 141.819 120.167 140.039C118.807 138.409 117.413 136.795 115.986 135.214C115.192 134.334 114.373 133.472 113.559 132.607C112.963 131.974 112.398 131.085 111.555 130.754C110.934 134.388 110.42 138.039 110.02 141.701C109.826 143.471 109.659 145.243 109.519 147.018C109.479 147.518 109.062 149.21 109.329 149.676C109.609 150.166 111.324 150.822 111.849 151.122C113.317 151.962 114.458 153.227 115.854 151.847C116.814 150.896 117.588 149.556 118.662 148.727C119.222 148.295 119.749 148.315 120.377 148.058C121.106 147.76 121.129 147.473 122.002 147.879C123.471 148.562 124.363 149.571 126.072 149.835ZM52.5135 168.537C52.5135 171.053 52.3287 173.122 54.1611 175.159C55.7624 176.94 57.4263 177.351 59.6786 178.054C61.0049 178.467 61.0975 178.086 62.1721 177.388C63.1936 176.725 64.3057 176.192 65.3129 175.508C67.484 174.033 69.6534 172.512 71.7634 170.961C72.4726 170.439 72.3681 170.617 72.2604 169.991C72.1618 169.421 71.7221 168.695 71.4818 168.153C71.0471 167.171 70.535 166.222 70.0226 165.274C69.4408 164.198 68.9341 163.03 68.2115 162.028C67.9117 161.612 67.5558 161.235 67.2059 160.856C66.4692 160.057 66.4953 160.086 65.6144 160.739C63.7545 162.118 62.0241 163.611 59.9309 164.689C57.4543 165.965 54.9838 167.249 52.5135 168.537ZM108.592 149.044C108.861 145.431 109.164 141.838 109.629 138.242C109.868 136.395 110.146 134.554 110.417 132.711C110.527 131.961 110.952 130.701 110.715 129.972C110.482 129.255 109.455 128.572 108.891 128.053C108.74 127.914 108.274 127.328 108.074 127.302C107.859 127.274 107.052 127.824 106.819 127.948C105.996 128.388 105.187 128.85 104.391 129.331C102.891 130.237 101.437 131.209 100.014 132.218C97.0308 134.334 94.1858 136.61 91.2658 138.8C93.941 140.982 97.234 142.677 100.225 144.445C101.994 145.49 103.771 146.524 105.572 147.521C106.485 148.025 107.544 148.797 108.592 149.044ZM72.0207 213.647C69.8604 214.977 67.7974 216.38 65.3542 217.233C62.9221 218.083 60.5183 218.41 58.0046 218.915C56.7369 219.17 55.5454 219.448 54.2515 219.626C53.5265 219.726 52.4043 219.688 51.7431 219.973C51.1545 219.856 50.9447 220.043 51.1145 220.533C51.1208 220.686 51.1271 220.838 51.1334 220.991C51.3 223.111 52.7643 225.663 54.0414 227.387C54.7869 228.394 55.7369 229.331 56.6808 230.177C57.7466 231.133 58.3611 231.806 59.8468 231.406C62.351 230.731 64.5611 229.373 67.0994 228.774C69.1073 228.3 70.775 227.307 72.7331 226.793C75.1479 226.159 77.5375 225.437 79.9857 224.907C78.8922 222.942 77.9142 220.896 76.5142 219.096C75.0783 217.249 73.495 215.474 72.0207 213.647ZM85.2701 147.526C89.788 148.363 94.6847 149.138 98.7281 151.309C100.306 152.157 102.306 153.466 102.768 155.219C103.321 157.313 101.149 158.611 99.3347 159.264C97.1565 160.049 94.7855 160.35 92.4774 160.598C91.2557 160.729 90.0283 160.8 88.8009 160.865C87.8075 160.918 86.1227 160.715 85.2147 161.081C84.6459 160.976 84.4487 161.19 84.6232 161.725C84.6125 161.917 84.6021 162.11 84.5917 162.302L84.4975 164.029C84.4349 165.179 84.3722 166.329 84.3092 167.479C84.1728 169.984 84.0361 172.489 83.8998 174.994C86.2661 173.629 88.1731 171.675 90.4859 170.219C91.5854 169.527 92.6771 168.833 93.7722 168.143C94.2314 167.854 94.5121 167.449 94.964 167.179C95.5634 166.822 96.0947 166.607 96.657 166.139C98.953 164.227 101.506 162.575 103.942 160.82C105.048 160.022 106.259 159.289 107.311 158.434C108.414 157.538 108.261 156.8 108.234 155.512C108.206 154.149 108.744 152.456 108.494 151.141C108.704 150.694 108.543 150.417 108.012 150.308C107.657 150.097 107.303 149.885 106.948 149.674C106.241 149.253 105.534 148.832 104.827 148.412C102.014 146.737 99.2015 145.062 96.3886 143.388C94.9836 142.551 93.5785 141.715 92.1732 140.878C91.7807 140.645 90.5007 139.59 90.0604 139.621C89.6113 139.652 88.8321 140.469 88.4954 140.728C87.9788 141.127 87.4774 141.545 86.9193 141.894C86.6412 142.074 86.3508 142.234 86.0484 142.375C85.565 142.418 85.3971 142.665 85.5442 143.116C85.1196 144.384 85.353 146.194 85.2701 147.526ZM147.92 207.293C146.897 202.841 145.577 197.569 141.587 194.54C137.54 191.469 131.624 192.656 128.458 196.263C126.872 198.069 125.889 200.205 125.159 202.419C124.41 204.69 123.305 207.65 123.507 210.052C123.596 211.106 124.565 212.238 125.119 213.157C125.691 214.106 126.071 215.466 127.418 215.138C129.507 214.628 131.632 213.457 133.587 212.62C135.564 211.772 137.646 211.075 139.696 210.256C141.058 209.713 142.471 209.3 143.829 208.748C145.116 208.226 146.815 208.1 147.92 207.293ZM208.371 180.775C211.224 181.726 212.707 180.204 214.715 178.491C216.617 176.868 218.678 175.307 220.43 173.543C222.236 171.724 223.664 169.574 225.053 167.473C226.457 165.349 228.355 163.056 229.22 160.691C229.659 159.488 229.847 158.155 230.124 156.912C230.191 156.613 230.639 155.499 230.497 155.247C230.301 154.901 229.055 154.864 228.713 154.813C225.99 154.413 223.104 154.393 220.373 154.751C215.089 155.444 210.67 158.203 209 163.026C207.042 168.681 207.983 174.966 208.371 180.775ZM189.869 131.729C189.825 132.708 192.346 132.98 192.999 133.208C194.509 133.736 196.011 134.292 197.477 134.916C200.496 136.201 203.716 137.038 206.607 138.592C212.84 141.94 219.607 144.301 225.903 147.504C226.884 148.003 228.801 149.205 229.922 149.103C230.518 149.05 230.074 149.496 230.46 148.614C230.599 148.297 230.646 147.885 230.723 147.545C230.957 146.527 231.137 145.499 231.399 144.486C231.83 142.819 232.271 141.273 232.453 139.56C232.53 138.834 232.614 138.109 232.623 137.379C232.633 136.639 232.816 134.785 232.457 134.144C232.219 133.719 232.171 133.865 231.577 133.745C231.236 133.676 230.878 133.534 230.55 133.438C229.779 133.215 229.007 133 228.198 132.935C227.399 132.87 226.889 132.643 226.139 132.512C225.353 132.374 224.546 132.541 223.745 132.349C222.88 132.141 222.468 131.951 221.564 132.031C220.688 132.108 220.436 131.927 219.579 131.705C218.863 131.519 218.01 131.649 217.264 131.593C216.361 131.524 215.461 131.419 214.557 131.353C210.494 131.053 206.383 131.497 202.31 131.462C200.096 131.443 197.929 131.747 195.718 131.653C193.785 131.571 191.787 131.59 189.869 131.729ZM200.439 151.663C198.462 152.364 196.629 153.502 194.797 154.482C192.684 155.612 190.662 156.813 188.706 158.169C185.418 160.448 181.581 163.181 180.716 167.158C179.828 171.24 183.636 174.585 187.206 176.255C191.277 178.159 196.014 179.144 200.474 179.871C199.997 170.475 200.109 161.062 200.439 151.663ZM141.31 173.785C140.111 174.094 139.096 174.754 137.984 175.243C136.987 175.681 136.023 176.011 135.093 176.574C133.576 177.493 131.818 178.279 130.232 178.99C126.309 180.747 122.5 182.929 118.616 184.877C117.587 185.393 117.25 185.719 116.901 186.782C116.523 187.936 116.166 189.097 115.801 190.256C115.461 191.336 114.918 192.491 115.061 193.631C115.186 194.623 115.737 195.558 116.152 196.463C117.198 198.74 118.333 200.981 119.505 203.203C120.556 205.199 121.516 207.316 122.866 209.15C123.915 204.056 124.856 198.349 128.923 194.467C132.987 190.588 139.471 190.534 143.387 194.537C145.248 196.439 146.38 198.835 147.27 201.242C147.737 202.506 148.051 203.795 148.352 205.101C148.673 206.496 148.594 207.236 150.248 206.813C151.561 206.478 152.953 206.21 154.24 205.827C154.908 205.628 155.559 205.405 155.59 204.914C155.628 204.294 154.731 203.024 154.466 202.441C153.098 199.429 151.73 196.417 150.362 193.406C148.876 190.136 147.39 186.866 145.904 183.596C145.163 181.965 144.421 180.333 143.679 178.702C143.003 177.215 142.439 175.006 141.31 173.785ZM200.55 148.356C200.572 146.869 200.598 145.382 200.619 143.895C200.632 143.009 201.056 141.295 200.227 140.662C199.713 140.27 198.188 139.969 197.538 139.701C196.255 139.171 194.866 138.935 193.576 138.409C188.522 136.348 183.263 134.632 178.059 132.971C176.937 132.612 175.79 132.319 174.661 131.966C174.051 131.776 171.793 130.658 171.228 130.951C170.734 131.207 170.362 134.256 170.204 134.889C169.829 136.388 169.471 137.89 169.127 139.395C167.791 145.239 166.671 151.124 165.629 157.019C168.397 156.041 171.05 154.346 173.665 153.035C176.382 151.674 179.089 150.316 181.824 148.986C182.596 148.61 185.312 146.885 185.947 147.562C186.967 148.649 184.537 149.924 183.9 150.389C181.433 152.19 178.827 153.76 176.189 155.331C173.455 156.96 170.61 158.398 167.863 159.997C166.871 160.574 165.288 161.276 164.898 162.251C164.396 163.504 164.758 165.028 165.215 166.226C166.336 169.169 167.564 172.076 168.863 174.955C169.453 176.265 170.059 177.568 170.676 178.866C171.411 180.412 172.375 180.739 173.976 181.451C180.796 184.483 187.88 187.36 194.431 190.868C193.335 192.044 190.663 190.113 189.581 189.623C187.577 188.717 185.571 187.814 183.569 186.906C179.839 185.213 176.128 183.487 172.376 181.835C174.781 186.925 177.618 191.829 180.764 196.554C179.969 196.805 180.163 196.818 179.664 196.373C179.245 195.999 178.963 195.265 178.678 194.795C178.09 193.823 177.51 192.848 176.918 191.879C175.689 189.868 174.415 187.888 173.293 185.822C172.449 184.269 171.795 181.553 170.06 180.77C167.898 179.793 165.708 178.843 163.547 177.853C163.547 185.592 164.144 193.159 165.021 200.85C165.065 201.238 165.465 202.383 164.659 202.271C164.296 202.22 164.174 200.098 164.11 199.655C163.817 197.623 163.569 195.587 163.365 193.546C162.961 189.474 162.741 185.385 162.712 181.296C162.193 185.272 161.675 189.248 161.156 193.224L160.419 198.876C160.29 199.865 160.16 200.855 160.031 201.844C159.972 202.299 160.01 202.894 159.838 203.327C159.568 204.009 159.659 203.957 158.812 204.268C159.621 199.091 160.369 193.904 161.03 188.709C161.353 186.173 161.655 183.636 161.934 181.096C162.009 180.414 162.082 179.73 162.154 179.047C162.19 178.699 162.513 177.579 162.334 177.289C162.157 177.003 160.981 176.703 160.642 176.557C159.901 176.237 159.16 175.917 158.42 175.595C156.016 174.549 153.614 173.495 151.237 172.398C150.197 171.918 149.106 171.177 147.975 170.921C146.849 170.666 146.03 171.395 145.067 171.859C144.318 172.22 142.552 172.701 142.052 173.314C141.586 173.884 143.033 176.168 143.413 177.01C144.485 179.384 145.557 181.76 146.629 184.135C148.803 188.95 150.976 193.765 153.15 198.581C153.682 199.758 154.213 200.935 154.744 202.112C155.085 202.867 155.653 205.017 156.479 205.101C156.845 205.138 157.445 204.768 157.799 204.661C158.326 204.503 158.813 204.505 159.342 204.421C160.312 204.268 161.318 203.803 162.27 203.476C164.717 202.636 167.254 202.094 169.721 201.31C172.199 200.522 174.637 199.637 177.105 198.849C179.347 198.133 181.609 197.318 183.763 196.386C186.037 195.402 188.37 194.534 190.586 193.443C194.622 191.455 198.615 189.599 202.182 187.161C203.02 186.588 203.913 186.013 204.743 185.399C205.47 184.86 206.858 184.196 207.353 183.487C207.542 183.217 207.704 182.688 207.483 182.367C207.247 182.023 206.199 182.055 205.71 181.993C204.166 181.8 202.623 181.607 201.08 181.414C201.198 182.359 201.318 183.303 201.404 184.252C201.464 184.921 201.889 186.69 201.316 187.215C200.528 186.518 200.781 184.433 200.71 183.504C200.673 183.007 200.808 182.036 200.57 181.595C200.308 181.113 199.585 181.119 198.929 180.987C196.15 180.428 193.396 179.958 190.707 179.071C186.163 177.573 180.732 175.044 179.718 170.165C178.66 165.079 183.308 160.672 187.223 157.835C189.566 156.137 192.059 154.667 194.638 153.302C195.843 152.664 197.048 152.026 198.261 151.402C198.702 151.175 200.15 150.707 200.383 150.31C200.621 149.904 200.499 148.818 200.55 148.356ZM103.347 226.464C103.126 226.565 102.905 226.665 102.685 226.765C105.137 220.261 107.567 213.785 109.617 207.159C110.606 203.96 111.609 200.765 112.632 197.576C113.074 196.2 114.159 194.305 113.858 192.88C113.531 191.337 112.749 189.697 112.144 188.23C108.269 190.497 104.312 192.649 100.373 194.813C96.8412 196.755 93.2497 198.481 89.6931 200.402C87.8708 201.386 85.9908 202.05 84.0887 202.854C82.5432 203.508 83.1432 205.505 83.1656 206.84C83.2437 211.551 83.2399 216.278 83.547 220.983C83.6588 222.697 83.5146 224.664 84.6865 226.091C86.1854 227.914 87.5757 229.773 88.9426 231.693C89.4547 232.412 91.6062 236.306 92.4084 236.221C92.9322 236.166 93.4144 234.589 93.6765 234.215C94.2412 233.409 95.0667 232.716 95.8182 232.067C99.0636 229.264 102.665 227.289 106.408 225.241C110.21 223.16 114.101 221.223 117.976 219.249C118.851 218.803 119.794 218.482 120.663 218.026C121.007 217.846 121.688 217.56 121.905 217.238C122.228 216.757 122.118 215.423 122.186 214.848C122.324 213.672 122.572 212.451 122.585 211.266C122.598 210.096 121.842 209.091 121.294 208.071C118.89 203.591 116.554 199.101 114.462 194.486C112.813 199.845 111.081 205.179 109.463 210.546C108.618 213.348 107.6 216.105 106.608 218.864C106.102 220.273 105.593 221.682 105.088 223.091C104.694 224.189 104.489 225.796 103.347 226.464ZM137.879 125.468C136.605 125.481 135.449 125.307 134.203 125.059C133.746 124.968 133.344 124.93 132.88 124.892C132.354 124.849 131.877 124.584 131.416 124.532C131.068 124.493 130.46 124.629 130.127 124.733C129.356 124.973 129.38 124.852 129.348 125.685C129.298 126.972 129.26 128.26 129.184 129.546C128.885 134.61 128.308 139.624 127.516 144.638C127.356 145.651 126.907 146.981 127.154 147.987C127.376 148.895 128.219 149.864 128.775 150.625C129.919 152.191 132.614 152.964 134.51 153.408C136.509 153.876 138.584 154.049 140.484 154.466C141.01 154.582 141.614 154.378 142.175 154.494C142.694 154.601 143.096 154.866 143.576 155.058C144.75 155.527 146.062 155.614 147.275 155.976C149.68 156.695 152.255 156.652 154.663 157.342C155.278 157.518 155.81 157.963 156.402 158.115C156.943 158.254 157.501 158.09 158.067 158.168C159.268 158.332 160.387 158.714 160.664 159.914C161.399 159.373 161.501 159.515 161.374 158.679C161.292 158.142 160.971 157.489 160.796 156.972C160.348 155.653 159.897 154.335 159.45 153.016C158.564 150.406 157.684 147.795 156.868 145.166C156.138 142.814 155.474 140.444 154.894 138.056C154.599 136.842 154.352 135.623 154.099 134.402C154.026 134.048 154.099 133.485 153.716 133.249C153.37 133.036 152.56 133.803 152.194 134.05C149.635 135.775 143.767 140.878 140.569 137.868C138.846 136.247 138.947 133.397 139.134 131.303C139.249 130.016 139.491 128.746 139.763 127.48C139.831 127.165 140.245 126.15 140.094 125.925C139.929 125.683 138.222 125.539 137.879 125.468ZM227.775 153.631C228.457 153.702 229.137 153.773 229.818 153.844C229.756 153.332 229.812 152.562 229.604 152.085C229.316 151.426 228.61 151.352 227.835 151.079C226.607 150.647 225.356 150.271 224.143 149.806C221.509 148.797 218.887 147.774 216.252 146.765C215.097 146.323 213.74 145.599 212.486 145.96C211.133 146.35 209.799 147.144 208.534 147.725C207.103 148.384 205.672 149.044 204.241 149.704C203.571 150.014 202.899 150.323 202.229 150.632C201.174 151.119 201.034 151.168 200.951 152.278C200.527 157.958 200.559 163.858 200.743 169.546C200.838 172.448 200.732 175.366 200.956 178.264C200.973 178.486 200.955 179.744 201.105 179.915C201.316 180.157 202.802 180.239 203.157 180.299C204.541 180.535 205.934 180.613 207.333 180.729C207.003 174.123 205.793 166.313 209.438 160.27C213.098 154.2 220.923 152.885 227.775 153.631ZM164.136 88.6383C164.546 87.7681 165.253 87.0333 165.857 86.2698C166.183 85.857 166.748 85.3636 166.958 84.8807C167.255 84.1934 167.254 84.3406 166.809 83.7387C166.388 83.1699 166.397 83.1271 165.747 83.0253C165.199 82.9397 164.616 83.0851 164.057 82.9919C163.492 82.8975 161.938 82.4542 162.295 81.6168C162.279 81.6535 163.178 81.2409 163.248 81.1694C163.474 80.9404 163.545 80.4522 163.657 80.1755C164.016 79.2882 164.142 78.7139 163.742 77.7692C163.144 76.3586 160.781 75.9411 159.31 76.4158C158.575 76.6527 158.156 77.1552 157.825 77.7868C157.615 78.1879 157.566 78.7675 157.295 79.1167C156.885 79.6424 156.86 79.5841 156.011 79.4911C154.931 79.373 154.044 78.9865 153.021 78.7171C151.905 78.4233 151.18 79.0209 150.205 79.5026C148.446 80.3728 146.747 80.6748 144.776 80.8129C142.581 80.9668 140.547 80.4742 138.375 80.3473C138.938 82.7647 140.396 84.7273 141.562 86.9163C141.766 87.3013 142.097 87.6948 142.105 88.1401C142.113 88.5597 141.461 89.1305 141.534 89.4777C141.691 90.2183 143.442 90.8111 144.106 91.0196C145.982 91.6086 148.118 92.7618 150.183 92.2985C151.315 92.0446 151.924 90.3804 152.99 90.2582C154.419 90.0934 153.35 91.8068 153.084 92.3962C155.113 92.6832 157.684 92.4398 159.626 91.7995C160.599 91.4787 161.424 91 162.312 90.5253C163.418 89.9342 163.648 89.7718 164.136 88.6383ZM128.635 124.616C125.018 124.672 121.348 124.188 117.723 124.633C116.884 124.736 116.055 124.902 115.23 125.078C114.637 125.205 112.753 125.313 112.357 125.723C111.997 126.098 111.995 127.821 111.92 128.307C111.755 129.389 111.799 129.763 112.54 130.599C114.979 133.352 117.518 136.022 119.921 138.805C122.229 141.478 124.123 144.465 126.456 147.101C127.702 143.725 127.777 139.673 128.119 136.133C128.301 134.245 128.467 132.356 128.623 130.467C128.772 128.667 129.276 126.332 128.635 124.616ZM81.8223 160.198C82.2405 160.198 82.9076 160.32 83.3142 160.198C83.8733 160.363 84.0601 160.168 83.8752 159.612C83.884 159.418 83.8928 159.223 83.902 159.028C83.9602 157.774 84.0245 156.521 84.0868 155.267C84.1442 154.12 84.1999 152.974 84.2484 151.827C84.2818 151.044 84.7067 149.103 84.3668 148.397C84.1385 147.921 83.5977 148.029 82.9398 147.96C82.3139 147.894 81.6862 147.833 81.0638 147.742C80.2739 147.628 79.3983 147.365 78.5945 147.529C77.787 147.695 77.1999 148.389 76.5662 148.831C75.5634 149.529 74.5388 150.201 73.5274 150.888C71.6893 152.138 69.8698 153.41 68.0471 154.679C67.2944 155.203 67.1498 155.021 67.5167 155.774C67.7438 156.239 68.26 156.765 68.5744 157.185C69.2002 158.022 69.8235 159.29 70.6263 159.969C71.7945 160.957 75.0358 160.33 76.5876 160.323C78.3571 160.315 80.0629 160.34 81.8223 160.198ZM86.4024 160.116C87.9369 159.976 89.4872 160.036 91.0122 159.844C92.6702 159.635 94.3162 159.326 95.971 159.094C97.6207 158.863 102.64 157.93 102.144 155.637C101.621 153.214 97.7785 151.763 95.6525 150.949C92.3322 149.676 88.8658 148.995 85.3731 148.276C84.935 150.448 84.998 152.78 84.918 154.981C84.8746 156.176 84.8364 157.373 84.8371 158.57C84.8371 158.858 84.7309 159.455 84.8572 159.723C85.1539 160.353 85.4991 160.116 86.4024 160.116ZM81.3561 161.157H71.5621C73.0115 163.95 74.3816 166.795 75.9441 169.535C77.5004 172.265 79.5042 174.837 81.2698 177.457C81.7171 177.004 82.4305 176.512 82.7344 175.973C83.0711 175.377 83.0616 174.499 83.1168 173.809C83.2598 172.017 83.3249 170.209 83.3735 168.413C83.416 166.84 83.4903 165.277 83.6201 163.708C83.6484 163.364 84.0563 161.576 83.8229 161.283C83.6147 161.021 81.7845 161.159 81.3561 161.157ZM121.692 106.318C123.344 106.318 124.998 106.298 126.65 106.324C128.149 106.348 130.103 106.105 131.476 106.823C134.274 108.287 128.681 112.046 127.547 112.992C129.38 113.611 132.243 112.383 134.038 111.82C136.258 111.125 138.521 110.658 140.786 110.113C141.351 109.977 143.78 109.711 144.086 109.307C144.391 108.907 143.709 106.492 143.641 105.983C143.577 105.504 143.631 104.758 143.416 104.308C143.548 103.767 143.344 103.577 142.804 103.739C142.618 103.739 142.432 103.738 142.245 103.737C140.868 103.748 139.489 103.807 138.112 103.85C133.38 103.996 128.763 104.192 124.071 104.879C121.89 105.199 119.69 105.592 117.52 105.984C115.694 106.314 116.001 106.592 117.707 106.596C119.041 106.599 120.364 106.414 121.692 106.318ZM257.433 73.9257C257.714 73.6252 257.996 73.3243 258.277 73.0235C257.592 72.8415 256.907 72.6591 256.222 72.477C255.493 72.2835 255.101 72.3278 255.425 71.5702C255.831 70.6211 257.684 70.5123 258.575 70.4765C261.642 70.3531 264.863 71.2614 267.776 72.0616C269.198 72.4521 270.312 73.0564 271.515 73.86C272.04 74.211 272.646 74.5405 273.106 74.9621C273.583 75.4002 273.782 75.9614 274.249 76.4006C275.015 77.1207 275.994 77.4792 276.37 78.5186C276.801 79.7116 276.286 81.0773 275.649 82.1176C275.002 83.1734 274.041 83.9718 273.26 84.9311C272.641 85.6922 271.347 87.7719 273.369 87.5309C274.438 87.4033 275.824 85.7063 276.593 85.0302C277.696 84.0606 278.781 83.0687 279.949 82.1657C280.984 81.365 282.177 80.544 283.562 80.4033C285.022 80.2549 285.751 81.1245 286.462 82.1821C287.133 83.1795 287.241 84.1532 287.713 85.1742C287.941 85.6664 288.23 85.9409 288.364 86.4774C288.57 87.3028 288.591 88.2032 288.696 89.0446C288.861 90.3661 289.016 91.4052 288.741 92.6999C288.484 93.9117 288.414 95.1988 288.197 96.4317C287.951 97.8279 287.747 99.2306 287.504 100.627C287.299 101.811 286.519 103.496 287.284 104.596C289.123 107.241 291.329 103.348 291.91 101.894C292.931 99.3382 293.451 96.5446 294.352 93.9366C294.834 92.5419 295.255 91.134 295.532 89.69C295.761 88.4958 295.648 87.0409 296.351 85.9772C296.898 85.151 297.87 84.5236 298.936 84.7757C300.271 85.0915 300.784 86.8876 301.177 87.9795C302.213 90.8592 301.832 93.4528 301.41 96.3898C301.215 97.7496 301.028 99.1115 300.693 100.449C300.466 101.351 299.529 103.177 300.923 103.667C302.899 104.364 304.994 99.0854 305.557 97.8936C307.032 94.7719 307.596 91.6761 308.204 88.3313C308.344 87.5622 308.451 86.7768 308.659 86.0209C308.841 85.363 309.384 84.698 309.433 84.0401C309.482 83.3816 309.013 82.9221 309.493 82.2756C309.893 81.7376 310.614 81.7051 311.266 81.7004C312.798 81.6892 314.262 82.3152 315.687 82.7694C317.012 83.1919 318.974 84.1189 320.404 83.8205C315.919 79.5817 311.445 75.3911 306.096 72.09C303.612 70.5569 301.127 69.0836 298.442 67.8334C295.723 66.5671 292.606 65.7118 289.694 64.9457C288.11 64.5288 286.535 64.0564 284.971 63.5782C283.578 63.1525 282.177 63.0719 280.813 62.589C277.851 61.5402 274.541 61.1338 271.474 60.3903C270.12 60.0622 268.751 59.7807 267.393 59.4767C265.966 59.1571 263.962 58.6021 262.508 58.656C261.267 58.7021 260.848 60.0264 260.251 60.9477C259.384 62.2849 258.644 63.6744 257.963 65.1008C256.566 68.0234 255.092 71.0427 254.093 74.096C253.544 75.7725 253.002 77.4508 252.464 79.1299C251.997 80.5836 250.831 82.6805 251.141 84.1723C253.438 80.8771 255.577 77.4549 257.433 73.9257ZM150.494 103.68C149.275 103.732 148.056 103.783 146.838 103.835C148.053 107.553 147.883 111.511 147.883 115.365C153.562 114.742 159.286 114.636 164.998 114.679C163.948 112.794 164.355 110.349 164.654 108.331C164.829 107.15 164.927 106.012 164.902 104.82C164.878 103.702 165.224 102.762 163.951 102.416C162.942 102.142 162.304 102.599 161.342 102.808C160.19 103.057 158.936 103.087 157.763 103.223C155.323 103.505 152.969 103.671 150.494 103.68ZM117.773 110.921C121.432 109.976 125.321 110.324 128.999 109.606C128.162 108.895 126.586 109.316 125.475 109.375C124.212 109.442 122.95 109.491 121.687 109.548C120.455 109.604 117.039 109.517 116.594 110.976C116.987 110.958 117.38 110.939 117.773 110.921ZM251.675 58.2391C246.887 58.6302 241.871 58.5696 237.117 59.3474C231.673 60.2381 225.997 60.797 220.718 62.3667C215.54 63.9069 210.258 64.985 205.154 66.7934C200.191 68.5514 195.411 70.4217 190.738 72.7731C188.451 73.9239 186.225 75.1439 184.044 76.4657C181.915 77.756 179.583 78.8139 177.52 80.1816C175.684 81.3993 174.1 82.516 172.499 84.0078C170.787 85.6028 169.122 87.2409 167.409 88.8332C165.979 90.1617 166.884 93.4097 166.975 95.1777C167.101 97.6288 167.318 100.045 167.64 102.48C167.947 104.801 168.264 107.295 167.858 109.61C167.687 110.583 167.099 112.265 167.38 113.237C167.605 114.015 169.096 114.585 169.856 114.839C170.787 115.149 171.737 115.018 172.691 115.413C173.758 115.854 174.656 116.404 175.789 116.636C177.184 116.922 178.754 117.162 180.188 117.171C181.514 117.179 182.845 117.579 184.167 117.825C186.319 118.226 188.418 118.351 188.285 120.766C188.13 123.553 186.942 125.944 186.235 128.589C187.191 128.589 187.858 128.646 188.734 128.33C189.756 127.962 190.847 127.864 191.921 127.705C194.295 127.354 196.609 127.241 198.998 127.017C203.375 126.606 207.827 126.655 212.207 126.698C214.425 126.72 216.831 126.88 219.018 127.201C221.262 127.531 223.585 127.737 225.76 128.369C227.594 128.903 229.488 129.266 231.36 129.738C232.203 129.95 233.213 130.123 234.01 130.36C235.165 130.705 235.782 131.439 237.115 131.422C236.74 129.124 235.859 126.991 235.327 124.712C234.772 122.331 233.665 120.225 232.442 117.979C231.897 116.977 231.494 115.914 230.968 114.903C230.384 113.78 229.562 112.849 228.856 111.798C227.412 109.648 225.87 107.581 224.452 105.416C223.213 103.526 221.799 101.715 220.443 99.8902C218.952 97.8845 216.881 96.3707 215.189 94.5306C214.475 93.7534 213.796 93.0312 212.996 92.3179C212.259 91.6611 211.214 90.2075 210.086 90.1394C209.438 90.1001 208.315 90.4397 207.696 90.6217C206.552 90.9592 205.338 91.1791 204.155 91.4761C202.862 91.8013 201.591 92.2243 200.295 92.5334C199.777 92.6568 199.161 92.5982 198.669 92.738C198.155 92.8846 197.745 93.2074 197.183 93.3555C194.409 94.0879 191.652 94.9194 188.858 95.5861C185.982 96.2728 183.061 96.8574 180.273 97.83C179.742 98.0156 179.15 98.4542 178.742 98.166C178.437 97.9508 178.24 97.343 178.321 96.9882C178.588 95.8072 180.617 95.3806 181.594 94.9065C184.213 93.6358 186.814 92.7398 189.628 91.8769C191.014 91.4524 192.395 90.9991 193.8 90.6323C194.975 90.3259 196.198 89.8075 197.399 89.6507C198.468 89.5111 199.226 89.1194 200.287 88.7726C201.849 88.2615 203.456 87.8419 205.043 87.4054C207.757 86.6589 210.633 86.3452 213.409 85.8447C219.841 84.6851 226.52 84.1046 233.083 84.1764C236.392 84.2128 239.853 84.1228 243.124 84.6294C243.912 84.7514 245.57 84.7279 246.114 85.3867C246.406 85.7403 246.248 86.2666 246.322 86.6498C246.449 87.2966 246.828 87.598 247.156 88.1873C247.855 84.9985 248.657 81.8775 249.558 78.7353C250.374 75.8916 251.128 72.9963 252.217 70.1924C253.369 67.2259 254.767 64.0805 256.489 61.3655C256.844 60.8066 257.728 59.9188 257.804 59.2937C257.883 58.6487 256.911 58.1491 256.244 58.0773C254.748 57.9163 253.145 58.1919 251.675 58.2391ZM283.844 103.803C284.332 99.3798 285.756 94.7529 284.96 90.3118C284.624 88.4319 284.361 86.6372 283.351 84.9402C282.84 84.082 282.635 83.4516 281.66 83.9577C280.673 84.4699 279.764 85.735 278.946 86.4683C277.442 87.8161 275.867 89.2041 274.066 90.2051C272.647 90.9932 269.83 91.7403 268.763 90.0353C267.747 88.4105 269.102 86.1429 270.075 84.8024C271.189 83.2687 273.298 81.8481 272.114 79.9559C271.605 79.1414 270.872 78.9279 270.101 78.3934C269.435 77.9308 268.876 77.3315 268.209 76.8606C266.276 75.4958 264.157 74.9111 261.925 74.1312C260.895 73.7709 260.759 73.432 260.164 74.2555C259.518 75.1501 259.164 76.4038 258.696 77.393C257.76 79.3747 256.762 81.2524 255.555 83.1001C254.337 84.9648 253.258 86.9128 252.106 88.8145C251.672 89.5319 251.264 90.2611 250.75 90.9346C250.471 91.3011 250.124 91.6277 249.897 92.0288C249.561 92.6219 249.711 93.1626 249.502 93.7531C248.599 96.3009 247.282 92.7442 247.031 91.9127C246.745 90.9668 246.055 90.2294 245.608 89.3472C245.238 88.6186 244.986 87.5359 244.094 87.1928C243.363 86.9119 242.422 87.2975 241.676 87.335C240.306 87.4042 238.926 87.301 237.55 87.3807C236.263 87.4552 234.979 87.5702 233.693 87.6435C232.406 87.717 231.12 87.5144 229.849 87.6405C227.569 87.8669 225.238 87.8305 222.963 88.1442C220.293 88.5119 217.651 88.9042 214.974 89.2103C215.596 90.3054 216.886 90.7804 217.905 91.5617C218.816 92.2601 219.538 93.0661 220.456 93.7305C221.387 94.4048 221.94 95.4023 222.711 96.2127C223.466 97.0064 224.166 97.6719 224.827 98.56C228.021 102.848 231.315 106.978 233.949 111.613C235.282 113.959 236.555 116.469 237.466 118.986C238.443 121.685 238.922 124.58 239.503 127.371C239.792 128.762 239.943 129.937 239.626 131.336C239.543 131.669 239.457 132.001 239.367 132.333C239.089 132.73 239.192 132.987 239.676 133.106C239.958 133.489 240.345 133.633 240.369 134.158C240.388 134.557 240.15 135.019 239.781 135.244C239.069 135.678 239.069 135.092 238.334 135.222C238.059 135.36 237.784 135.499 237.509 135.637C237.364 135.431 237.214 135.228 237.061 135.027C236.593 134.613 236.22 134.651 235.609 134.55C235.92 137.883 235.424 140.858 234.636 144.109C234.257 145.673 233.607 147.203 233.279 148.769C232.914 150.518 233.713 151.315 234.95 152.482C234.636 152.634 234.086 152.8 233.827 153.028C233.415 153.391 233.52 153.436 233.521 154.004C233.521 155.045 233.307 156.071 233.131 157.095C232.806 158.99 232.509 160.952 231.808 162.766C230.534 166.063 228.476 169.486 226.379 172.39C225.206 174.015 224.029 175.861 222.558 177.263C221.082 178.669 219.619 180.089 218.146 181.5C215.247 184.278 212.08 186.197 208.607 188.277C207.232 189.1 205.784 190.003 204.601 191.028C203.399 192.07 201.801 192.8 200.364 193.557C199.723 193.895 199.267 194.38 198.575 194.657C197.925 194.917 197.471 195.002 196.926 195.343C195.573 196.19 194.112 196.914 192.623 197.553C190.806 198.331 189.018 199.237 187.152 199.902C186.302 200.205 185.503 200.535 184.679 200.889C183.788 201.272 182.827 201.524 181.913 201.932C181.141 202.277 180.359 202.478 179.572 202.76C178.931 202.991 178.427 203.363 177.772 203.605C176.412 204.104 175.175 204.374 173.854 204.963C172.098 205.746 170.018 206.111 168.17 206.675C166.105 207.304 163.964 207.931 161.845 208.377C160.944 208.567 160.176 208.815 159.306 209.103C158.738 209.29 158.088 209.393 157.46 209.571C155.723 210.064 153.988 210.539 152.242 210.958C148.832 211.776 145.348 212.76 142.04 213.871C140.306 214.454 138.547 215.155 136.883 215.897C135.003 216.736 132.976 217.22 131.089 218.05C127.443 219.654 123.809 221.304 120.204 222.988C118.312 223.872 116.446 224.783 114.598 225.745C113.927 226.094 113.194 226.238 112.528 226.58C111.657 227.028 110.942 227.685 110.049 228.128C106.61 229.838 103.1 231.449 99.9407 233.613C98.2875 234.745 96.5111 235.904 95.0825 237.283C94.611 237.738 93.794 238.442 93.7086 239.102C93.5829 240.078 93.7007 239.18 94.0639 239.782C94.5669 239.839 94.6806 240.019 94.4062 240.322C94.2796 240.464 94.1174 240.536 93.9199 240.539C93.2847 240.659 92.0963 240.032 91.5858 239.77C90.701 239.316 90.2314 238.742 89.6632 237.98C88.4292 236.327 87.2251 234.659 85.9542 233.029C84.8112 231.564 83.6925 229.95 82.392 228.604C81.5101 227.691 81.444 228.09 80.4632 228.604C79.7334 228.987 78.8859 229.15 78.1297 229.511C75.2481 230.885 72.0805 231.9 69.1249 232.857C68.4518 233.075 68.0931 233.421 67.5016 233.722C66.7482 234.106 65.7939 234.294 64.9882 234.567C62.7687 235.318 60.5602 236.098 58.3564 236.888C56.655 237.499 55.02 237.98 53.688 239.107C53.158 239.555 52.5164 239.877 51.969 240.33C51.3315 240.858 50.4694 241.716 49.6669 242.015L49.1781 242.37C48.8474 242.156 48.5164 241.942 48.1847 241.729C47.8559 241.517 47.5268 241.306 47.1986 241.093C46.3743 240.56 45.556 240.019 44.7368 239.479C42.8789 238.253 41.0089 237.039 39.2808 235.656C36.2108 233.198 33.0252 230.873 29.8151 228.571C26.446 226.155 23.1613 223.627 19.6765 221.357C16.5181 219.299 13.0721 217.561 10.0097 215.389C8.46831 214.296 6.93067 213.195 5.3568 212.136C5.27113 212.079 3.99051 211.347 3.97854 211.266C3.95587 211.116 4.37728 210.726 4.50169 210.601C5.09067 210.005 5.74326 209.474 6.33003 208.871C9.06484 206.064 12.6356 206.162 16.4097 206.03C18.1212 205.969 19.9773 206.704 21.6028 207.204C23.5905 207.816 25.508 208.714 27.428 209.489C31.3849 211.087 35.4688 212.452 39.4656 213.931C41.0373 214.513 42.603 214.797 44.2008 215.197C45.8219 215.603 47.4918 215.216 49.2257 215.245C50.1255 215.26 50.9762 215.309 51.8824 215.261C52.4203 215.233 53.0402 215.138 53.5715 215.147C54.002 215.154 54.449 215.319 54.8452 215.277C56.5797 215.094 58.4118 214.838 60.2008 214.628C61.9769 214.419 63.8096 214.316 65.5624 213.99C66.4449 213.825 67.3158 213.593 68.1649 213.315C68.9019 213.073 70.2418 212.798 70.8465 212.308C71.3876 211.87 71.1511 211.864 70.8493 211.149C70.73 210.866 70.6065 210.437 70.4295 210.165C69.9511 209.429 69.4887 209.198 69.7671 208.277C70.2575 206.654 71.929 205.618 73.3599 204.818C76.5832 203.018 79.5312 200.709 82.9253 199.181C89.9187 196.035 96.2922 191.947 103.112 188.492C110.609 184.693 117.701 180.236 125.302 176.598C132.377 173.212 139.42 169.806 146.554 166.526C150.037 164.926 153.977 163.46 157.138 161.361C155.387 161.159 153.63 160.898 151.873 160.753C151.058 160.686 150.233 160.748 149.423 160.628C148.516 160.493 147.659 160.151 146.755 160.009C145.199 159.765 143.8 159.269 142.244 159.086C140.574 158.889 138.939 158.432 137.262 158.305C133.754 158.037 130.587 156.832 127.512 155.315C126.751 154.939 126.125 155.154 125.396 154.898C124.994 154.757 124.567 154.196 124.116 153.894C122.872 153.063 121.805 152.082 120.624 151.174C118.14 156.363 113.263 159.893 108.609 163.373C106.251 165.136 103.693 166.63 101.311 168.36C99.4645 169.701 97.7877 170.901 95.8166 171.968C93.924 172.991 92.1461 174.373 90.3417 175.603C89.1187 176.436 87.6853 177.065 86.3848 177.788C85.3221 178.379 83.2475 179.261 82.9577 180.333C82.7205 181.209 83.1832 182.252 81.747 181.849C80.461 181.489 79.5287 180.16 78.7797 179.224C76.8427 176.801 75.0358 174.297 73.2374 171.785C72.2714 173.54 70.6052 174.804 69.0651 176.105C68.1293 176.896 67.158 177.63 66.1473 178.335C65.6572 178.678 65.1614 179.014 64.6704 179.355C64.477 179.49 64.0386 179.697 63.9133 179.887C63.6203 180.332 63.7983 180.13 63.844 180.668C63.9151 181.51 64.2169 182.172 63.7051 182.978C63.2244 183.736 62.1766 184.059 61.4421 184.576C59.6947 185.808 57.8572 187.116 55.9186 188.077C55.4786 188.296 55.0625 188.485 54.6528 188.752C53.9687 189.197 54.0937 189.359 53.4043 188.932C52.3261 188.264 51.3948 187.154 50.4219 186.349C48.3835 184.661 46.3223 182.994 44.2348 181.359C40.2565 178.242 36.1607 175.28 32.2318 172.108C28.4983 169.093 24.4957 166.498 20.6412 163.632C19.5839 162.846 18.5395 162.044 17.496 161.242C16.5669 160.528 15.0592 159.741 14.3719 158.827C13.3738 157.5 17.2781 155.687 18.456 155.417C20.4872 154.952 23.1137 155.218 25.148 155.599C27.2835 155.999 29.458 157.338 31.452 158.172C33.6996 159.112 35.9888 159.924 38.253 160.811C39.2628 161.207 40.3334 161.523 41.2707 162.056C42.2653 162.621 43.1532 163.266 44.2108 163.74C45.4297 164.286 46.6962 164.796 47.9781 165.2C48.5589 165.383 49.1841 165.567 49.7945 165.641C50.6587 165.745 50.5416 165.375 51.2594 165.168C51.8694 164.992 52.0143 165.456 52.563 165.586C53.0795 165.708 53.4657 165.584 53.9129 165.326C54.9101 164.75 55.7976 163.955 56.7951 163.355C57.7205 162.798 58.7406 162.278 59.608 161.648C59.9948 161.367 60.2808 160.982 60.6619 160.697C61.2726 160.239 61.5148 160.421 62.2279 160.106C62.8109 159.848 63.3397 159.369 63.8944 159.051C64.2386 158.853 65.0736 158.604 65.2956 158.285C65.8789 157.447 64.8833 156.864 63.9917 157.112C63.8581 156.388 63.1725 154.669 63.4685 153.99C63.7306 153.39 64.4184 153.502 64.997 153.184C67.1715 151.989 68.7763 149.818 70.8106 148.414C72.7284 147.09 74.4204 145.509 76.3202 144.161C77.9476 143.006 79.7262 141.879 81.2081 140.633C82.9602 139.161 85.2034 138.015 87.1083 136.701C89.0761 135.344 90.9048 133.833 92.8516 132.46C94.7247 131.139 96.5643 129.759 98.4891 128.502C100.219 127.372 102.032 126.339 103.726 125.194C104.654 124.566 105.668 124.015 106.728 123.603C107.781 123.193 108.702 122.713 109.73 122.271C111.774 121.394 114.436 120.788 116.658 120.537C119.101 120.261 121.555 120.013 124.022 120.011C125.336 120.01 126.612 120.243 127.918 120.317C129.118 120.384 130.416 120.667 131.607 120.63C132.147 120.613 132.616 120.4 133.138 120.469C133.575 120.526 133.954 120.771 134.422 120.814C135.464 120.91 136.512 120.814 137.566 120.94C139.987 121.228 142.411 121.638 144.838 121.867C147.422 122.111 149.985 122.157 152.556 122.567C155.069 122.968 157.598 123.383 160.096 123.847C165.405 124.832 170.77 125.794 175.995 127.257C177.216 127.599 178.445 127.924 179.619 128.393C180.189 128.62 180.737 128.896 181.331 129.066C182.182 129.309 182.349 129.401 182.788 128.737C183.542 127.593 183.958 126.079 184.506 124.835C185.047 123.603 185.705 122.362 186.019 121.075C185.106 120.941 183.954 121.202 183.012 121.232C181.86 121.269 180.721 121.246 179.571 121.24C177.251 121.227 175.438 120.589 173.244 119.92C171.394 119.355 168.932 119.032 167.521 117.739C166.765 117.046 166.513 116.924 165.376 117.049C164.229 117.174 163.096 117.39 161.938 117.425C157.573 117.56 153.228 118.269 148.844 118.409C147.658 118.447 144.691 118.971 144.885 117.098C144.926 116.709 145.246 116.372 145.308 115.972C145.375 115.543 145.26 115.107 145.187 114.688C145.016 113.696 144.837 112.705 144.666 111.713C140.667 112.907 136.619 113.875 132.545 114.821C130.855 115.214 128.141 116.116 126.395 115.621C124.707 115.143 125.685 112.929 126.21 111.87C122.857 112.582 119.28 113.747 115.861 114.015C114.82 114.096 113.808 114.311 113.566 113.14C113.373 112.207 114.097 111.066 114.466 110.247C111.842 110.028 109.124 110.049 109.618 106.918C110.071 104.045 112.634 103.473 115.364 102.948C118.733 102.3 122.174 102.084 125.565 101.559C128.516 101.103 131.735 100.594 134.748 100.824C136.344 100.946 137.948 100.974 139.543 101.111C140.295 101.176 141.019 101.284 141.747 101.476C142.419 101.651 143.358 102.197 144.047 102.207C145.086 102.222 146.339 100.914 147.457 100.612C148.842 100.237 150.334 100.169 151.764 100.077C153.386 99.9735 155.01 99.9158 156.63 99.7935C156.999 99.7656 158.395 99.8507 158.687 99.6492C159.112 99.3558 158.829 97.8505 158.799 97.2321C158.772 96.6601 158.89 95.5888 158.464 95.3645C158.064 95.154 156.898 95.4428 156.505 95.5014C154.873 95.7448 153.322 95.7169 151.696 95.655C150.946 95.6266 150.224 95.8128 149.481 95.721C148.683 95.6228 147.88 95.373 147.085 95.234C145.364 94.9329 143.796 94.5582 142.312 93.6604C141.01 92.8726 139.47 92.3393 138.742 90.9595C138.209 89.9492 137.992 87.9994 139.559 87.7121C138.492 86.2792 137.756 84.6696 137.19 83.0139C137.088 82.7137 137.02 82.2615 136.866 81.9997C136.324 81.0738 136.827 81.8951 136.054 81.5247C135.29 81.1591 134.74 80.8697 134.143 80.2338C133.192 79.2196 132.791 77.9715 132.671 76.6501C132.507 74.8554 132.203 72.8318 132.484 71.0462C132.971 67.9533 135.4 65.6294 137.867 63.7588C139.207 62.7432 140.97 62.365 142.541 61.7487C144.058 61.1535 145.752 60.5296 147.35 60.39C148.792 60.2639 150.198 59.8256 151.642 59.6488C153.626 59.4055 155.612 59.4963 157.606 59.4225C158.524 59.3885 159.44 59.2679 160.353 59.1762C160.869 59.1243 161.742 59.1797 162.214 58.9894C162.987 58.6775 162.57 59.3325 162.846 58.3784C163.371 56.5635 163.8 54.8615 164.596 53.098C165.338 51.4549 166.238 49.8839 167.428 48.4792C168.545 47.1616 169.992 46.1979 171.307 45.0723C172.282 44.2385 173.387 43.4852 174.498 42.8109C175.134 42.4253 175.842 42.2169 176.463 41.8765C177.234 41.4543 177.914 41.1341 178.782 40.8755C180.643 40.3208 182.49 39.7317 184.467 39.7608C186.599 39.7918 188.735 39.3301 190.81 39.9156C194.663 41.003 196.551 44.8902 196.486 48.4599C197.804 48.1538 198.956 47.5645 200.352 47.514C201.638 47.4677 203.165 47.5715 204.428 47.7938C206.879 48.225 209.4 49.4934 210.862 51.4156C212.256 53.249 212.464 55.683 211.607 57.763C211.197 58.7587 210.547 59.6444 209.854 60.4856C209.346 61.1025 208.213 61.7853 208.16 62.6118C217.647 59.9423 227.172 58.0606 236.986 56.8426C241.961 56.2255 246.944 56.5345 251.924 56.1818C254.051 56.0311 256.363 56.2419 258.562 56.2498C259.49 56.2533 260.213 56.1331 260.886 55.5737C261.568 55.0078 262.112 54.3147 262.906 55.1315C263.109 55.34 263.152 55.8443 263.425 56.0012C263.755 56.1912 264.717 56.0607 265.112 56.0833C266.495 56.1618 267.845 56.3803 269.203 56.6318C271.694 57.0936 274.169 57.5604 276.631 58.1465C281.318 59.2627 285.944 60.3422 290.563 61.6672C295.277 63.0191 300.04 64.6871 304.387 66.8755C306.492 67.9354 308.594 69.2586 310.53 70.5698C311.43 71.1796 312.236 71.8393 313.019 72.5746C313.856 73.3607 314.879 73.8911 315.708 74.683C317.509 76.4055 319.305 78.2327 320.939 80.0989C321.793 81.0732 322.577 82.1009 323.336 83.1394C323.872 83.868 325.276 85.202 324.952 86.1432C324.782 86.6457 324.177 86.9972 323.626 86.8741C323.44 86.8331 323.289 86.6102 323.132 86.5891C322.596 86.5188 323.081 86.344 322.461 86.5789C321.223 87.0459 320.829 87.9827 319.257 87.7695C316.588 87.4068 314.076 86.2329 311.647 85.2093C310.953 87.6781 310.855 90.2374 310.248 92.7357C309.656 95.173 308.668 97.4975 307.476 99.7331C306.431 101.695 305.088 103.785 303.237 105.187C301.825 106.256 298.339 107.585 297.302 105.308C296.861 104.341 297.516 102.838 297.702 101.842C297.951 100.507 298.226 99.1669 298.376 97.8176C298.497 96.7214 298.559 95.6187 298.672 94.5212C298.77 93.5772 299.041 91.5503 298.47 90.7164C298.127 90.2139 298.097 90.7071 297.897 91.2087C297.654 91.8171 297.453 92.4205 297.275 93.0471C296.898 94.3785 296.558 95.7189 296.201 97.055C295.564 99.4422 294.861 101.777 293.533 103.924C292.353 105.83 290.693 107.921 288.169 108.233C286.988 108.379 285.448 107.876 284.546 107.135C283.534 106.304 283.836 104.933 283.844 103.803Z" fill="black"/>
<path fill-rule="evenodd" clip-rule="evenodd" d="M226.223 201.285C227.61 201.03 228.777 200 229.91 199.226C231.354 198.239 232.724 197.163 234.127 196.126C236.77 194.172 239.168 192.029 241.448 189.698C245.947 185.099 249.334 179.18 250.874 173.132C251.653 170.072 252.617 166.487 252.174 163.324C252.021 162.225 251.786 162.024 250.629 161.899C250.107 161.843 248.78 161.703 248.31 161.894C247.09 162.39 246.432 164.501 246.071 165.562C245.002 168.694 244.374 171.937 243.408 175.095C242.462 178.19 240.937 181.33 239.429 184.225C236.073 190.664 231.409 196.052 226.223 201.285ZM253.733 165.731C252.903 174.5 250.288 182.855 244.424 189.917C241.636 193.274 238.358 196.195 234.805 198.847C231.136 201.587 227.39 204.167 223.227 206.21C222.119 206.753 221.01 207.295 219.888 207.814C219.266 208.102 217.697 209.161 216.98 208.993C216.405 208.859 216.255 208.445 216.166 207.907C215.965 206.698 216.808 206.095 217.66 205.319C221.086 202.202 224.521 199.074 227.724 195.758C234.049 189.209 238.8 181.367 241.441 172.905C242.254 170.3 242.98 167.665 243.859 165.079C244.393 163.503 245.152 160.697 246.929 159.912C247.882 159.49 248.993 159.9 249.996 159.648C250.936 159.411 251.559 158.928 252.36 159.738C253.766 161.16 253.829 163.949 253.733 165.731Z" fill="black"/>
<path fill-rule="evenodd" clip-rule="evenodd" d="M3.16855 216.329C2.4665 216.56 2.43721 216.79 2.11564 216.118C1.95375 215.779 1.99753 215.314 2.03564 214.962C2.12698 214.119 2.60383 213.34 2.99564 212.592C6.68319 215.424 10.5122 217.976 14.4662 220.478C18.6949 223.153 22.7324 226.128 26.7317 229.092C30.3132 231.746 33.9377 234.322 37.4817 237.009C39.191 238.305 41.1396 239.31 42.7645 240.646C44.0776 241.725 46.2552 242.209 47.3746 243.479C45.6007 244.466 43.2325 245.26 41.2669 244.407C39.0984 243.465 37.435 242.237 35.5053 240.961C34.5109 240.303 33.477 239.706 32.4669 239.07C31.579 238.51 30.9519 237.694 30.053 237.169C28.1639 236.065 26.2259 234.85 24.4335 233.59C22.5922 232.296 20.5569 231.267 18.7805 229.892C16.9594 228.482 14.921 227.547 13.0196 226.264C8.98997 223.544 5.44161 220.484 3.16855 216.329Z" fill="black"/>
<path fill-rule="evenodd" clip-rule="evenodd" d="M111.888 71.893C111.838 72.1434 111.788 72.3937 111.738 72.6444C111.768 72.6509 114.179 68.3145 114.579 67.7909C115.934 66.0156 117.697 64.5384 119.397 63.0558C122.997 59.915 127.212 57.3801 130.74 54.1833C131.901 53.1317 133.981 51.5381 133.522 49.7599C133.066 47.9925 129.213 48.3517 127.894 48.863C125.825 49.6649 124.145 51.342 122.604 52.8033C120.922 54.3974 119.228 55.9736 117.803 57.7776C116.266 59.723 114.808 61.8299 113.866 64.0875C112.812 66.6166 112.4 69.234 111.888 71.893ZM112.68 79.6521C111.043 80.1218 113.095 80.439 112.454 81.253C111.751 82.1455 110.569 79.3956 110.392 78.8763C109.351 75.8086 109.817 72.0818 110.385 68.9672C110.673 67.3959 110.858 65.7989 111.246 64.2447C111.624 62.7291 112.447 61.289 113.207 59.9103C114.729 57.152 116.745 54.5821 119.032 52.333C121.327 50.0766 123.884 47.8189 126.912 46.4298C129.414 45.2825 133.379 46.0785 134.55 48.5845C135.747 51.1452 134.129 53.9347 132.215 55.7352C129.718 58.0834 126.998 60.4158 124.194 62.4406C122.753 63.4815 121.545 64.7402 120.145 65.8262C118.655 66.9822 117.366 68.145 116.265 69.6401C115.197 71.0887 114.099 72.5362 113.406 74.1808C112.646 75.9816 112.68 77.7469 112.68 79.6521Z" fill="black"/>
<path fill-rule="evenodd" clip-rule="evenodd" d="M47.2319 190.082C43.4719 187.829 39.6993 185.85 36.425 182.976C33.1921 180.138 30.3675 176.937 26.7694 174.475C24.9741 173.247 23.1212 172.094 21.3577 170.825C19.684 169.621 17.7602 168.589 16.2475 167.216C14.2311 165.385 10.456 161.982 13.032 159.252C16.2295 162.792 20.6166 165.582 24.6163 168.27C28.8336 171.103 32.7045 174.409 36.705 177.497C40.5585 180.47 44.3992 183.472 48.1595 186.525C49.1469 187.327 50.0993 188.169 51.0984 188.958C51.2206 189.054 52.2562 189.665 52.2562 189.828C52.2565 190.217 51.4537 190.461 51.1677 190.569C50.7163 190.741 49.4955 191.166 48.9837 191.022C48.7154 190.947 48.7107 190.743 48.5173 190.622C48.4061 190.427 48.2763 190.243 48.1289 190.07C47.8297 190.075 47.5308 190.079 47.2319 190.082Z" fill="black"/>
<path fill-rule="evenodd" clip-rule="evenodd" d="M268.581 150.786C265.901 150.722 261.821 150.715 261.971 154.122C262.045 155.809 263.028 157.048 263.835 158.491C264.683 160.007 265.311 161.574 265.56 163.274C266.566 170.154 263.866 176.876 261.425 183.237C266.669 179.297 270.456 173.814 272.445 167.804C273.409 164.89 273.784 161.144 273.473 158.109C273.317 156.591 272.715 155.23 271.991 153.877C271.627 153.197 271.263 152.421 270.683 151.871C270.102 151.32 269.296 151.136 268.581 150.786ZM259.231 187.178C257.499 184.527 260.226 180.624 261.117 178.039C262.183 174.949 263.166 171.731 263.622 168.508C264.099 165.132 263.483 162.507 261.802 159.525C260.299 156.859 259.406 153.308 261.077 150.487C261.751 149.352 262.744 149.213 263.926 148.76C265.376 148.204 265.775 147.264 267.555 147.413C270.73 147.678 272.199 150.482 273.38 152.87C276.134 158.438 275.385 165.623 273.037 171.214C271.685 174.431 270.143 177.771 267.848 180.511C266.723 181.854 265.4 183.018 264.027 184.139C262.542 185.35 261.212 186.811 259.231 187.178Z" fill="black"/>
<path fill-rule="evenodd" clip-rule="evenodd" d="M77.9152 90.5109C73.7293 91.294 69.9095 93.0503 69.2389 97.4295C68.6295 101.409 71.5416 105.091 75.1177 106.954C78.9854 108.97 83.8317 109.304 87.6856 107.071C91.7426 104.719 92.6629 100.007 90.1936 96.3103C87.4383 92.1848 82.8226 90.9671 77.9152 90.5109ZM80.6052 88.6016C85.5898 89.2815 90.2169 92.5838 91.896 97.0313C93.627 101.616 92.0364 106.657 87.4538 109.169C78.1923 114.246 65.814 105.785 68.0493 96.0594C68.6169 93.5901 70.2285 91.6778 72.4181 90.2321C74.8355 88.6356 77.7586 88.5922 80.6052 88.6016Z" fill="black"/>
<path fill-rule="evenodd" clip-rule="evenodd" d="M257.828 42.0432C251.822 39.5153 245.816 36.9874 239.81 34.4594C239.564 36.9938 239.317 39.5279 239.071 42.0623C239.004 42.7481 238.731 43.681 238.847 44.3577C238.972 45.0799 238.706 45.0027 239.718 44.9001C241.011 44.7685 242.309 44.4712 243.589 44.2586C245.89 43.8763 248.337 43.7672 250.589 43.2049C251.739 42.9178 252.839 42.8818 254.006 42.7082C255.287 42.5176 256.534 42.1646 257.828 42.0432ZM237.511 46.9425C237.511 44.0877 237.852 41.2712 238.133 38.4296C238.385 35.8729 238.483 33.4359 239.379 31C240.217 32.4158 242.536 32.9817 243.971 33.7103C245.948 34.7142 248.054 35.4534 250.078 36.3678C252.066 37.2659 253.981 38.2971 255.971 39.1931C256.98 39.6475 258.005 40.0715 259.012 40.5295C259.642 40.8162 261.138 41.2777 261.53 41.8101C262.721 43.4262 258.645 43.5825 257.858 43.725C255.499 44.1534 253.112 44.3947 250.757 44.835C248.562 45.2461 246.362 45.6275 244.158 46.0002C241.978 46.369 239.731 46.9425 237.511 46.9425Z" fill="black"/>
<path fill-rule="evenodd" clip-rule="evenodd" d="M52.3202 117.617C54.6849 117.388 57.0399 117.059 59.4021 116.841C61.6389 116.635 63.6175 116.416 65.661 115.462C62.8701 114.678 60.0729 113.936 57.2584 113.229C55.8625 112.878 54.4695 112.506 53.0672 112.178C51.9825 111.924 51.037 111.778 50.62 110.676C50.1346 109.393 51.4843 109.588 52.3255 109.914C53.4858 110.363 54.7498 110.643 55.9523 111.016C58.6364 111.851 61.3369 112.618 64.0462 113.376C64.8884 113.612 69.7684 114.484 68.01 116C67.2575 116.648 65.5785 117.005 64.6585 117.471C63.4783 118.068 62.1936 118.306 60.8808 118.544C58.1447 119.039 55.3054 119.23 52.5356 119.66C51.1211 119.879 49.7069 120.099 48.2927 120.318C47.4641 120.447 47.145 120.434 46.9286 119.574C46.7712 118.949 46.9765 118.324 47.1277 117.718C47.5113 116.18 47.9381 114.649 48.3605 113.12C48.5211 112.536 48.8055 109.972 49.3646 109.691C50.6329 109.054 49.6543 112.605 49.5602 113.04C49.2042 114.68 48.7816 116.309 48.5913 117.973C49.837 117.868 51.0792 117.76 52.3202 117.617Z" fill="black"/>
<path fill-rule="evenodd" clip-rule="evenodd" d="M85.8503 130.675C86.3196 131.772 85.5404 132.017 84.5948 132.397C83.3684 132.89 82.1621 133.41 80.9133 133.854C78.2862 134.787 75.6402 135.654 73.0758 136.734C68.1847 138.793 63.2275 140.77 58.4124 142.975C57.2159 143.523 56.0184 144.069 54.8112 144.597C53.5626 145.143 52.1308 146.061 50.7951 146.373C49.63 146.645 49.5085 145.873 50.1989 145.162C51.0889 144.244 52.465 143.559 53.5828 142.922C58.1831 140.297 63.2039 138.16 68.2285 136.354C74.0361 134.267 79.8594 132.264 85.8503 130.675Z" fill="black"/>
<path fill-rule="evenodd" clip-rule="evenodd" d="M98.6204 68.4509C98.4522 65.1161 98.9312 61.7722 98.6456 58.4461C93.7334 62.4999 96.1536 68.7646 98.9794 73.1631L98.6204 68.4509ZM100.747 68.2603C100.778 69.8893 100.877 71.5174 100.707 73.1382C100.528 74.8396 101.386 75.716 102.503 76.9691C101.554 77.8657 99.3766 75.7752 98.7753 75.1589C97.5372 73.8899 96.616 72.2041 95.7961 70.6803C94.05 67.4344 92.8474 63.9591 94.2449 60.3953C94.763 59.0745 95.3967 57.2786 96.7684 56.5096C98.2745 55.6652 99.4267 56.8561 100.052 58.0811C101.577 61.07 100.414 65.0521 100.747 68.2603Z" fill="black"/>
<path fill-rule="evenodd" clip-rule="evenodd" d="M152.785 234.027C155.049 234.194 157.281 234.359 159.546 234.492C159.155 231.602 158.764 228.711 158.373 225.821C157.062 226.103 155.752 226.386 154.441 226.668C153.822 226.801 152.872 226.836 152.323 227.124C152.118 227.168 151.913 227.213 151.708 227.257C151.702 227.632 151.698 228.007 151.694 228.383C151.679 229.493 151.644 230.601 151.595 231.711C151.574 232.175 151.4 232.856 151.519 233.316C151.307 233.782 151.442 233.98 151.925 233.91C152.212 233.949 152.498 233.988 152.785 234.027ZM151.225 236.117C149.45 235.294 149.935 232.779 149.938 231.179C149.94 230.16 150.017 229.149 150.046 228.132C150.066 227.433 149.894 226.568 150.152 225.893C150.612 224.692 152.861 224.724 154.017 224.808C154.874 224.871 155.592 224.83 156.47 224.778C156.903 224.752 157.387 224.829 157.812 224.71C157.904 224.684 158.77 224.122 158.731 224.121C160.284 224.176 160.305 227.642 160.406 228.522C160.655 230.69 160.881 232.862 161.084 235.035C161.137 235.61 161.367 236.26 160.78 236.588C160.251 236.884 158.849 236.591 158.263 236.575C155.904 236.508 153.558 236.166 151.225 236.117Z" fill="black"/>
<path fill-rule="evenodd" clip-rule="evenodd" d="M262.055 107.311C263.081 108.171 262.588 109.058 262.252 110.133C262.05 110.777 260.939 112.894 261.246 113.497C261.6 114.195 263.264 114.366 263.975 114.586C265.214 114.97 266.459 115.355 267.631 115.896C268.152 116.136 270.029 116.688 270.38 117.136C270.582 117.393 270.655 117.594 270.504 117.925C270.238 118.506 269.858 118.198 269.21 118.074C266.246 117.504 263.308 116.775 260.56 115.573C259.793 117.228 259.145 118.919 258.496 120.618C258.306 121.116 258.125 122.247 257.403 122.328C256.523 122.426 256.511 121.328 256.57 120.736C256.655 119.872 257.136 118.951 257.427 118.132C257.666 117.457 258.507 116.05 258.403 115.354C258.333 114.875 258.019 114.909 257.46 114.72C256.932 114.543 256.403 114.366 255.875 114.186C255.029 113.898 254.186 113.609 253.362 113.267C252.91 113.079 251.965 112.86 251.637 112.471C251.448 112.245 251.236 111.431 251.476 111.206C252.036 110.679 255.762 112.098 256.529 112.292C257.037 112.421 257.548 112.519 258.041 112.688C258.228 112.752 258.449 113.012 258.651 113.022C259.508 113.062 259.576 112.449 259.842 111.79C260.46 110.261 261.13 108.7 262.055 107.311Z" fill="black"/>
<path fill-rule="evenodd" clip-rule="evenodd" d="M48.391 137.744C47.934 136.701 52.7847 135.441 53.6852 135.09C55.883 134.233 58.2376 133.715 60.5132 133.061C62.751 132.418 64.9791 131.725 67.18 130.981C67.8606 130.75 72.7621 128.529 73.0184 128.854C73.8679 129.928 63.5825 133.305 62.5803 133.641C57.9264 135.201 53.1211 136.398 48.391 137.744Z" fill="black"/>
<path fill-rule="evenodd" clip-rule="evenodd" d="M257.021 56.1865C255.763 56.1982 253.95 56.5301 252.796 56.0551C254.204 56.0988 255.613 56.1428 257.021 56.1865Z" fill="black"/>
<path fill-rule="evenodd" clip-rule="evenodd" d="M80.6052 88.6016L77.8093 88.5922C78.7422 88.3908 79.6745 88.2691 80.6052 88.6016Z" fill="black"/>
<path fill-rule="evenodd" clip-rule="evenodd" d="M226.204 87.907C226.863 87.9036 227.522 87.9002 228.177 87.8965C227.516 87.9002 226.86 87.9036 226.204 87.907Z" fill="black"/>
<path fill-rule="evenodd" clip-rule="evenodd" d="M283.844 103.803C283.839 104.46 283.835 105.116 283.829 105.77C283.833 105.113 283.839 104.458 283.844 103.803Z" fill="black"/>
<path fill-rule="evenodd" clip-rule="evenodd" d="M154.017 224.808C153.317 224.856 152.617 224.903 151.917 224.949C152.618 224.903 153.317 224.855 154.017 224.808Z" fill="black"/>
<path fill-rule="evenodd" clip-rule="evenodd" d="M157.963 99.6926C157.251 99.7463 156.54 99.8002 155.83 99.8539C156.541 99.8 157.252 99.7463 157.963 99.6926Z" fill="black"/>
<path fill-rule="evenodd" clip-rule="evenodd" d="M231.546 87.6905C232.049 87.6896 232.552 87.6887 233.051 87.6877C232.547 87.689 232.046 87.6899 231.546 87.6905Z" fill="black"/>
<path fill-rule="evenodd" clip-rule="evenodd" d="M130.299 100.974C129.673 101.026 129.048 101.079 128.423 101.131C129.048 101.079 129.673 101.026 130.299 100.974Z" fill="black"/>
<path fill-rule="evenodd" clip-rule="evenodd" d="M157.919 59.4207C157.294 59.4242 156.668 59.4277 156.043 59.4313C156.667 59.1234 157.292 59.2029 157.919 59.4207Z" fill="black"/>
<path fill-rule="evenodd" clip-rule="evenodd" d="M43.7551 160.119C43.2348 160.093 42.8108 160.328 42.5173 159.866C42.9976 159.517 43.2748 159.919 43.7551 160.119Z" fill="black"/>
<path fill-rule="evenodd" clip-rule="evenodd" d="M140.254 121.237L138.631 121.067L140.254 121.237Z" fill="black"/>
<path fill-rule="evenodd" clip-rule="evenodd" d="M151.225 236.117C151.584 236.125 151.942 236.132 152.297 236.14C151.937 236.132 151.581 236.124 151.225 236.117Z" fill="black"/>
<path fill-rule="evenodd" clip-rule="evenodd" d="M234.557 57.137C233.998 57.1836 233.439 57.2302 232.88 57.2769C233.439 57.23 233.998 57.1836 234.557 57.137Z" fill="black"/>
<path fill-rule="evenodd" clip-rule="evenodd" d="M57.3919 215.006C56.8549 215.008 56.3182 215.01 55.7815 215.012C56.3185 215.01 56.8552 215.008 57.3919 215.006Z" fill="black"/>
<path fill-rule="evenodd" clip-rule="evenodd" d="M14.2297 206.145C13.6877 206.146 13.146 206.147 12.6042 206.148C13.1463 206.147 13.6877 206.146 14.2297 206.145Z" fill="black"/>
<path fill-rule="evenodd" clip-rule="evenodd" d="M151.183 100.109C150.633 100.159 150.083 100.21 149.532 100.26C150.083 100.21 150.633 100.159 151.183 100.109Z" fill="black"/>
<path fill-rule="evenodd" clip-rule="evenodd" d="M135.831 100.94C135.289 100.882 134.748 100.824 134.207 100.766C134.743 100.864 135.339 100.478 135.831 100.94Z" fill="black"/>
<path fill-rule="evenodd" clip-rule="evenodd" d="M184.862 121.17C185.199 121.134 185.672 121.024 186.019 121.076C185.974 121.26 184.991 121.169 184.862 121.17Z" fill="black"/>
<path fill-rule="evenodd" clip-rule="evenodd" d="M150.52 160.703C150.883 160.71 151.247 160.716 151.606 160.722C151.242 160.716 150.881 160.71 150.52 160.703Z" fill="black"/>
<path fill-rule="evenodd" clip-rule="evenodd" d="M117.718 120.442C117.188 120.489 116.658 120.537 116.128 120.585C116.658 120.537 117.188 120.489 117.718 120.442Z" fill="black"/>
<path fill-rule="evenodd" clip-rule="evenodd" d="M58.3368 118.759C58.626 118.766 58.9151 118.774 59.2004 118.781C58.91 118.774 58.6234 118.766 58.3368 118.759Z" fill="black"/>
<path fill-rule="evenodd" clip-rule="evenodd" d="M136.501 120.813C136.048 120.805 135.594 120.796 135.141 120.788C135.594 120.796 136.048 120.805 136.501 120.813Z" fill="black"/>
<path fill-rule="evenodd" clip-rule="evenodd" d="M52.3201 117.617C51.8615 117.67 51.4029 117.722 50.945 117.775C51.4039 117.722 51.8618 117.67 52.3201 117.617Z" fill="black"/>
<path fill-rule="evenodd" clip-rule="evenodd" d="M115.226 113.991C115.509 114.001 115.792 114.012 116.072 114.023C115.787 114.013 115.506 114.002 115.226 113.991Z" fill="black"/>
<path fill-rule="evenodd" clip-rule="evenodd" d="M136.832 158.331C137.119 158.313 137.406 158.296 137.69 158.278C137.402 158.295 137.117 158.313 136.832 158.331Z" fill="black"/>
<path fill-rule="evenodd" clip-rule="evenodd" d="M158.829 123.61C158.367 123.556 157.904 123.503 157.442 123.449C157.904 123.503 158.367 123.556 158.829 123.61Z" fill="black"/>
<path fill-rule="evenodd" clip-rule="evenodd" d="M47.2319 190.083C47.5321 190.079 47.8322 190.075 48.1289 190.07C47.8278 190.074 47.5295 190.079 47.2319 190.083Z" fill="black"/>
<path fill-rule="evenodd" clip-rule="evenodd" d="M22.5873 155.362C22.1092 155.317 21.631 155.272 21.1526 155.227C21.6307 155.272 22.1088 155.317 22.5873 155.362Z" fill="black"/>
<path fill-rule="evenodd" clip-rule="evenodd" d="M12.3855 206.206C11.9156 206.256 11.4456 206.307 10.9754 206.358C11.446 206.307 11.9156 206.256 12.3855 206.206Z" fill="black"/>
<path fill-rule="evenodd" clip-rule="evenodd" d="M268.557 87.8352C268.52 88.2134 268.484 88.5917 268.446 88.9684C268.483 88.5896 268.52 88.2126 268.557 87.8352Z" fill="black"/>
<path fill-rule="evenodd" clip-rule="evenodd" d="M60.2005 214.628C59.7277 214.678 59.2549 214.729 58.7825 214.779C59.2553 214.729 59.728 214.678 60.2005 214.628Z" fill="black"/>
<path fill-rule="evenodd" clip-rule="evenodd" d="M55.5624 215.064C55.0839 215.375 54.6058 215.393 54.1271 215.065C54.6055 215.065 55.0839 215.064 55.5624 215.064Z" fill="black"/>
<path fill-rule="evenodd" clip-rule="evenodd" d="M46.4915 215.436C46.0275 215.436 45.5639 215.437 45.1003 215.437C45.5642 215.437 46.0278 215.436 46.4915 215.436Z" fill="black"/>
<path fill-rule="evenodd" clip-rule="evenodd" d="M100.747 68.2603C100.707 67.8771 100.667 67.4942 100.628 67.1124C100.667 67.4962 100.707 67.8782 100.747 68.2603Z" fill="black"/>
<path fill-rule="evenodd" clip-rule="evenodd" d="M151.41 59.7034C150.944 59.757 150.478 59.8104 150.012 59.8637C150.479 59.8104 150.945 59.757 151.41 59.7034Z" fill="black"/>
<path fill-rule="evenodd" clip-rule="evenodd" d="M153.062 59.5005C152.589 59.5497 152.115 59.5993 151.641 59.6488C152.115 59.5993 152.589 59.5497 153.062 59.5005Z" fill="black"/>
<path fill-rule="evenodd" clip-rule="evenodd" d="M79.4877 110.563C79.7794 110.558 80.071 110.554 80.3586 110.55C80.0657 110.554 79.7769 110.558 79.4877 110.563Z" fill="black"/>
<path fill-rule="evenodd" clip-rule="evenodd" d="M121.692 106.318C123.239 106.08 124.785 106.001 126.332 106.317L121.692 106.318Z" fill="black"/>
<path fill-rule="evenodd" clip-rule="evenodd" d="M162.947 90.1198C163.269 89.337 163.349 89.0432 164.135 88.638C163.808 89.3988 163.757 89.8058 162.947 90.1198Z" fill="black"/>
<path fill-rule="evenodd" clip-rule="evenodd" d="M200.669 167.594C200.701 168.408 200.732 169.222 200.762 170.035C200.731 169.221 200.7 168.407 200.669 167.594Z" fill="black"/>
<path fill-rule="evenodd" clip-rule="evenodd" d="M256.768 58.0664C256.068 58.0811 255.368 58.096 254.671 58.1107C255.372 58.096 256.07 58.0811 256.768 58.0664Z" fill="black"/>
<path fill-rule="evenodd" clip-rule="evenodd" d="M163.546 182.06C163.57 182.738 163.594 183.417 163.618 184.095C163.594 183.416 163.57 182.738 163.546 182.06Z" fill="black"/>
<path fill-rule="evenodd" clip-rule="evenodd" d="M77.7948 160.321C78.5016 160.326 79.2087 160.331 79.9155 160.336C79.2084 160.331 78.5016 160.326 77.7948 160.321Z" fill="black"/>
<path fill-rule="evenodd" clip-rule="evenodd" d="M137.879 125.468C137.453 125.472 137.028 125.476 136.606 125.481C137.033 125.477 137.456 125.473 137.879 125.468Z" fill="black"/>
<path fill-rule="evenodd" clip-rule="evenodd" d="M136.492 103.9C136.142 103.889 135.791 103.877 135.445 103.867C135.797 103.879 136.144 103.889 136.492 103.9Z" fill="black"/>
<path fill-rule="evenodd" clip-rule="evenodd" d="M86.4024 160.116C86.9551 160.066 87.5076 160.015 88.0603 159.965C87.5076 160.015 86.9551 160.066 86.4024 160.116Z" fill="black"/>
<path fill-rule="evenodd" clip-rule="evenodd" d="M74.3599 160.347C74.9013 160.339 75.4427 160.331 75.9838 160.324C75.4427 160.331 74.9013 160.339 74.3599 160.347Z" fill="black"/>
<path fill-rule="evenodd" clip-rule="evenodd" d="M80.14 160.334C80.7007 160.289 81.2613 160.243 81.8223 160.198C81.2616 160.243 80.7007 160.289 80.14 160.334Z" fill="black"/>
<path fill-rule="evenodd" clip-rule="evenodd" d="M82.1844 161.162C81.9057 161.16 81.627 161.158 81.352 161.157C81.632 161.159 81.9082 161.16 82.1844 161.162Z" fill="black"/>
<path fill-rule="evenodd" clip-rule="evenodd" d="M200.425 149.5C200.466 149.118 200.508 148.736 200.549 148.354C200.508 148.737 200.466 149.119 200.425 149.5Z" fill="black"/>
<path fill-rule="evenodd" clip-rule="evenodd" d="M116.717 110.837C117.069 110.865 117.42 110.892 117.773 110.921C117.38 110.939 116.987 110.958 116.594 110.977C116.597 110.902 116.637 110.855 116.717 110.837Z" fill="black"/>
<path fill-rule="evenodd" clip-rule="evenodd" d="M207.055 175.169C207.033 174.821 207.01 174.472 206.989 174.126C207.011 174.475 207.033 174.822 207.055 175.169Z" fill="black"/>
<path fill-rule="evenodd" clip-rule="evenodd" d="M123.029 109.508C122.746 109.513 122.464 109.519 122.185 109.524C122.469 109.518 122.749 109.513 123.029 109.508Z" fill="black"/>
<path fill-rule="evenodd" clip-rule="evenodd" d="M226.364 153.477C226.835 153.529 227.305 153.58 227.775 153.631C227.305 153.58 226.835 153.529 226.364 153.477Z" fill="black"/>
<path fill-rule="evenodd" clip-rule="evenodd" d="M128.635 124.616C128.345 124.621 128.055 124.625 127.769 124.63C128.06 124.626 128.347 124.621 128.635 124.616Z" fill="black"/>
<path fill-rule="evenodd" clip-rule="evenodd" d="M111.888 71.893C112.192 72.044 112.034 72.7078 111.738 72.6444C111.788 72.3938 111.838 72.1434 111.888 71.893Z" fill="black"/>
<path fill-rule="evenodd" clip-rule="evenodd" d="M268.581 150.786C268.302 150.779 268.023 150.773 267.747 150.766C268.027 150.773 268.304 150.78 268.581 150.786Z" fill="black"/>
<path fill-rule="evenodd" clip-rule="evenodd" d="M98.6204 68.4509C98.5908 67.8659 98.5615 67.2813 98.5322 66.6981C98.5615 67.2836 98.5911 67.8671 98.6204 68.4509Z" fill="black"/>
<path fill-rule="evenodd" clip-rule="evenodd" d="M151.495 233.851C151.925 233.91 152.355 233.968 152.785 234.027C152.355 233.968 151.925 233.91 151.495 233.851Z" fill="black"/>
<path fill-rule="evenodd" clip-rule="evenodd" d="M148.652 83.2701C147.135 83.5607 145.578 83.7126 144.097 84.1404C143.728 84.2471 142.515 84.9027 142.072 84.73C141.4 84.467 141.74 83.7923 142.023 83.4323C142.781 82.4694 144.137 81.9299 145.38 81.942C146.62 81.9543 148.324 81.9121 148.652 83.2701Z" fill="black"/>
<path fill-rule="evenodd" clip-rule="evenodd" d="M144.438 85.8535C146.108 86.9416 147.384 87.4775 147.525 85.032C149.335 85.2616 148.524 87.9748 147.155 88.1794C145.664 88.402 144.67 87.016 144.438 85.8535Z" fill="black"/>
</svg>
